<svg version="1.1" xmlns="http://www.w3.org/2000/svg" xmlns:xlink="http://www.w3.org/1999/xlink" width="31.57364" height="31.57365" viewBox="0,0,31.57364,31.57365"><defs><radialGradient cx="300" cy="179.99999" r="15.78682" gradientUnits="userSpaceOnUse" id="color-1"><stop offset="0" stop-color="#ffffff" stop-opacity="0.40784"/><stop offset="1" stop-color="#ffffff" stop-opacity="0"/></radialGradient><radialGradient cx="300" cy="179.99999" r="10.61768" gradientUnits="userSpaceOnUse" id="color-2"><stop offset="0" stop-color="#ffffff"/><stop offset="1" stop-color="#ffffff" stop-opacity="0.40784"/></radialGradient></defs><g transform="translate(-284.21318,-164.21317)"><g data-paper-data="{&quot;isPaintingLayer&quot;:true}" fill-rule="nonzero" stroke="#ff0000" stroke-width="0" stroke-linecap="butt" stroke-linejoin="miter" stroke-miterlimit="10" stroke-dasharray="" stroke-dashoffset="0" style="mix-blend-mode: normal"><g><path d="M284.21318,179.99999c0,-8.71882 7.068,-15.78682 15.78682,-15.78682c8.71882,0 15.78682,7.068 15.78682,15.78683c0,8.71882 -7.068,15.78683 -15.78682,15.78683c-8.71882,0 -15.78682,-7.068 -15.78682,-15.78682z" fill="url(#color-1)"/><path d="M300,195.01566c0,0 -0.09965,-9.97838 -2.56847,-12.4472c-2.53467,-2.53467 -12.4472,-2.56847 -12.4472,-2.56847c0,0 9.78081,-0.29723 12.24963,-2.76604c2.53467,-2.53467 2.76604,-12.24963 2.76604,-12.24963c0,0 -0.06244,9.8163 2.3709,12.24963c2.56496,2.56496 12.64478,2.76604 12.64478,2.76604c0,0 -9.78081,-0.09793 -12.24963,2.3709c-2.53467,2.53467 -2.76604,12.64478 -2.76604,12.64478z" fill="url(#color-2)"/></g></g></g></svg>