<svg version="1.1" xmlns="http://www.w3.org/2000/svg" xmlns:xlink="http://www.w3.org/1999/xlink" width="254.37082" height="254.37082" viewBox="0,0,254.37082,254.37082"><defs><radialGradient cx="300.00001" cy="180.32897" r="127.18541" gradientUnits="userSpaceOnUse" id="color-1"><stop offset="0" stop-color="#000000" stop-opacity="0"/><stop offset="1" stop-color="#000000" stop-opacity="0"/></radialGradient></defs><g transform="translate(-172.81461,-53.14357)"><g data-paper-data="{&quot;isPaintingLayer&quot;:true}" fill-rule="nonzero" stroke="#000000" stroke-width="0" stroke-linecap="butt" stroke-linejoin="miter" stroke-miterlimit="10" stroke-dasharray="" stroke-dashoffset="0" style="mix-blend-mode: normal"><path d="M172.81461,180.32897c0,-70.24256 56.94284,-127.1854 127.18541,-127.1854c70.24257,0 127.18541,56.94284 127.18541,127.18541c0,70.24256 -56.94284,127.18541 -127.1854,127.18541c-70.24256,0 -127.1854,-56.94285 -127.1854,-127.1854z" fill="url(#color-1)"/><path d="M312.71062,221.916c-8.3613,0.65565 -36.40533,8.11608 -50.00035,21.7831c8.27508,-18.69249 29.8678,-25.34908 43.93849,-29.46409c6.92624,-2.0256 33.75006,-7.97568 43.14169,13.37423c0,0 -9.0079,-4.25493 -20.46292,-5.92219c-5.2365,-0.76216 -10.98438,0.05731 -16.6169,0.22896z" data-paper-data="{&quot;index&quot;:null}" fill="#000000"/></g></g></svg>