<svg version="1.1" xmlns="http://www.w3.org/2000/svg" xmlns:xlink="http://www.w3.org/1999/xlink" width="254.37081" height="254.37081" viewBox="0,0,254.37081,254.37081"><defs><radialGradient cx="300" cy="180" r="127.18541" gradientUnits="userSpaceOnUse" id="color-1"><stop offset="0" stop-color="#000000" stop-opacity="0"/><stop offset="1" stop-color="#000000" stop-opacity="0"/></radialGradient></defs><g transform="translate(-172.81459,-52.81459)"><g data-paper-data="{&quot;isPaintingLayer&quot;:true}" fill-rule="nonzero" stroke="#000000" stroke-linejoin="miter" stroke-miterlimit="10" stroke-dasharray="" stroke-dashoffset="0" style="mix-blend-mode: normal"><path d="M374.875,205.5c0,0 -20.1751,20.73167 -74.75,21.5c-48.6753,0.68526 -76.25,-25 -76.25,-25" fill="none" stroke-width="8" stroke-linecap="round"/><path d="M213.43053,209.79596c0,0 -1.31513,-9.6086 2.73071,-12.59926c4.04583,-2.99066 18.36238,-2.99266 18.36238,-2.99266c0,0 -9.07561,4.70667 -12.69151,7.37954c-3.40208,2.5148 -8.40157,8.21238 -8.40157,8.21238z" fill="#000000" stroke-width="0" stroke-linecap="butt"/><path d="M172.8146,180c0,-70.24256 56.94284,-127.1854 127.18541,-127.1854c70.24257,0 127.18541,56.94284 127.18541,127.18541c0,70.24256 -56.94284,127.18541 -127.1854,127.18541c-70.24256,0 -127.1854,-56.94285 -127.1854,-127.1854z" fill="url(#color-1)" stroke-width="0" stroke-linecap="butt"/></g></g></svg>