<svg version="1.1" xmlns="http://www.w3.org/2000/svg" xmlns:xlink="http://www.w3.org/1999/xlink" width="230.14186" height="230.14186" viewBox="0,0,230.14186,230.14186"><g transform="translate(-184.92915,-64.92911)"><g data-paper-data="{&quot;isPaintingLayer&quot;:true}" fill-rule="nonzero" stroke-linejoin="miter" stroke-miterlimit="10" stroke-dasharray="" stroke-dashoffset="0" style="mix-blend-mode: normal"><path d="M184.92916,295.07097v-230.14186h230.14186v230.14186z" fill="none" stroke="none" stroke-width="0" stroke-linecap="butt"/><g data-paper-data="{&quot;index&quot;:null}"><path d="M400.48166,225.50978c3.08258,12.5349 5.30273,34.74801 -19.86112,43.43708c-17.56154,6.06397 -62.0708,-12.65329 -82.4251,-13.66244c-34.07093,-1.68921 -65.71171,16.22126 -75.83524,15.30869c-19.73416,-1.7789 -24.11699,-29.53942 -24.63157,-43.24483c-0.92318,-24.5882 14.96844,-40.5532 33.21571,-40.94016c24.75913,-0.52502 38.67265,14.06884 69.62604,13.34997c21.31382,-0.49498 46.48357,-16.47961 65.40738,-13.04643c22.22175,4.03151 28.6952,15.17799 34.50386,38.798z" fill="#000000" stroke="none" stroke-width="0.5" stroke-linecap="butt"/><g fill="#ffffff" stroke="#ff0000" stroke-width="0" stroke-linecap="round"><path d="M219.11127,197.03078c0,0 5.11808,-3.48014 8.1566,-4.02194c7.8734,-1.40394 13.33663,1.10641 13.33663,1.10641c0,0 2.48432,22.71471 -6.30778,23.90733c-8.79205,1.19268 -15.18541,-20.99174 -15.18541,-20.99174z"/><path d="M266.06928,200.82103c0,0 -0.19181,21.18205 -8.87763,19.24245c-12.01868,-2.68383 -11.91472,-23.61571 -11.91472,-23.61571c0,0 4.27215,0.16806 6.7221,0.68335c3.83724,0.80712 14.07024,3.68992 14.07024,3.68992z"/><path d="M269.57363,201.11259c0,0 5.09301,1.7257 8.87548,2.07681c5.18844,0.48159 19.39274,0.54716 19.39274,0.54716c0,0 -0.7675,23.5022 -14.71819,21.86641c-13.91176,-1.63117 -13.55007,-24.49039 -13.55007,-24.49039z"/><path d="M319.78966,203.47064c4.29312,-0.31784 8.65666,-1.48342 8.65666,-1.48342c0,0 2.66325,23.40612 -12.38197,23.61576c-16.6742,0.23238 -15.18541,-21.57486 -15.18541,-21.57486c0,0 14.0786,-0.19976 18.91072,-0.55748z"/><path d="M331.48337,202.86193c0,0 6.93433,-3.4715 10.38898,-4.46307c4.18998,-1.20267 12.97321,-2.24266 12.97321,-2.24266c0,0 -0.19836,11.15692 -4.17548,17.61311c-3.13735,5.09294 -7.32536,5.57185 -9.84184,6.29416c-6.28418,1.80374 -9.34487,-17.2016 -9.34487,-17.2016z"/><path d="M357.41541,194.11536c0,0 10.50521,-1.1385 14.42798,-0.4042c3.86372,0.72328 8.93416,4.77747 8.93416,4.77747c0,0 -9.51791,19.15178 -16.82074,17.78471c-7.30283,-1.36707 -6.5414,-22.15802 -6.5414,-22.15802z"/><path d="M213.03716,258.54842c0,0 2.6021,-15.66636 15.65266,-16.91003c7.74713,-0.73827 7.00866,15.16068 7.00866,15.16068c0,0 -8.25491,2.96965 -12.15963,3.27109c-3.62881,0.28012 -10.50172,-1.52175 -10.50172,-1.52175z"/><path d="M257.65891,242.51301c6.66784,-0.83238 8.41041,7.8719 8.41041,7.8719c0,0 -5.23702,0.89176 -8.65076,1.38507c-3.91532,0.56582 -13.54335,1.82201 -13.54335,1.82201c0,0 4.13779,-9.87487 13.78369,-11.07899z"/><path d="M284.5254,241.34684c7.92986,-0.04127 11.21384,6.99723 11.21384,6.99723l-22.66131,0.29156c0,0 3.98487,-7.24993 11.44747,-7.28879z"/><path d="M303.44879,248.92723c0,0 1.67702,-7.22677 10.98022,-7.87195c9.01879,-0.62546 11.91472,8.16345 11.91472,8.16345l-22.89494,-0.29156z"/><path d="M332.41783,250.38497c0,0 3.32731,-8.90808 12.84918,-7.8719c10.9642,1.19316 10.51301,12.24522 10.51301,12.24522c0,0 -7.30585,-2.03822 -11.19671,-2.76654c-3.89654,-0.72946 -12.16544,-1.60677 -12.16544,-1.60677z"/><path d="M363.95686,257.09058c0,0 -1.36097,-16.29628 7.00866,-15.45225c8.36963,0.84404 15.65266,17.2016 15.65266,17.2016c0,0 -7.89519,1.75714 -11.90791,1.35245c-3.66528,-0.36965 -10.75344,-3.10175 -10.75344,-3.10175z"/></g><path d="M207.97914,208.98449c2.21557,-3.41867 5.19473,-8.47533 8.6455,-7.58833c4.741,1.21865 6.88468,9.98028 12.6083,10.02269c7.01423,0.05197 14.40864,-4.66483 14.40864,-4.66483c0,0 7.01609,7.61979 12.54351,9.43729c5.52742,1.81749 11.86176,-4.67742 11.86176,-4.67742c0,0 8.45645,10.01895 16.58897,10.40085c6.03341,0.28334 12.89485,-9.98079 12.89485,-9.98079c0,0 13.05775,8.84791 18.20569,8.81459c5.61762,-0.03635 15.95456,-8.3764 15.95456,-8.3764c0,0 3.8681,4.3725 9.41279,3.39679c3.91633,-0.68915 14.60709,-7.56326 14.60709,-7.56326c0,0 6.02394,3.13026 8.94687,3.21317c5.72752,0.16244 21.64514,-8.46397 21.64514,3.68822c0,11.12411 -35.34836,11.49574 -41.79647,13.77042c-9.36408,3.30336 -34.0026,2.86256 -42.92381,0.45295c-2.769,-0.74789 -12.83226,8.81994 -19.15931,7.34913c-10.69121,-2.48528 -22.97423,-13.86214 -34.4372,-14.38566c-8.19751,-0.37438 -35.00029,13.31327 -38.41829,-8.01456z" fill-opacity="0.22353" fill="#000000" stroke="none" stroke-width="0.5" stroke-linecap="butt"/><path d="M207.04466,252.42579c1.8823,-4.11083 3.13731,0.32713 6.92772,-0.81206c10.65547,-3.20246 71.19939,-6.23297 84.04793,-6.01416c37.33496,0.63584 78.38166,5.89686 87.20064,7.36683c0.7358,0.12265 -0.16421,-6.73776 0.08087,-6.58483c10.36728,6.46901 -1.24446,19.85026 -6.99533,20.6549c-17.26151,2.4152 -39.3639,-5.05185 -56.26671,-8.45502c-17.99202,-3.62246 -24.3971,-0.804 -52.47432,-0.71812c-15.80386,0.04835 -27.27919,5.24345 -44.84723,4.37329c-2.09131,-0.10358 -13.03506,0.31937 -14.49237,-2.86329z" fill-opacity="0.22353" fill="#000000" stroke="none" stroke-width="0.5" stroke-linecap="butt"/></g></g></g></svg>