<svg version="1.1" xmlns="http://www.w3.org/2000/svg" xmlns:xlink="http://www.w3.org/1999/xlink" width="308.47365" height="308.47365" viewBox="0,0,308.47365,308.47365"><g transform="translate(-145.76317,-25.53192)"><g data-paper-data="{&quot;isPaintingLayer&quot;:true}" fill-rule="nonzero" stroke-miterlimit="10" stroke-dasharray="" stroke-dashoffset="0" style="mix-blend-mode: normal"><path d="M145.76317,334.00558v-308.47365h308.47365v308.47365z" fill="none" stroke="#000000" stroke-width="0" stroke-linecap="butt" stroke-linejoin="miter"/><path d="" data-paper-data="{&quot;index&quot;:null}" fill="#ffffff" stroke="#000000" stroke-width="4.5" stroke-linecap="butt" stroke-linejoin="round"/><path d="" data-paper-data="{&quot;index&quot;:null}" fill-opacity="0.14118" fill="#000000" stroke="#ff0000" stroke-width="0" stroke-linecap="round" stroke-linejoin="miter"/><path d="M196.88063,134.91153c0,0 -14.77855,-16.19954 -15.90993,-32.91047c-1.23063,-18.17699 8.47908,-26.49734 8.47908,-26.49734c0,0 11.70508,9.57042 18.49434,13.80263c6.85942,4.27596 20.94259,6.46113 20.94259,6.46113c0,0 -9.91005,11.71845 -17.95054,20.75187c-2.69165,3.02406 -14.05555,18.39216 -14.05555,18.39216z" fill="#ffffff" stroke="#000000" stroke-width="4.5" stroke-linecap="butt" stroke-linejoin="round"/><path d="M202.29105,105.72557c8.20771,-8.42549 13.97679,-12.33033 13.97679,-12.33033l12.21639,2.60296c0,0 -9.57029,10.70157 -14.80435,15.47561c-5.40946,4.93403 -17.08117,23.56662 -17.08117,23.56662l-5.44479,-7.24139c0,0 2.46014,-13.16624 11.13714,-22.07348z" fill-opacity="0.14118" fill="#000000" stroke="#ff0000" stroke-width="0" stroke-linecap="round" stroke-linejoin="miter"/><path d="M403.11941,135.1085c0,0 -11.36389,-15.3681 -14.05555,-18.39216c-8.04048,-9.03343 -17.95054,-20.75188 -17.95054,-20.75188c0,0 14.08319,-2.18517 20.94259,-6.46112c6.78924,-4.23222 18.49433,-13.80265 18.49433,-13.80265c0,0 9.70972,8.32035 8.47909,26.49735c-1.13137,16.71093 -15.90993,32.91046 -15.90993,32.91046z" data-paper-data="{&quot;index&quot;:null}" fill="#ffffff" stroke="#000000" stroke-width="4.5" stroke-linecap="butt" stroke-linejoin="round"/><path d="M408.84611,127.99601l-5.4448,7.24138c0,0 -11.67171,-18.63261 -17.08117,-23.56662c-5.23406,-4.77404 -14.80435,-15.47559 -14.80435,-15.47559l12.21639,-2.60296c0,0 5.76909,3.90482 13.97679,12.33031c8.67699,8.90724 11.13714,22.07348 11.13714,22.07348z" data-paper-data="{&quot;index&quot;:null}" fill-opacity="0.14118" fill="#000000" stroke="#ff0000" stroke-width="0" stroke-linecap="round" stroke-linejoin="miter"/></g></g></svg>