<svg version="1.1" xmlns="http://www.w3.org/2000/svg" xmlns:xlink="http://www.w3.org/1999/xlink" width="254.37081" height="254.37081" viewBox="0,0,254.37081,254.37081"><defs><linearGradient x1="300.00001" y1="200.88908" x2="300.00001" y2="257.74543" gradientUnits="userSpaceOnUse" id="color-1"><stop offset="0" stop-color="#420428"/><stop offset="1" stop-color="#5f0d26"/></linearGradient><radialGradient cx="300" cy="180" r="127.18541" gradientUnits="userSpaceOnUse" id="color-2"><stop offset="0" stop-color="#000000" stop-opacity="0"/><stop offset="1" stop-color="#000000" stop-opacity="0"/></radialGradient></defs><g transform="translate(-172.81459,-52.81459)"><g data-paper-data="{&quot;isPaintingLayer&quot;:true}" fill-rule="nonzero" stroke-linejoin="miter" stroke-miterlimit="10" stroke-dasharray="" stroke-dashoffset="0" style="mix-blend-mode: normal"><path d="M184.92907,295.07093v-230.14186h230.14186v230.14186z" data-paper-data="{&quot;index&quot;:null}" fill="none" stroke="none" stroke-width="0" stroke-linecap="butt"/><path d="M300.08952,200.89011c48.74537,-0.27114 52.65551,53.19195 50.06527,56.83257c-0.34866,0.49003 -27.27347,-7.10128 -50.22989,-6.91271c-22.14613,0.18192 -50.20363,7.27269 -50.522,6.91271c-1.05966,-1.1982 1.89024,-56.56113 50.68663,-56.83257z" data-paper-data="{&quot;index&quot;:null}" fill="url(#color-1)" stroke="#000000" stroke-width="0" stroke-linecap="butt"/><path d="M306.16098,250.8985l2.76224,-38.05971c0,0 -15.21453,-1.71223 -27.20374,2.30513c-15.13321,5.07087 -24.80345,14.45002 -24.80345,14.45002c0,0 5.00058,-14.49295 19.00932,-22.83099c7.8768,-4.68829 28.72421,-4.72888 28.38675,-5.75769c44.74915,2.74323 48.35605,53.18485 45.84268,56.71743c-0.17187,0.24156 -10.51217,-2.45299 -21.31157,-4.19328c-11.10847,-1.7901 -22.68223,-2.6309 -22.68223,-2.6309z" data-paper-data="{&quot;index&quot;:null}" fill-opacity="0.9098" fill="#30011f" stroke="#000000" stroke-width="0" stroke-linecap="butt"/><path d="M278.55499,247.69197c3.28376,-6.67825 9.4062,-9.90459 15.94765,-9.02747c1.65579,0.22202 3.53059,0.69 4.89962,1.87884c0.23333,0.20263 0.87691,1.04104 1.02013,1.08447c0.04716,0.0143 0.67601,-0.6395 0.79613,-0.7198c0.06933,-0.04634 1.9346,-1.36695 2.77639,-1.70901c4.01539,-1.63165 9.24819,-1.64359 12.81318,1.56209c2.541,2.28489 6.01818,7.73868 4.84878,11.68119c-0.17284,0.5827 -9.97389,-1.02858 -20.15918,-1.06818c-12.03717,-0.0468 -24.75081,1.35914 -24.75081,0.51246c0,-0.57845 0.14703,-1.11637 0.3994,-1.56453c0.40941,-0.94526 1.03677,-1.87355 1.40874,-2.63004z" data-paper-data="{&quot;index&quot;:null}" fill="#b51f62" stroke="none" stroke-width="0.5" stroke-linecap="butt"/><path d="M300.08952,200.89012c48.74537,-0.27115 52.65552,53.19194 50.06527,56.83256c-0.34866,0.49003 -27.27347,-7.10128 -50.22989,-6.91271c-22.14613,0.18192 -50.20363,7.27269 -50.522,6.91271c-1.05966,-1.19819 1.89024,-56.56112 50.68663,-56.83256z" data-paper-data="{&quot;index&quot;:null}" fill="none" stroke="#000000" stroke-width="5" stroke-linecap="butt"/><path d="M297.4565,245.1834c0,0 6.19703,-7.60485 13.68457,-7.18167c9.33467,0.52758 12.17443,15.68701 12.17443,15.68701" data-paper-data="{&quot;index&quot;:null}" fill="none" stroke="#000000" stroke-width="3.5" stroke-linecap="round"/><path d="M276.68452,252.18778c0,0 3.51545,-11.67964 12.76483,-13.50856c5.19234,-1.0267 10.97458,3.3772 10.97458,3.3772" data-paper-data="{&quot;index&quot;:null}" fill="none" stroke="#000000" stroke-width="3.5" stroke-linecap="round"/><path d="M286.26227,246.13457c-0.29976,-1.8 1.24255,-3.67332 3.44486,-4.18419c2.20231,-0.51087 4.23064,0.53419 4.5304,2.33419c0.29976,1.8 -1.24255,3.67332 -3.44486,4.18419c-2.20231,0.51087 -4.23064,-0.53419 -4.5304,-2.33419z" data-paper-data="{&quot;index&quot;:null}" fill="#da4a8b" stroke="none" stroke-width="0.5" stroke-linecap="butt"/><path d="M305.37553,244.19959c-0.10188,-1.58928 1.86899,-2.98572 4.40207,-3.119c2.53308,-0.13329 4.66915,1.04702 4.77103,2.63631c0.10188,1.58928 -1.86899,2.98572 -4.40207,3.119c-2.53308,0.13329 -4.66915,-1.04702 -4.77103,-2.63631z" data-paper-data="{&quot;index&quot;:null}" fill="#da4a8b" stroke="none" stroke-width="0.5" stroke-linecap="butt"/><path d="M172.8146,180c0,-70.24256 56.94284,-127.1854 127.18541,-127.1854c70.24257,0 127.18541,56.94284 127.18541,127.18541c0,70.24256 -56.94284,127.18541 -127.1854,127.18541c-70.24256,0 -127.1854,-56.94285 -127.1854,-127.1854z" fill="url(#color-2)" stroke="#000000" stroke-width="0" stroke-linecap="butt"/></g></g></svg>