<svg version="1.1" xmlns="http://www.w3.org/2000/svg" xmlns:xlink="http://www.w3.org/1999/xlink" width="254.37081" height="254.37081" viewBox="0,0,254.37081,254.37081"><defs><radialGradient cx="300" cy="180" r="127.18541" gradientUnits="userSpaceOnUse" id="color-1"><stop offset="0" stop-color="#000000" stop-opacity="0"/><stop offset="1" stop-color="#000000" stop-opacity="0"/></radialGradient></defs><g transform="translate(-172.81459,-52.81459)"><g data-paper-data="{&quot;isPaintingLayer&quot;:true}" fill-rule="nonzero" stroke="#000000" stroke-width="0" stroke-linecap="butt" stroke-linejoin="miter" stroke-miterlimit="10" stroke-dasharray="" stroke-dashoffset="0" style="mix-blend-mode: normal"><g data-paper-data="{&quot;index&quot;:null}"><path d="M343.0278,153.62979c13.17147,1.94578 22.27166,14.20074 20.32588,27.37219c-1.94578,13.17147 -14.20074,22.27166 -27.37219,20.32588c-13.17147,-1.94578 -22.27166,-14.20074 -20.32588,-27.37219c1.94578,-13.17147 14.20074,-22.27166 27.37219,-20.32588z" fill="#000000"/><path d="M330.59343,178.25815c3.82608,0.56521 6.46952,4.12506 5.90431,7.95114c-0.56521,3.82608 -4.12506,6.46952 -7.95114,5.90431c-3.82608,-0.56521 -6.46952,-4.12506 -5.90431,-7.95114c0.56521,-3.82608 4.12506,-6.46952 7.95114,-5.90431z" fill="#ffffff"/></g><g data-paper-data="{&quot;index&quot;:null}"><path d="M248.49969,151.1812c13.17146,1.94578 22.27166,14.20074 20.32588,27.37219c-1.94579,13.17146 -14.20074,22.27166 -27.3722,20.32588c-13.17145,-1.94578 -22.27165,-14.20074 -20.32587,-27.37219c1.94578,-13.17146 14.20074,-22.27166 27.37219,-20.32588z" fill="#000000"/><path d="M236.06532,175.80955c3.82608,0.56521 6.46951,4.12506 5.9043,7.95114c-0.56521,3.82608 -4.12506,6.46952 -7.95114,5.90431c-3.82608,-0.56521 -6.46952,-4.12506 -5.90431,-7.95114c0.56522,-3.82608 4.12507,-6.46952 7.95115,-5.90431z" fill="#ffffff"/></g><path d="M172.8146,180c0,-70.24256 56.94284,-127.1854 127.18541,-127.1854c70.24257,0 127.18541,56.94284 127.18541,127.18541c0,70.24256 -56.94284,127.18541 -127.1854,127.18541c-70.24256,0 -127.1854,-56.94285 -127.1854,-127.1854z" fill="url(#color-1)"/></g></g></svg>