<svg version="1.1" xmlns="http://www.w3.org/2000/svg" xmlns:xlink="http://www.w3.org/1999/xlink" width="425.25084" height="412.05152" viewBox="0,0,425.25084,412.05152"><defs><radialGradient cx="460.01667" cy="216.98471" r="47.29163" gradientUnits="userSpaceOnUse" id="color-1"><stop offset="0" stop-color="#2796f6" stop-opacity="0.43922"/><stop offset="1" stop-color="#2796f6" stop-opacity="0"/></radialGradient><radialGradient cx="123.1708" cy="225.08513" r="41.11334" gradientUnits="userSpaceOnUse" id="color-2"><stop offset="0" stop-color="#2796f6" stop-opacity="0.43922"/><stop offset="1" stop-color="#2796f6" stop-opacity="0"/></radialGradient><radialGradient cx="292.33673" cy="271.27665" r="105.03089" gradientUnits="userSpaceOnUse" id="color-3"><stop offset="0" stop-color="#2796f6" stop-opacity="0.84706"/><stop offset="1" stop-color="#2796f6" stop-opacity="0"/></radialGradient><radialGradient cx="381.70125" cy="275.46906" r="89.36452" gradientUnits="userSpaceOnUse" id="color-4"><stop offset="0" stop-color="#2796f6" stop-opacity="0.84706"/><stop offset="1" stop-color="#2796f6" stop-opacity="0"/></radialGradient><radialGradient cx="220.47883" cy="269.58645" r="92.89497" gradientUnits="userSpaceOnUse" id="color-5"><stop offset="0" stop-color="#2796f6" stop-opacity="0.84706"/><stop offset="1" stop-color="#2796f6" stop-opacity="0"/></radialGradient><radialGradient cx="301.60772" cy="162.56196" r="178.39228" gradientUnits="userSpaceOnUse" id="color-6"><stop offset="0" stop-color="#00ffff"/><stop offset="1" stop-color="#00ffff" stop-opacity="0"/></radialGradient><radialGradient cx="299.97856" cy="123.6415" r="159.38549" gradientUnits="userSpaceOnUse" id="color-7"><stop offset="0" stop-color="#00daff"/><stop offset="1" stop-color="#00daff" stop-opacity="0"/></radialGradient><radialGradient cx="301.60771" cy="162.56196" r="178.39228" gradientUnits="userSpaceOnUse" id="color-8"><stop offset="0" stop-color="#8affff"/><stop offset="1" stop-color="#8affff" stop-opacity="0"/></radialGradient></defs><g transform="translate(-82.05746,35.74399)"><g data-paper-data="{&quot;isPaintingLayer&quot;:true}" fill-rule="nonzero" stroke-linejoin="miter" stroke-miterlimit="10" stroke-dasharray="" stroke-dashoffset="0" style="mix-blend-mode: normal"><g stroke-width="0"><path d="M412.72504,216.98471c0,-26.11844 21.17318,-47.29163 47.29163,-47.29163c26.11844,0 47.29163,21.17318 47.29163,47.29163c0,26.11844 -21.17319,47.29163 -47.29163,47.29163c-26.11844,0 -47.29163,-21.17319 -47.29163,-47.29163z" fill="url(#color-1)" stroke="#000000" stroke-linecap="butt"/><path d="M82.05746,225.08513c0,-22.70627 18.40707,-41.11334 41.11334,-41.11334c22.70627,0 41.11334,18.40707 41.11334,41.11334c0,22.70627 -18.40707,41.11334 -41.11334,41.11334c-22.70627,0 -41.11334,-18.40707 -41.11334,-41.11334z" fill="url(#color-2)" stroke="#000000" stroke-linecap="butt"/><path d="M187.30584,271.27665c0,-58.00696 47.02393,-105.03089 105.03089,-105.03089c58.00696,0 105.03089,47.02393 105.03089,105.03089c0,58.00696 -47.02393,105.03089 -105.03089,105.03089c-58.00696,0 -105.03089,-47.02393 -105.03089,-105.03089z" fill="url(#color-3)" stroke="#000000" stroke-linecap="butt"/><path d="M292.33673,275.46906c0,-49.35466 40.00986,-89.36452 89.36452,-89.36452c49.35466,0 89.36452,40.00986 89.36452,89.36452c0,49.35466 -40.00986,89.36452 -89.36452,89.36452c-49.35466,0 -89.36452,-40.00986 -89.36452,-89.36452z" fill="url(#color-4)" stroke="#000000" stroke-linecap="butt"/><path d="M127.58386,269.58645c0,-51.30447 41.59049,-92.89497 92.89497,-92.89497c51.30447,0 92.89497,41.59049 92.89497,92.89497c0,51.30447 -41.59049,92.89497 -92.89497,92.89497c-51.30447,0 -92.89497,-41.59049 -92.89497,-92.89497z" fill="url(#color-5)" stroke="#000000" stroke-linecap="butt"/><g fill="#3bb5f5" stroke-linecap="round"><path d="M195.78778,275.28794c0,0 -3.39335,-10.18664 -4.10457,-15.87636c-0.70201,-5.61613 -0.13548,-18.04406 -0.13548,-18.04406c0,0 11.50516,9.99823 18.29871,13.8196c7.10826,3.99839 23.44949,9.66376 23.44949,9.66376c0,0 4.79641,-25.42479 7.90474,-37.24752c2.97402,-11.31191 10.36011,-32.22411 10.36011,-32.22411c0,0 21.73823,24.56114 32.70184,35.46965c10.66318,10.6096 32.20357,29.1096 32.20357,29.1096c0,0 14.60304,-16.82935 20.3912,-26.58348c5.94911,-10.02534 14.83385,-32.77725 14.83385,-32.77725c0,0 13.31228,25.97265 17.75011,36.74179c3.48198,8.44961 6.71173,22.61894 6.71173,22.61894c0,0 12.69689,-5.92691 19.53222,-10.34675c7.55263,-4.88366 23.84677,-17.70283 23.84677,-17.70283l-5.54469,54.79452c0,0 11.63513,-5.88292 17.60793,-10.11737c7.99662,-5.66924 27.0757,-22.17226 27.0757,-22.17226l-18.91716,33.59426c0,0 4.2628,0.60817 6.23859,0.40552c2.23277,-0.22899 6.48157,-1.71015 6.48157,-1.71015c0,0 -7.67291,13.88711 -20.5138,18.68246c-6.03542,2.25389 -17.19385,5.95716 -29.03386,7.90832c-14.33237,2.36188 -29.05639,2.76344 -29.05639,2.76344l11.08936,4.24005c0,0 -53.69868,9.70987 -96.23423,9.83492c-51.45591,0.15127 -78.91254,-12.11803 -78.91254,-12.11803l9.13242,-3.91389c0,0 -25.3399,0.8135 -44.32704,-7.23907c-12.23533,-5.18908 -25.7969,-27.98598 -25.7969,-27.98598c0,0 12.62275,7.33945 18.09662,9.75266c4.4012,1.94032 12.23606,3.61982 12.23606,3.61982c0,0 -6.06764,-8.22133 -9.34995,-14.57554c-4.68684,-9.07324 -16.09036,-34.67431 -16.09036,-34.67431z" stroke="none"/><path d="M104.13742,200.59778c0,0 14.3557,11.65428 20.16981,15.79009c4.19022,2.98068 11.46749,6.71481 11.46749,6.71481c0,0 -2.97477,6.87603 -2.4391,11.35618c0.64118,5.36254 6.02684,18.65034 6.02684,18.65034c0,0 -3.73726,-2.31708 -7.91429,-7.06036c-4.29429,-4.87644 -9.07197,-12.24292 -12.11113,-16.77352c-5.73476,-8.54905 -15.19963,-28.67754 -15.19963,-28.67754z" stroke="#000000"/><path d="M433.883,239.73673c0,0 4.43673,-11.64498 10.70949,-18.96321c3.11621,-3.63557 15.45205,-6.28616 19.16261,-11.51737c7.0471,-9.93512 17.09464,-24.31394 17.09464,-24.31394c0,0 -6.58304,26.45973 -9.89137,35.60274c-2.27643,6.29121 -8.04732,13.97325 -8.04732,13.97325c0,0 -6.33605,-4.11245 -10.77278,-3.31483c-5.13645,0.9234 -18.25527,8.53335 -18.25527,8.53335z" stroke="#000000"/></g><path d="M200.96173,280.74697c0,0 -4.96953,-14.53456 -5.69078,-20.14021c-0.54368,-4.22557 -0.2762,-10.25069 -0.2762,-10.25069c0,0 12.15858,9.1196 18.7456,12.76033c6.14215,3.39484 22.9975,9.84061 22.9975,9.84061c0,0 4.81963,-24.76032 7.65052,-36.0839c2.63719,-10.54875 8.79495,-29.69798 8.79495,-29.69798c0,0 19.55798,21.7113 29.8034,31.88014c10.10004,10.02454 34.70143,30.43731 34.70143,30.43731c0,0 12.84176,-14.97877 18.37267,-23.75266c5.90698,-9.37046 16.01528,-30.79821 16.01528,-30.79821c0,0 8.61181,16.37766 12.14926,25.17055c3.47565,8.6393 8.89332,27.13413 8.89332,27.13413c0,0 11.91068,-4.50349 17.85348,-7.71532c7.06648,-3.81913 21.76108,-13.69466 21.76108,-13.69466c0,0 -9.05789,36.46643 -4.03924,45.58569c1.33802,2.43128 4.36481,1.89939 7.23841,1.5043c7.90474,-1.08681 19.01664,-10.73684 19.01664,-10.73684l-0.28852,15.2914c0,0 -4.98317,2.18628 -12.98777,4.00523c-16.69557,3.79386 -43.63553,8.88959 -45.58119,9.55507c-6.07252,2.07702 -7.50144,6.92441 -7.50144,6.92441c0,0 -57.89714,8.19599 -82.85303,6.81424c-39.59384,-2.19222 -61.98252,-9.69941 -61.98252,-9.69941c0,0 5.73379,-2.3708 -7.78996,-6.34737c-13.52375,-3.97657 -14.31665,-0.93688 -24.00342,-3.00127c-7.08718,-1.51038 -14.65786,-7.09683 -14.65786,-7.09683c0,0 5.952,-3.44177 4.86375,-8.59912c-1.12264,-5.32037 -8.32595,-21.40665 -8.32595,-21.40665c0,0 9.98602,5.65526 14.46931,7.87114c3.75329,1.85507 12.65129,4.24658 12.65129,4.24658z" fill="#93fdf9" stroke="#000000" stroke-linecap="round"/><path d="M464.6663,216.98471l-2.59665,6.92441l-7.78996,-0.57703z" fill="#93fdf9" stroke="#000000" stroke-linecap="round"/></g><path d="M123.21544,162.56196c0,-98.52334 79.86894,-178.39228 178.39228,-178.39228c98.52334,0 178.39228,79.86894 178.39228,178.39228c0,98.52334 -79.86894,178.39228 -178.39228,178.39228c-98.52334,0 -178.39228,-79.86894 -178.39228,-178.39228z" fill="url(#color-6)" stroke="none" stroke-width="0" stroke-linecap="butt"/><path d="M140.59307,123.6415c0,-88.02618 71.35932,-159.38549 159.38549,-159.38549c88.02618,0 159.38549,71.35932 159.38549,159.38549c0,88.02618 -71.35932,159.38549 -159.38549,159.38549c-88.02618,0 -159.38549,-71.35932 -159.38549,-159.38549z" fill="url(#color-7)" stroke="none" stroke-width="0" stroke-linecap="butt"/><path d="M123.21544,162.56196c0,-98.52334 79.86893,-178.39228 178.39227,-178.39228c98.52334,0 178.39228,79.86894 178.39228,178.39228c0,98.52334 -79.86894,178.39227 -178.39228,178.39227c-98.52334,0 -178.39227,-79.86894 -178.39227,-178.39227z" fill="url(#color-8)" stroke="none" stroke-width="0" stroke-linecap="butt"/><g stroke-linecap="round"><path d="M182.78375,59.79782c7.37084,-8.16562 6.2835,-16.7886 6.2835,-16.7886c0,0 1.29958,-1.33239 2.01129,-1.92649c0.70672,-0.58995 2.2441,-1.62583 2.2441,-1.62583c0,0 4.72967,15.85712 18.79539,20.6734c2.86132,0.97975 8.91699,2.66024 12.82902,0.92296c4.67467,-2.07597 7.00895,-7.74446 7.00895,-7.74446c0,0 12.4236,-3.4163 23.09869,-10.78386c11.1573,-7.70037 15.49445,-16.19772 15.49445,-16.19772c0,0 6.28899,-4.03383 9.16591,-8.02289c2.20617,-3.05899 5.21939,-11.61104 7.87436,-16.50858c2.08283,-3.84214 4.13413,-4.54702 4.13413,-4.54702c0,0 8.98675,14.54882 13.51201,20.02628c3.79081,4.58847 11.82844,10.64637 11.82844,10.64637c0,0 1.19895,7.07393 5.96139,10.42275c4.60814,3.24031 12.89905,3.03901 12.89905,3.03901c0,0 13.20202,15.9498 35.3363,14.87853c3.87308,-0.18745 8.12894,-3.50023 11.70189,-9.91318c1.7925,-3.21731 1.93036,-9.87329 3.1586,-13.22412c1.78877,-4.88007 4.58485,-5.96852 4.58485,-5.96852c0,0 1.93659,8.44407 5.04745,13.40849c3.07482,4.9069 9.85088,8.03392 9.85088,8.03392c0,0 1.07904,8.78518 2.61888,11.6735c3.02007,5.66485 8.48733,8.66274 8.48733,8.66274c0,0 -3.0771,26.78774 7.65474,37.99693c14.23213,14.86519 19.47857,-1.74846 19.47857,-1.74846c0,0 9.80423,17.58462 5.92429,52.48563c-4.05983,36.51913 -17.27492,86.84345 -50.93471,119.12926c-13.94584,13.37658 -31.59808,22.71427 -53.18061,28.0262c-13.11135,3.22697 -27.67934,5.28623 -43.73029,4.94666c-79.22853,-1.6762 -119.25878,-43.79974 -137.51433,-89.22009c-15.63605,-38.90299 -14.72401,-77.03108 -14.72401,-77.03108c0,0 6.05177,3.14909 7.95264,3.74658c2.34434,0.73688 6.05292,0.86865 6.05292,0.86865c0,0 0.1654,-17.38951 -0.16953,-25.86343c-0.3268,-8.26824 -1.81623,-24.3782 -1.81623,-24.3782c0,0 3.90231,-6.89874 5.0286,-11.23697c1.3662,-5.26227 2.58872,-18.10314 2.58872,-18.10314c0,0 6.73248,-1.29963 13.46237,-8.75519z" fill="#00ffff" stroke="#2fffff" stroke-width="2.5"/><path d="M173.67079,150.45734c0,0 -3.00593,-32.55854 0.18344,-51.88418c0.8854,-5.36502 4.8543,-9.13611 4.8543,-9.13611l-0.1298,-9.25877c0,0 7.25213,-5.56148 10.08258,-9.33928c2.77384,-3.70226 6.73375,-13.10544 6.73375,-13.10544c0,0 8.22563,14.72447 24.85871,14.50198c20.83382,-0.27869 22.73891,-14.39486 22.73891,-14.39486c0,0 10.85509,-0.72001 16.11398,-4.63858c3.95955,-2.95038 9.70648,-10.84894 14.52471,-16.52004c3.49733,-4.11637 6.89043,-6.80556 6.89043,-6.80556c0,0 4.3606,-1.21546 6.21497,-2.92386c2.20926,-2.03539 6.16335,-8.48016 6.16335,-8.48016c0,0 3.46557,1.06703 6.55131,3.82392c3.16348,2.82635 5.96569,7.37112 7.35064,9.61288c0.86336,1.3975 0.71288,6.36369 4.52838,10.47324c2.10148,2.26342 16.28397,8.0898 30.46443,14.81786c10.31607,4.89456 19.64053,11.32391 29.14966,12.04051c5.32868,0.40156 7.99067,-5.17964 11.44706,-8.29646c5.4403,-4.90581 10.19902,-8.36824 10.19902,-8.36824c0,0 2.48935,8.55256 4.32539,12.12464c1.92013,3.73567 6.95442,9.8206 6.95442,9.8206c0,0 1.8277,23.10059 6.60114,31.44354c2.22595,3.89049 6.8469,12.4954 11.55434,15.40867c8.21365,5.08315 17.12642,2.96302 17.12642,2.96302c0,0 2.66655,36.9273 -7.8469,76.88144c-13.61157,51.7279 -47.9387,109.4007 -124.46169,107.61853c-145.64211,-3.39192 -146.10193,-159.55769 -146.10193,-159.55769c0,0 4.36947,1.56896 6.39691,1.75375c2.25746,0.20575 6.53206,-0.57535 6.53206,-0.57535z" fill="#8affff" stroke="#ff0000" stroke-width="0"/><path d="M194.79119,78.12732c0,0 8.91871,7.15001 16.50881,4.50148c4.73616,-1.65267 15.74097,-6.97372 23.31116,-12.34012c6.62142,-4.69384 10.19524,-9.61395 10.19524,-9.61395c0,0 18.50651,-2.96006 27.49838,-7.74192c5.9475,-3.16288 21.20336,-18.15768 21.20336,-18.15768c0,0 3.77545,13.02047 12.36861,17.01362c7.70919,3.58238 19.30904,1.60208 29.71334,4.78942c20.12392,6.16494 39.59409,16.76978 44.55531,19.96457c3.72,2.3955 8.24787,-4.18212 8.24787,-4.18212c0,0 5.21574,5.34079 6.20591,8.28825c2.2614,6.73154 0.97442,11.67777 0.97442,11.67777c0,0 11.71248,14.29927 16.26832,21.73125c4.3869,7.15639 10.57905,22.06508 10.57905,22.06508c0,0 1.82733,0.46279 2.76489,0.56658c0.96697,0.10705 2.94139,0.58614 2.94139,0.58614c0,0 0.48244,6.14801 1.24653,16.00342c1.48684,19.17794 1.89751,51.83211 -13.19717,80.76335c-11.24969,21.56172 -32.8528,43.52631 -54.80814,56.32043c-20.45187,11.91801 -40.963,15.47064 -60.18662,14.07191c-109.50058,-7.96735 -129.75719,-77.90388 -126.36545,-137.94885c0.5531,-9.7919 2.76512,-19.30041 4.29155,-28.25457c5.83779,-34.24481 15.68328,-60.10407 15.68328,-60.10407z" fill="#ffffff" stroke="#ffff00" stroke-width="0"/></g><path d="M179.59723,179.65276c0,-66.49583 53.90553,-120.40137 120.40137,-120.40137c66.49584,0 120.40138,53.90553 120.40138,120.40137c0,66.49584 -53.90554,120.40138 -120.40138,120.40138c-66.49584,0 -120.40137,-53.90554 -120.40137,-120.40138z" fill="#fffef3" stroke="#000000" stroke-width="0" stroke-linecap="butt"/><path d="M187.04545,180.00003c0,-62.38307 50.57147,-112.95455 112.95455,-112.95455c62.38308,0 112.95455,50.57147 112.95455,112.95455c0,62.38307 -50.57148,112.95455 -112.95455,112.95455c-62.38307,0 -112.95455,-50.57148 -112.95455,-112.95455z" fill="#000e0e" stroke="#000000" stroke-width="0" stroke-linecap="butt"/></g></g></svg>