<svg version="1.1" xmlns="http://www.w3.org/2000/svg" xmlns:xlink="http://www.w3.org/1999/xlink" width="254.37082" height="254.37082" viewBox="0,0,254.37082,254.37082"><defs><radialGradient cx="300.17473" cy="180.17473" r="127.18541" gradientUnits="userSpaceOnUse" id="color-1"><stop offset="0" stop-color="#000000" stop-opacity="0"/><stop offset="1" stop-color="#000000" stop-opacity="0"/></radialGradient></defs><g transform="translate(-172.98933,-52.98933)"><g data-paper-data="{&quot;isPaintingLayer&quot;:true}" fill-rule="nonzero" stroke-linejoin="miter" stroke-miterlimit="10" stroke-dasharray="" stroke-dashoffset="0" style="mix-blend-mode: normal"><path d="M172.98933,180.17473c0,-70.24256 56.94284,-127.1854 127.18541,-127.1854c70.24257,0 127.18541,56.94284 127.18541,127.18541c0,70.24256 -56.94284,127.18541 -127.1854,127.18541c-70.24256,0 -127.1854,-56.94285 -127.1854,-127.1854z" fill="url(#color-1)" stroke="#000000" stroke-width="0" stroke-linecap="butt"/><path d="M184.92908,295.07093v-230.14186h230.14186v230.14186z" fill="none" stroke="none" stroke-width="0" stroke-linecap="butt"/><path d="M236.95596,207.89677c0.37166,-0.32996 34.9326,3.89606 61.95978,2.58555c28.01606,-1.35847 60.51128,-9.65512 60.95948,-9.25774c3.32971,2.95223 1.0493,49.08418 -58.43363,52.07965c-59.54518,2.99859 -65.72264,-44.30919 -64.48564,-45.40746z" fill="#ffffff" stroke="#000000" stroke-width="0" stroke-linecap="butt"/><path d="M236.95596,207.89677c0.37166,-0.32996 34.9326,3.89607 61.95978,2.58555c28.01606,-1.35847 60.51129,-9.65512 60.95948,-9.25774c3.32972,2.95223 1.0493,49.08418 -58.43363,52.07964c-59.54518,2.99859 -65.72263,-44.30919 -64.48564,-45.40745z" fill="none" stroke="#000000" stroke-width="5" stroke-linecap="butt"/><path d="M355.37227,225.97371c0,0 -36.73306,3.24653 -54.97033,4.23647c-18.02228,0.97827 -53.81596,1.66857 -53.81596,1.66857" fill="none" stroke="#000000" stroke-width="5" stroke-linecap="round"/><path d="M360.73927,201.70367c0,0 0.97856,16.18026 -6.91107,27.16791c-1.76056,2.89617 -6.56725,9.54577 -12.99152,13.66176c-8.95165,5.73527 -19.89227,8.69022 -19.89227,8.69022c0,0 5.30781,-10.16597 6.90874,-19.0912c1.74966,-9.75441 -4.77748,-17.84015 -4.77748,-17.84015c0,0 -4.96699,2.19244 -21.89171,2.65914c-18.92188,0.52178 -62.72806,-1.7721 -62.72806,-1.7721l0.03709,-7.09082c0,0 40.22589,2.91077 59.27154,2.29587c17.08533,-0.55161 49.76144,-5.81607 49.76144,-5.81607z" data-paper-data="{&quot;index&quot;:null}" fill-opacity="0.35294" fill="#000000" stroke="#000000" stroke-width="0" stroke-linecap="round"/></g></g></svg>