<svg version="1.1" xmlns="http://www.w3.org/2000/svg" xmlns:xlink="http://www.w3.org/1999/xlink" width="254.37082" height="254.37082" viewBox="0,0,254.37082,254.37082"><defs><radialGradient cx="300.00001" cy="180.00001" r="127.18541" gradientUnits="userSpaceOnUse" id="color-1"><stop offset="0" stop-color="#000000" stop-opacity="0"/><stop offset="1" stop-color="#000000" stop-opacity="0"/></radialGradient><linearGradient x1="300.00001" y1="135.125" x2="300.00001" y2="284.77274" gradientUnits="userSpaceOnUse" id="color-2"><stop offset="0" stop-color="#420000" stop-opacity="0"/><stop offset="1" stop-color="#420000"/></linearGradient><linearGradient x1="300.00001" y1="175.36484" x2="300.00001" y2="282.35402" gradientUnits="userSpaceOnUse" id="color-3"><stop offset="0" stop-color="#240000" stop-opacity="0"/><stop offset="1" stop-color="#240000"/></linearGradient></defs><g transform="translate(-172.8146,-52.8146)"><g data-paper-data="{&quot;isPaintingLayer&quot;:true}" fill-rule="nonzero" stroke-linecap="butt" stroke-linejoin="miter" stroke-miterlimit="10" stroke-dasharray="" stroke-dashoffset="0" style="mix-blend-mode: normal"><path d="M172.81461,180.00001c0,-70.24256 56.94284,-127.1854 127.18541,-127.1854c70.24257,0 127.18541,56.94284 127.18541,127.18541c0,70.24256 -56.94284,127.18541 -127.1854,127.18541c-70.24256,0 -127.1854,-56.94285 -127.1854,-127.1854z" fill="url(#color-1)" stroke="#000000" stroke-width="0"/><path d="M195.22728,180.00001c0,-15.94079 3.55998,-31.05011 9.92828,-44.57629c63.18124,0.18038 126.36509,-0.23203 189.54769,-0.29872c6.45686,13.60229 10.06949,28.81676 10.06949,44.875c0,57.86438 -46.90835,104.77273 -104.77273,104.77273c-57.86438,0 -104.77273,-46.90835 -104.77273,-104.77273z" fill="url(#color-2)" stroke="#000000" stroke-width="0"/><path d="M392.01953,135.12803c6.61942,13.54914 10.33449,28.7767 10.33449,44.87197c0,56.52856 -45.82545,102.35401 -102.35401,102.35401c-56.52856,0 -102.35401,-45.82545 -102.35401,-102.35401c0,-15.97541 3.65995,-31.09599 10.18709,-44.569" data-paper-data="{&quot;index&quot;:null}" fill="none" stroke="none" stroke-width="0"/><path d="M402.25094,175.36484c0.06848,1.53649 0.10308,3.08179 0.10308,4.63517c0,56.52856 -45.82545,102.35402 -102.35401,102.35402c-56.51153,0 -102.3264,-45.79785 -102.35401,-102.30293" data-paper-data="{&quot;index&quot;:null}" fill="none" stroke="url(#color-3)" stroke-width="5"/></g></g></svg>