<svg version="1.1" xmlns="http://www.w3.org/2000/svg" xmlns:xlink="http://www.w3.org/1999/xlink" width="254.37081" height="254.37081" viewBox="0,0,254.37081,254.37081"><defs><linearGradient x1="296.74587" y1="195.32537" x2="302.20194" y2="250.43975" gradientUnits="userSpaceOnUse" id="color-1"><stop offset="0" stop-color="#420428"/><stop offset="1" stop-color="#5f0d26"/></linearGradient><radialGradient cx="300" cy="180" r="127.18541" gradientUnits="userSpaceOnUse" id="color-2"><stop offset="0" stop-color="#000000" stop-opacity="0"/><stop offset="1" stop-color="#000000" stop-opacity="0"/></radialGradient></defs><g transform="translate(-172.81459,-52.81459)"><g data-paper-data="{&quot;isPaintingLayer&quot;:true}" fill-rule="nonzero" stroke-linejoin="miter" stroke-miterlimit="10" stroke-dasharray="" stroke-dashoffset="0" style="mix-blend-mode: normal"><path d="M189.92907,300.07093v-230.14186h230.14186v230.14186z" data-paper-data="{&quot;index&quot;:null}" fill="none" stroke="none" stroke-width="0" stroke-linecap="butt"/><path d="M318.752,192.31272c51.37949,-3.39119 48.72579,49.08516 45.85227,52.88388c-0.23341,0.30855 -11.43381,-8.14202 -27.62837,-8.84399c-10.64276,-0.46132 -23.04036,2.73619 -34.36039,3.75638c-27.53761,2.48176 -62.93994,15.89167 -63.37062,15.57585c-0.55904,-0.40995 0.63931,-11.73926 8.27276,-22.17301c5.94679,-8.12835 16.62193,-14.49149 28.07122,-22.65787c11.53838,-8.22992 24.58125,-16.90535 43.16313,-18.54124z" data-paper-data="{&quot;index&quot;:null}" fill="url(#color-1)" stroke="#000000" stroke-width="0" stroke-linecap="butt"/><path d="M317.61946,202.91349c0,0 -12.12827,-2.81503 -23.20799,7.24323c-12.1624,11.04112 -49.18324,31.37029 -49.18324,31.37029c0,0 6.07304,-14.90788 22.70312,-24.44877c4.92176,-2.82368 22.03924,-15.89863 34.06888,-21.54202c10.82511,-5.07831 16.92662,-2.88382 16.68099,-3.33955c55.94185,-1.99919 48.71128,49.31394 45.92304,52.99992c-0.19067,0.25205 -12.32695,-9.33921 -25.93099,-9.90197c-13.99337,-0.57886 -30.56698,4.44149 -30.56698,4.44149z" data-paper-data="{&quot;index&quot;:null}" fill-opacity="0.9098" fill="#30011f" stroke="#000000" stroke-width="0" stroke-linecap="butt"/><path d="M292.74588,236.01123c3.44492,-6.81548 10.75308,-10.58031 18.97638,-10.41103c2.0815,0.04285 4.45911,0.30132 6.27659,1.31123c0.30976,0.17213 1.19099,0.91786 1.37335,0.94505c0.06005,0.00895 0.77975,-0.69028 0.9215,-0.78062c0.08181,-0.05213 2.27593,-1.52646 3.29048,-1.94567c4.83953,-1.99967 11.34923,-2.55597 16.09256,0.18039c3.38087,1.95037 8.23067,6.87509 7.15399,10.81854c-0.15913,0.58284 -12.50861,0.04121 -25.18534,1.06311c-14.9816,1.2077 -30.66548,3.89406 -30.74673,3.07331c-0.05551,-0.56073 0.07581,-1.09747 0.34681,-1.55817c0.41869,-0.95892 1.1102,-1.92407 1.50042,-2.69611z" data-paper-data="{&quot;index&quot;:null}" fill="#b51f62" stroke="none" stroke-width="0.5" stroke-linecap="butt"/><path d="M312.63429,192.35557c60.62485,-5.33722 54.84351,49.04231 51.96998,52.84103c-0.38679,0.51132 -6.85734,-12.22951 -35.40251,-9.65697c-27.53761,2.48175 -89.5262,20.46103 -89.95687,20.14521c-1.16424,-0.85375 5.0553,-27.63326 37.12245,-43.89928c7.41493,-3.76122 24.86939,-18.42659 36.26696,-19.43z" data-paper-data="{&quot;index&quot;:null}" fill="none" stroke="#000000" stroke-width="5" stroke-linecap="butt"/><path d="M316.02314,231.61187c0,0 6.9808,-8.01696 16.33769,-8.3862c11.66518,-0.46032 16.65326,13.93904 16.65326,13.93904" data-paper-data="{&quot;index&quot;:null}" fill="none" stroke="#000000" stroke-width="3.5" stroke-linecap="round"/><path d="M290.85,240.56401c0,0 3.25326,-11.68776 14.58618,-14.4235c6.36199,-1.53577 13.97908,2.13128 13.97908,2.13128" data-paper-data="{&quot;index&quot;:null}" fill="none" stroke="#000000" stroke-width="3.5" stroke-linecap="round"/><path d="M302.18611,233.69922c-0.5457,-1.71364 1.19353,-3.69013 3.8847,-4.4146c2.69117,-0.72448 5.31518,0.07742 5.86089,1.79106c0.5457,1.71364 -1.19353,3.69013 -3.8847,4.4146c-2.69117,0.72448 -5.31518,-0.07742 -5.86089,-1.79106z" data-paper-data="{&quot;index&quot;:null}" fill="#da4a8b" stroke="none" stroke-width="0.5" stroke-linecap="butt"/><path d="M325.78189,229.83383c-0.27928,-1.52999 2.03895,-3.0888 5.17792,-3.48169c3.13897,-0.3929 5.91001,0.52889 6.18928,2.05888c0.27928,1.52999 -2.03895,3.0888 -5.17792,3.48169c-3.13897,0.3929 -5.91001,-0.52889 -6.18928,-2.05888z" data-paper-data="{&quot;index&quot;:null}" fill="#da4a8b" stroke="none" stroke-width="0.5" stroke-linecap="butt"/><path d="M172.8146,180c0,-70.24256 56.94284,-127.1854 127.18541,-127.1854c70.24257,0 127.18541,56.94284 127.18541,127.18541c0,70.24256 -56.94284,127.18541 -127.1854,127.18541c-70.24256,0 -127.1854,-56.94285 -127.1854,-127.1854z" fill="url(#color-2)" stroke="#000000" stroke-width="0" stroke-linecap="butt"/></g></g></svg>