<svg version="1.1" xmlns="http://www.w3.org/2000/svg" xmlns:xlink="http://www.w3.org/1999/xlink" width="230.14186" height="230.14186" viewBox="0,0,230.14186,230.14186"><g transform="translate(-184.92914,-64.92911)"><g data-paper-data="{&quot;isPaintingLayer&quot;:true}" fill-rule="nonzero" stroke-linejoin="miter" stroke-miterlimit="10" stroke-dasharray="" stroke-dashoffset="0" style="mix-blend-mode: normal"><path d="M184.92915,295.07097v-230.14186h230.14186v230.14186z" fill="none" stroke="none" stroke-width="0" stroke-linecap="butt"/><g data-paper-data="{&quot;index&quot;:null}"><path d="M400.48165,226.08959c3.08258,10.04425 5.30273,27.84368 -19.86112,34.80626c-17.56154,4.85908 -62.0708,-10.13912 -82.4251,-10.94775c-34.07093,-1.35357 -65.71171,12.99814 -75.83524,12.2669c-19.73416,-1.42544 -24.11699,-23.67002 -24.63157,-34.65221c-0.92318,-19.7026 14.96844,-32.4954 33.21571,-32.80547c24.75913,-0.4207 38.67265,11.2734 69.62604,10.69737c21.31382,-0.39663 46.48357,-13.20516 65.40738,-10.45414c22.22175,3.23046 28.6952,12.16217 34.50386,31.08895z" fill="#000000" stroke="none" stroke-width="0.5" stroke-linecap="butt"/><g fill="#ffffff" stroke="#ff0000" stroke-width="0" stroke-linecap="round"><path d="M219.11126,203.26928c0,0 5.11808,-2.78865 8.1566,-3.22279c7.8734,-1.12498 13.33663,0.88657 13.33663,0.88657c0,0 2.48432,18.20136 -6.30778,19.15701c-8.79205,0.9557 -15.18541,-16.82074 -15.18541,-16.82074z"/><path d="M266.06927,206.30642c0,0 -0.19181,16.97324 -8.87763,15.41903c-12.01868,-2.15056 -11.91472,-18.92334 -11.91472,-18.92334c0,0 4.27215,0.13467 6.7221,0.54757c3.83724,0.64675 14.07024,2.95674 14.07024,2.95674z"/><path d="M269.57362,206.54005c0,0 5.09301,1.38281 8.87548,1.66415c5.18844,0.3859 19.39274,0.43844 19.39274,0.43844c0,0 -0.7675,18.83238 -14.71819,17.52162c-13.91176,-1.30706 -13.55007,-19.62422 -13.55007,-19.62422z"/><path d="M319.78965,208.42956c4.29312,-0.25469 8.65666,-1.18867 8.65666,-1.18867c0,0 2.66325,18.75539 -12.38197,18.92338c-16.6742,0.18621 -15.18541,-17.288 -15.18541,-17.288c0,0 14.0786,-0.16007 18.91072,-0.44671z"/><path d="M331.48336,207.9418c0,0 6.93433,-2.78172 10.38898,-3.57627c4.18998,-0.9637 12.97321,-1.79705 12.97321,-1.79705c0,0 -0.19836,8.94007 -4.17548,14.11344c-3.13735,4.08099 -7.32536,4.46474 -9.84184,5.04353c-6.28418,1.44534 -9.34487,-13.78369 -9.34487,-13.78369z"/><path d="M357.4154,200.93315c0,0 10.50521,-0.91228 14.42798,-0.32389c3.86372,0.57957 8.93416,3.8282 8.93416,3.8282c0,0 -9.51791,15.34638 -16.82074,14.25094c-7.30283,-1.09544 -6.5414,-17.75529 -6.5414,-17.75529z"/><path d="M213.03715,252.56355c0,0 2.6021,-12.5535 15.65266,-13.55006c7.74713,-0.59158 7.00866,12.1483 7.00866,12.1483c0,0 -8.25491,2.37959 -12.15963,2.62113c-3.62881,0.22446 -10.50172,-1.21938 -10.50172,-1.21938z"/><path d="M257.6589,239.71433c6.66784,-0.66699 8.41041,6.30778 8.41041,6.30778c0,0 -5.23702,0.71457 -8.65076,1.10986c-3.91532,0.45339 -13.54335,1.45998 -13.54335,1.45998c0,0 4.13779,-7.91276 13.78369,-8.87763z"/><path d="M284.5254,238.77987c7.92986,-0.03307 11.21384,5.6069 11.21384,5.6069l-22.66131,0.23363c0,0 3.98487,-5.80939 11.44747,-5.84053z"/><path d="M303.44878,244.85406c0,0 1.67702,-5.79083 10.98022,-6.30782c9.01879,-0.50118 11.91472,6.5414 11.91472,6.5414l-22.89494,-0.23363z"/><path d="M332.41782,246.02215c0,0 3.32731,-7.13807 12.84918,-6.30778c10.9642,0.95608 10.51301,9.81213 10.51301,9.81213c0,0 -7.30585,-1.63323 -11.19671,-2.21684c-3.89654,-0.58452 -12.16544,-1.28751 -12.16544,-1.28751z"/><path d="M363.95685,251.39538c0,0 -1.36097,-13.05826 7.00866,-12.38193c8.36963,0.67633 15.65266,13.78369 15.65266,13.78369c0,0 -7.89519,1.408 -11.90791,1.08372c-3.66528,-0.2962 -10.75344,-2.48544 -10.75344,-2.48544z"/></g><path d="M207.97913,212.84783c2.21557,-2.73939 5.19473,-6.79131 8.6455,-6.08055c4.741,0.97651 6.88468,7.99723 12.6083,8.03121c7.01423,0.04164 14.40864,-3.73794 14.40864,-3.73794c0,0 7.01609,6.10576 12.54351,7.56213c5.52742,1.45636 11.86176,-3.74803 11.86176,-3.74803c0,0 8.45645,8.02821 16.58897,8.33423c6.03341,0.22704 12.89485,-7.99764 12.89485,-7.99764c0,0 13.05775,7.08986 18.20569,7.06316c5.61762,-0.02913 15.95456,-6.71203 15.95456,-6.71203c0,0 3.8681,3.5037 9.41279,2.72186c3.91633,-0.55222 14.60709,-6.06046 14.60709,-6.06046c0,0 6.02394,2.50829 8.94687,2.57472c5.72752,0.13016 21.64514,-6.7822 21.64514,2.95538c0,8.91378 -35.34836,9.21157 -41.79647,11.03428c-9.36408,2.64699 -34.0026,2.29378 -42.92381,0.36295c-2.769,-0.59929 -12.83226,7.06744 -19.15931,5.88888c-10.69121,-1.99146 -22.97423,-11.10777 -34.4372,-11.52727c-8.19751,-0.29999 -35.00029,10.66796 -38.41829,-6.42209z" fill-opacity="0.22353" fill="#000000" stroke="none" stroke-width="0.5" stroke-linecap="butt"/><path d="M207.04465,247.65747c1.8823,-3.29402 3.13731,0.26213 6.92772,-0.65071c10.65547,-2.56614 71.19939,-4.9945 84.04793,-4.81916c37.33496,0.5095 78.38166,4.72517 87.20064,5.90306c0.7358,0.09828 -0.16421,-5.39899 0.08087,-5.27644c10.36728,5.18364 -1.24446,15.90607 -6.99533,16.55083c-17.26151,1.93531 -39.3639,-4.04806 -56.26671,-6.77503c-17.99202,-2.90269 -24.3971,-0.64425 -52.47432,-0.57543c-15.80386,0.03874 -27.27919,4.20159 -44.84723,3.50433c-2.09131,-0.083 -13.03506,0.25591 -14.49237,-2.29436z" fill-opacity="0.22353" fill="#000000" stroke="none" stroke-width="0.5" stroke-linecap="butt"/></g></g></g></svg>