<svg version="1.1" xmlns="http://www.w3.org/2000/svg" xmlns:xlink="http://www.w3.org/1999/xlink" width="308.47365" height="308.47365" viewBox="0,0,308.47365,308.47365"><g transform="translate(-145.76317,-25.53193)"><g data-paper-data="{&quot;isPaintingLayer&quot;:true}" fill-rule="nonzero" stroke-miterlimit="10" stroke-dasharray="" stroke-dashoffset="0" style="mix-blend-mode: normal"><path d="M145.76317,334.00559v-308.47365h308.47365v308.47365z" fill="none" stroke="#000000" stroke-width="0" stroke-linecap="butt" stroke-linejoin="miter"/><path d="" data-paper-data="{&quot;index&quot;:null}" fill="#ffffff" stroke="#000000" stroke-width="4.5" stroke-linecap="butt" stroke-linejoin="round"/><path d="" data-paper-data="{&quot;index&quot;:null}" fill-opacity="0.14118" fill="#000000" stroke="#ff0000" stroke-width="0" stroke-linecap="round" stroke-linejoin="miter"/><path d="M199.50445,131.55985c0,0 -12.00825,-13.16287 -12.92755,-26.74128c-0.99994,-14.76964 6.88964,-21.53031 6.88964,-21.53031c0,0 9.51092,7.77641 15.02751,11.21527c5.5736,3.47441 17.01682,5.24997 17.01682,5.24997c0,0 -8.05237,9.52178 -14.58564,16.86185c-2.18709,2.45719 -11.42078,14.94448 -11.42078,14.94448z" fill="#ffffff" stroke="#000000" stroke-width="4.5" stroke-linecap="butt" stroke-linejoin="round"/><path d="M203.90067,107.84491c6.66914,-6.8461 11.35679,-10.01896 11.35679,-10.01896l9.92638,2.11503c0,0 -7.7763,8.69552 -12.02922,12.57465c-4.39544,4.00913 -13.87924,19.14897 -13.87924,19.14897l-4.42414,-5.88396c0,0 1.99898,-10.69818 9.04944,-17.93572z" fill-opacity="0.14118" fill="#000000" stroke="#ff0000" stroke-width="0" stroke-linecap="round" stroke-linejoin="miter"/><path d="M400.49555,131.79108c0,0 -9.23369,-12.48729 -11.42078,-14.94448c-6.53327,-7.34007 -14.58564,-16.86185 -14.58564,-16.86185c0,0 11.44323,-1.77555 17.01682,-5.24997c5.51659,-3.43887 15.02751,-11.21528 15.02751,-11.21528c0,0 7.88959,6.76067 6.88964,21.53031c-0.9193,13.5784 -12.92755,26.74128 -12.92755,26.74128z" data-paper-data="{&quot;index&quot;:null}" fill="#ffffff" stroke="#000000" stroke-width="4.5" stroke-linecap="butt" stroke-linejoin="round"/><path d="M396.09933,108.07614c7.05046,7.23754 9.04944,17.93572 9.04944,17.93572l-4.42415,5.88397c0,0 -9.4838,-15.13984 -13.87924,-19.14897c-4.25291,-3.87913 -12.02921,-12.57465 -12.02921,-12.57465l9.92638,-2.11502c0,0 4.68764,3.17287 11.35679,10.01896z" data-paper-data="{&quot;index&quot;:null}" fill-opacity="0.14118" fill="#000000" stroke="#ff0000" stroke-width="0" stroke-linecap="round" stroke-linejoin="miter"/></g></g></svg>