<svg version="1.1" xmlns="http://www.w3.org/2000/svg" xmlns:xlink="http://www.w3.org/1999/xlink" width="315.24589" height="315.24589" viewBox="0,0,315.24589,315.24589"><defs><radialGradient cx="238.38393" cy="185.93751" r="49.0625" gradientUnits="userSpaceOnUse" id="color-1"><stop offset="0" stop-color="#000000"/><stop offset="1" stop-color="#000000" stop-opacity="0.59216"/></radialGradient><radialGradient cx="359.32143" cy="184.78532" r="49.0625" gradientUnits="userSpaceOnUse" id="color-2"><stop offset="0" stop-color="#000000"/><stop offset="1" stop-color="#000000" stop-opacity="0.59216"/></radialGradient><radialGradient cx="235.1082" cy="164.60899" r="40.84091" gradientUnits="userSpaceOnUse" id="color-3"><stop offset="0" stop-color="#ff0000"/><stop offset="1" stop-color="#730000"/></radialGradient><radialGradient cx="236.89669" cy="170.34106" r="18.88483" gradientUnits="userSpaceOnUse" id="color-4"><stop offset="0" stop-color="#ffffff" stop-opacity="0.43922"/><stop offset="1" stop-color="#ffffff" stop-opacity="0"/></radialGradient><radialGradient cx="364.8918" cy="164.60899" r="40.84091" gradientUnits="userSpaceOnUse" id="color-5"><stop offset="0" stop-color="#ff0000"/><stop offset="1" stop-color="#730000"/></radialGradient><radialGradient cx="363.10331" cy="170.34106" r="18.88483" gradientUnits="userSpaceOnUse" id="color-6"><stop offset="0" stop-color="#ffffff" stop-opacity="0.43922"/><stop offset="1" stop-color="#ffffff" stop-opacity="0"/></radialGradient><radialGradient cx="236.89668" cy="170.34105" r="23.54544" gradientUnits="userSpaceOnUse" id="color-7"><stop offset="0" stop-color="#ffffff" stop-opacity="0.40784"/><stop offset="1" stop-color="#ffffff" stop-opacity="0"/></radialGradient><radialGradient cx="236.89668" cy="170.34105" r="15.83587" gradientUnits="userSpaceOnUse" id="color-8"><stop offset="0" stop-color="#ffffff"/><stop offset="1" stop-color="#ffffff" stop-opacity="0.40784"/></radialGradient><radialGradient cx="363.10331" cy="170.34106" r="23.54544" gradientUnits="userSpaceOnUse" id="color-9"><stop offset="0" stop-color="#ffffff" stop-opacity="0.40784"/><stop offset="1" stop-color="#ffffff" stop-opacity="0"/></radialGradient><radialGradient cx="363.10331" cy="170.34106" r="15.83587" gradientUnits="userSpaceOnUse" id="color-10"><stop offset="0" stop-color="#ffffff"/><stop offset="1" stop-color="#ffffff" stop-opacity="0.40784"/></radialGradient><radialGradient cx="248.17153" cy="134.96337" r="28.22987" gradientUnits="userSpaceOnUse" id="color-11"><stop offset="0" stop-color="#ff0000"/><stop offset="1" stop-color="#730000"/></radialGradient><radialGradient cx="348.64106" cy="134.96336" r="28.22987" gradientUnits="userSpaceOnUse" id="color-12"><stop offset="0" stop-color="#ff0000"/><stop offset="1" stop-color="#730000"/></radialGradient><radialGradient cx="348.83073" cy="139.1095" r="13.05349" gradientUnits="userSpaceOnUse" id="color-13"><stop offset="0" stop-color="#ffffff" stop-opacity="0.43922"/><stop offset="1" stop-color="#ffffff" stop-opacity="0"/></radialGradient><radialGradient cx="247.98185" cy="139.10951" r="13.05349" gradientUnits="userSpaceOnUse" id="color-14"><stop offset="0" stop-color="#ffffff" stop-opacity="0.43922"/><stop offset="1" stop-color="#ffffff" stop-opacity="0"/></radialGradient></defs><g transform="translate(-142.37706,-22.37708)"><g data-paper-data="{&quot;isPaintingLayer&quot;:true}" fill-rule="nonzero" stroke-linejoin="miter" stroke-miterlimit="10" stroke-dasharray="" stroke-dashoffset="0" style="mix-blend-mode: normal"><path d="M236.50893,209.68751c-37.56395,-2.69847 -49.6875,-37.5 -49.6875,-37.5l14.6875,-1.25c0,0 25.48561,8.62769 38.50752,10.43222c14.60791,2.02432 44.92998,1.13028 44.92998,1.13028c0,0 -15.91715,29.52365 -48.4375,27.1875z" fill="url(#color-1)" stroke="#ff0000" stroke-width="0" stroke-linecap="butt"/><path d="M312.75892,181.34782c0,0 30.32207,0.89404 44.92998,-1.13028c13.02191,-1.80453 38.50752,-10.43222 38.50752,-10.43222l14.6875,1.25c0,0 -12.12356,34.80153 -49.6875,37.5c-32.52036,2.33615 -48.4375,-27.1875 -48.4375,-27.1875z" data-paper-data="{&quot;index&quot;:null}" fill="url(#color-2)" stroke="#ff0000" stroke-width="0" stroke-linecap="butt"/><path d="M210.37967,134.86555c0,0 19.01101,17.72319 30.80161,25.33926c12.26705,7.92384 43.65903,21.23178 43.65903,21.23178c0,0 -26.69299,2.26145 -39.58803,0.72646c-13.3582,-1.59013 -39.22073,-10.10766 -39.22073,-10.10766c0,0 -2.4669,-13.07746 -1.80272,-18.75829c0.7696,-6.58247 6.15082,-18.43155 6.15082,-18.43155z" fill="url(#color-3)" stroke="#c60000" stroke-width="0" stroke-linecap="round"/><path d="M142.37706,337.62297v-315.24589h315.24589v315.24589z" fill="none" stroke="#000000" stroke-width="0" stroke-linecap="butt"/><path d="M212.9055,136.02216c1.17005,0.90145 3.01955,1.34506 3.73557,2.55411c0.09022,0.15235 0.16245,0.31686 0.21306,0.49596c0.40442,1.43143 -3.14907,8.53115 -3.97141,17.19138c-0.8416,8.86319 1.04266,19.27442 1.04266,19.27442c0,0 -3.68956,-0.87146 -4.5613,-1.44236c-1.65941,-1.08675 -3.68566,-1.4797 -3.76213,-3.42779c-0.33164,-8.4489 -1.36844,-17.2539 1.31646,-25.44981c0.45842,-1.39937 1.06119,-7.4064 2.7675,-7.90295z" fill-opacity="0.58824" fill="#2b0000" stroke="none" stroke-width="0.5" stroke-linecap="butt"/><path d="M281.54958,182.33781l-16.1438,0.91941c0,0 1.28556,-2.91416 1.77604,-4.46416c0.40293,-1.27331 0.9562,-4.17003 0.9562,-4.17003z" fill-opacity="0.58824" fill="#2b0000" stroke="#c60000" stroke-width="0" stroke-linecap="round"/><path d="M284.33967,181.96264c0,0 -23.7996,3.16384 -48.00965,-1.19763c-15.60189,-2.81069 -35.87263,-10.40918 -35.87263,-10.40918" fill="none" stroke="#000000" stroke-width="4" stroke-linecap="round"/><path d="M207.5591,172.47699c0,0 -2.93185,-3.647 -2.42798,-16.61743c0.54442,-14.01412 5.16451,-19.03998 5.16451,-19.03998" fill="none" stroke="#000000" stroke-width="4" stroke-linecap="round"/><path d="M230.91982,170.11045c0.12736,-3.30093 2.90654,-5.87363 6.20747,-5.74627c3.30093,0.12736 5.87363,2.90655 5.74627,6.20748c-0.12736,3.30093 -2.90655,5.87362 -6.20748,5.74626c-3.30093,-0.12736 -5.87362,-2.90654 -5.74626,-6.20747z" fill-opacity="0.81176" fill="#ffffff" stroke="none" stroke-width="0" stroke-linecap="butt"/><path d="M224.3474,159.86254c0.08872,-2.29953 2.02478,-4.09174 4.32431,-4.00302c2.29953,0.08872 4.09174,2.02478 4.00302,4.32431c-0.08872,2.29953 -2.02478,4.09174 -4.32431,4.00301c-2.29953,-0.08872 -4.09174,-2.02478 -4.00302,-4.32431z" fill-opacity="0.81176" fill="#ffffff" stroke="none" stroke-width="0" stroke-linecap="butt"/><path d="M220.83871,167.82465c0.06583,-1.7061 1.50226,-3.03581 3.20836,-2.96998c1.7061,0.06583 3.03581,1.50226 2.96998,3.20836c-0.06583,1.7061 -1.50226,3.0358 -3.20836,2.96998c-1.7061,-0.06583 -3.03581,-1.50226 -2.96998,-3.20836z" fill-opacity="0.81176" fill="#ffffff" stroke="none" stroke-width="0" stroke-linecap="butt"/><path d="M286.47855,180.41c0,0 -33.16849,-12.83269 -46.63083,-21.15787c-11.66098,-7.21121 -29.5181,-25.93302 -29.5181,-25.93302" fill="none" stroke="#000000" stroke-width="6.5" stroke-linecap="round"/><path d="M218.0259,169.61296c0.40211,-10.42205 9.17683,-18.54482 19.59888,-18.1427c10.42205,0.40211 18.54481,9.17684 18.1427,19.59889c-0.40211,10.42205 -9.17683,18.54481 -19.59888,18.1427c-10.42205,-0.40211 -18.54481,-9.17683 -18.1427,-19.59888z" fill="url(#color-4)" stroke="none" stroke-width="0" stroke-linecap="butt"/><path d="M389.62035,134.86555c0,0 5.38123,11.84908 6.15082,18.43156c0.66418,5.68082 -1.80272,18.75829 -1.80272,18.75829c0,0 -25.86253,8.51753 -39.22072,10.10765c-12.89504,1.53499 -39.58803,-0.72645 -39.58803,-0.72645c0,0 31.39198,-13.30794 43.65903,-21.23178c11.79061,-7.61607 30.80161,-25.33926 30.80161,-25.33926z" data-paper-data="{&quot;index&quot;:null}" fill="url(#color-5)" stroke="#c60000" stroke-width="0" stroke-linecap="round"/><path d="M390.31409,137.31514c1.70632,0.49654 2.30908,6.50358 2.76751,7.90295c2.6849,8.19591 1.6481,17.00091 1.31646,25.44981c-0.07647,1.94808 -2.10271,2.34104 -3.76213,3.42779c-0.87174,0.57091 -4.56131,1.44236 -4.56131,1.44236c0,0 1.88426,-10.41123 1.04266,-19.27442c-0.82233,-8.66022 -4.37583,-15.75995 -3.97141,-17.19138c0.0506,-0.1791 0.12284,-0.34361 0.21306,-0.49596c0.71602,-1.20906 2.56552,-1.65266 3.73557,-2.55411z" data-paper-data="{&quot;index&quot;:null}" fill-opacity="0.58824" fill="#2b0000" stroke="none" stroke-width="0.5" stroke-linecap="butt"/><path d="M331.86197,174.62302c0,0 0.55327,2.89673 0.95621,4.17004c0.49048,1.55 1.77605,4.46416 1.77605,4.46416l-16.1438,-0.91941z" data-paper-data="{&quot;index&quot;:null}" fill-opacity="0.58824" fill="#2b0000" stroke="#c60000" stroke-width="0" stroke-linecap="round"/><path d="M399.54261,170.35583c0,0 -20.27075,7.59849 -35.87263,10.40918c-24.21006,4.36148 -48.00965,1.19763 -48.00965,1.19763" data-paper-data="{&quot;index&quot;:null}" fill="none" stroke="#000000" stroke-width="4" stroke-linecap="round"/><path d="M389.70437,136.81958c0,0 4.62009,5.02586 5.16451,19.03998c0.50387,12.97044 -2.42798,16.61744 -2.42798,16.61744" data-paper-data="{&quot;index&quot;:null}" fill="none" stroke="#000000" stroke-width="4" stroke-linecap="round"/><path d="M363.33392,176.31793c-3.30094,0.12736 -6.08011,-2.44533 -6.20747,-5.74626c-0.12736,-3.30094 2.44533,-6.08012 5.74626,-6.20748c3.30093,-0.12736 6.08011,2.44533 6.20748,5.74627c0.12736,3.30094 -2.44533,6.08011 -5.74627,6.20747z" data-paper-data="{&quot;index&quot;:null}" fill-opacity="0.81176" fill="#ffffff" stroke="none" stroke-width="0" stroke-linecap="butt"/><path d="M371.64959,164.18685c-2.29953,0.08873 -4.23559,-1.70348 -4.32432,-4.00301c-0.08873,-2.29953 1.70349,-4.23559 4.00302,-4.32431c2.29953,-0.08873 4.23558,1.70349 4.32431,4.00302c0.08873,2.29953 -1.70349,4.23558 -4.00302,4.32431z" data-paper-data="{&quot;index&quot;:null}" fill-opacity="0.81176" fill="#ffffff" stroke="none" stroke-width="0" stroke-linecap="butt"/><path d="M376.19131,171.03301c-1.7061,0.06582 -3.14254,-1.26387 -3.20836,-2.96997c-0.06582,-1.7061 1.26388,-3.14254 2.96998,-3.20837c1.7061,-0.06582 3.14253,1.26389 3.20836,2.96999c0.06583,1.7061 -1.26388,3.14253 -2.96998,3.20835z" data-paper-data="{&quot;index&quot;:null}" fill-opacity="0.81176" fill="#ffffff" stroke="none" stroke-width="0" stroke-linecap="butt"/><path d="M389.67038,133.3191c0,0 -17.85713,18.72181 -29.5181,25.93303c-13.46234,8.32518 -46.63083,21.15787 -46.63083,21.15787" data-paper-data="{&quot;index&quot;:null}" fill="none" stroke="#000000" stroke-width="6.5" stroke-linecap="round"/><path d="M363.83141,189.21185c-10.42205,0.40212 -19.19677,-7.72064 -19.59888,-18.1427c-0.40212,-10.42205 7.72064,-19.19678 18.1427,-19.59889c10.42205,-0.40212 19.19677,7.72065 19.59888,18.1427c0.40211,10.42205 -7.72064,19.19677 -18.1427,19.59888z" data-paper-data="{&quot;index&quot;:null}" fill="url(#color-6)" stroke="none" stroke-width="0" stroke-linecap="butt"/><g stroke="#ff0000" stroke-width="0" stroke-linecap="butt"><path d="M213.35124,170.34105c0,-13.00379 10.54166,-23.54544 23.54544,-23.54544c13.00379,0 23.54544,10.54166 23.54544,23.54545c0,13.00379 -10.54166,23.54545 -23.54544,23.54545c-13.00379,0 -23.54544,-10.54166 -23.54544,-23.54544z" fill="url(#color-7)"/><path d="M236.89668,192.73635c0,0 -0.14862,-14.88238 -3.83078,-18.56453c-3.78036,-3.78036 -18.56453,-3.83078 -18.56453,-3.83078c0,0 14.5877,-0.4433 18.26985,-4.12545c3.78036,-3.78036 4.12545,-18.26985 4.12545,-18.26985c0,0 -0.09312,14.64064 3.5361,18.26985c3.82554,3.82554 18.85921,4.12545 18.85921,4.12545c0,0 -14.5877,-0.14606 -18.26985,3.5361c-3.78036,3.78036 -4.12545,18.85921 -4.12545,18.85921z" fill="url(#color-8)"/></g><g stroke="#ff0000" stroke-width="0" stroke-linecap="butt"><path d="M339.55787,170.34106c0,-13.00378 10.54166,-23.54544 23.54544,-23.54544c13.00378,0 23.54544,10.54166 23.54544,23.54545c0,13.00378 -10.54166,23.54545 -23.54544,23.54545c-13.00378,0 -23.54544,-10.54166 -23.54544,-23.54544z" fill="url(#color-9)"/><path d="M363.10331,192.73636c0,0 -0.14863,-14.88238 -3.83078,-18.56454c-3.78036,-3.78036 -18.56453,-3.83078 -18.56453,-3.83078c0,0 14.5877,-0.4433 18.26986,-4.12545c3.78036,-3.78036 4.12545,-18.26986 4.12545,-18.26986c0,0 -0.09312,14.64064 3.5361,18.26986c3.82554,3.82554 18.85921,4.12545 18.85921,4.12545c0,0 -14.5877,-0.14605 -18.26986,3.5361c-3.78036,3.78036 -4.12545,18.85921 -4.12545,18.85921z" fill="url(#color-10)"/></g><path d="M239.11838,109.80626c0,0 8.17283,15.99871 14.03769,23.72766c6.10186,8.04128 23.36035,24.09089 23.36035,24.09089c0,0 -17.87692,-4.82536 -25.89342,-8.86361c-8.30444,-4.1833 -23.09987,-15.81642 -23.09987,-15.81642c0,0 1.48107,-9.07875 3.25226,-12.61322c2.05232,-4.09543 8.34298,-10.52531 8.34298,-10.52531z" fill="url(#color-11)" stroke="#c60000" stroke-width="0" stroke-linecap="round"/><path d="M240.48678,111.1534c0.54765,0.86163 1.64474,1.58602 1.82486,2.54044c0.02269,0.12026 0.03083,0.2442 0.02148,0.3725c-0.07479,1.02543 -4.0579,4.80045 -6.63447,10.23347c-2.63693,5.56035 -3.86783,12.76933 -3.86783,12.76933c0,0 -2.19176,-1.4363 -2.62354,-2.01281c-0.82191,-1.09743 -2.04581,-1.83058 -1.63609,-3.11437c1.77694,-5.56784 3.17968,-11.53334 6.85693,-16.22543c0.62785,-0.80113 2.43607,-4.56202 3.66184,-4.48226z" fill-opacity="0.58824" fill="#2b0000" stroke="none" stroke-width="0.5" stroke-linecap="butt"/><path d="M228.41622,133.57894c0,0 -1.04493,-3.06101 2.34114,-11.36965c3.65854,-8.97721 7.84561,-11.15323 7.84561,-11.15323" fill="none" stroke="#000000" stroke-width="4" stroke-linecap="round"/><path d="M244.1528,137.55021c0.86118,-2.11473 3.27362,-3.13093 5.38835,-2.26976c2.11473,0.86118 3.13094,3.27362 2.26977,5.38835c-0.86118,2.11473 -3.27363,3.13093 -5.38836,2.26976c-2.11473,-0.86118 -3.13093,-3.27362 -2.26976,-5.38835z" fill-opacity="0.81176" fill="#ffffff" stroke="none" stroke-width="0" stroke-linecap="butt"/><path d="M242.29906,129.34178c0.59992,-1.47319 2.28051,-2.1811 3.75369,-1.58118c1.47319,0.59992 2.18111,2.2805 1.58119,3.75369c-0.59992,1.47319 -2.28051,2.18111 -3.75369,1.58118c-1.47319,-0.59992 -2.1811,-2.2805 -1.58118,-3.75368z" fill-opacity="0.81176" fill="#ffffff" stroke="none" stroke-width="0" stroke-linecap="butt"/><path d="M238.14169,133.6877c0.44511,-1.09301 1.69199,-1.61825 2.785,-1.17314c1.09301,0.44511 1.61824,1.69199 1.17314,2.78499c-0.44511,1.09301 -1.69198,1.61823 -2.78499,1.17314c-1.09301,-0.44511 -1.61825,-1.69198 -1.17314,-2.78499z" fill-opacity="0.81176" fill="#ffffff" stroke="none" stroke-width="0" stroke-linecap="butt"/><path d="M277.82295,157.34412c0,0 -18.52484,-16.15975 -25.30869,-24.74367c-5.87611,-7.43533 -13.06371,-23.81078 -13.06371,-23.81078" fill="none" stroke="#000000" stroke-width="6.5" stroke-linecap="round"/><path d="M357.69421,109.80624c0,0 6.29066,6.42988 8.34298,10.52532c1.77119,3.53446 3.25226,12.61321 3.25226,12.61321c0,0 -14.79543,11.63311 -23.09987,15.81642c-8.0165,4.03825 -25.89342,8.86361 -25.89342,8.86361c0,0 17.2585,-16.04961 23.36035,-24.09089c5.86486,-7.72895 14.03769,-23.72766 14.03769,-23.72766z" data-paper-data="{&quot;index&quot;:null}" fill="url(#color-12)" stroke="#c60000" stroke-width="0" stroke-linecap="round"/><path d="M358.72263,111.23424c1.22577,-0.07975 3.03399,3.68113 3.66184,4.48226c3.67726,4.69209 5.07999,10.6576 6.85693,16.22543c0.40972,1.28379 -0.81417,2.01694 -1.63609,3.11437c-0.43178,0.57651 -2.62354,2.01281 -2.62354,2.01281c0,0 -1.23089,-7.20898 -3.86782,-12.76933c-2.57657,-5.43301 -6.55968,-9.20804 -6.63447,-10.23347c-0.00936,-0.1283 -0.00121,-0.25223 0.02148,-0.3725c0.18012,-0.95443 1.2772,-1.67881 1.82486,-2.54044z" data-paper-data="{&quot;index&quot;:null}" fill-opacity="0.58824" fill="#2b0000" stroke="none" stroke-width="0.5" stroke-linecap="butt"/><path d="M372.51045,130.526c0,0 -11.37893,9.71731 -20.85336,15.22278c-14.70183,8.54304 -30.91158,12.09976 -30.91158,12.09976" data-paper-data="{&quot;index&quot;:null}" fill="none" stroke="#000000" stroke-width="4" stroke-linecap="round"/><path d="M358.20961,111.05605c0,0 4.18708,2.17602 7.84562,11.15323c3.38607,8.30864 2.34114,11.36965 2.34114,11.36965" data-paper-data="{&quot;index&quot;:null}" fill="none" stroke="#000000" stroke-width="4" stroke-linecap="round"/><path d="M350.39003,142.93855c-2.11473,0.86118 -4.52719,-0.15503 -5.38836,-2.26976c-0.86118,-2.11473 0.15503,-4.52718 2.26977,-5.38835c2.11473,-0.86118 4.52718,0.15503 5.38835,2.26976c0.86118,2.11473 -0.15502,4.52718 -2.26975,5.38835z" data-paper-data="{&quot;index&quot;:null}" fill-opacity="0.81176" fill="#ffffff" stroke="none" stroke-width="0" stroke-linecap="butt"/><path d="M354.51352,129.34177c0.59992,1.47319 -0.108,3.15376 -1.58119,3.75368c-1.47319,0.59993 -3.15377,-0.10799 -3.75369,-1.58118c-0.59992,-1.47319 0.108,-3.15376 1.58119,-3.75369c1.47319,-0.59992 3.15377,0.108 3.75369,1.58118z" data-paper-data="{&quot;index&quot;:null}" fill-opacity="0.81176" fill="#ffffff" stroke="none" stroke-width="0" stroke-linecap="butt"/><path d="M357.49776,136.47268c-1.09301,0.4451 -2.33989,-0.08013 -2.78499,-1.17314c-0.44511,-1.09301 0.08013,-2.33989 1.17313,-2.78499c1.09301,-0.44511 2.3399,0.08013 2.785,1.17314c0.44511,1.09301 -0.08013,2.33988 -1.17314,2.78499z" data-paper-data="{&quot;index&quot;:null}" fill-opacity="0.81176" fill="#ffffff" stroke="none" stroke-width="0" stroke-linecap="butt"/><path d="M357.36203,108.78966c0,0 -7.18759,16.37545 -13.06371,23.81078c-6.78384,8.58392 -25.30869,24.74367 -25.30869,24.74367" data-paper-data="{&quot;index&quot;:null}" fill="none" stroke="#000000" stroke-width="6.5" stroke-linecap="round"/><path d="M360.92023,134.18633c2.719,6.67684 -0.48948,14.29367 -7.16633,17.01267c-6.67685,2.719 -14.29368,-0.48948 -17.01267,-7.16632c-2.719,-6.67684 0.48948,-14.29368 7.16632,-17.01267c6.67685,-2.719 14.29367,0.48947 17.01267,7.16632z" data-paper-data="{&quot;index&quot;:null}" fill="url(#color-13)" stroke="none" stroke-width="0" stroke-linecap="butt"/><path d="M277.10267,157.84855c0,0 -16.20976,-3.55672 -30.91158,-12.09976c-9.47443,-5.50546 -20.85336,-15.22278 -20.85336,-15.22278" fill="none" stroke="#000000" stroke-width="4" stroke-linecap="round"/><path d="M235.89236,134.18633c2.719,-6.67684 10.33583,-9.88532 17.01267,-7.16632c6.67685,2.719 9.88531,10.33583 7.16632,17.01268c-2.719,6.67685 -10.33582,9.88532 -17.01267,7.16633c-6.67684,-2.719 -9.88532,-10.33582 -7.16632,-17.01267z" fill="url(#color-14)" stroke="none" stroke-width="0" stroke-linecap="butt"/></g></g></svg>