<svg version="1.1" xmlns="http://www.w3.org/2000/svg" xmlns:xlink="http://www.w3.org/1999/xlink" width="308.47365" height="308.47365" viewBox="0,0,308.47365,308.47365"><g transform="translate(-145.76318,-25.53192)"><g data-paper-data="{&quot;isPaintingLayer&quot;:true}" fill-rule="nonzero" stroke-miterlimit="10" stroke-dasharray="" stroke-dashoffset="0" style="mix-blend-mode: normal"><path d="M198.44909,133.62998c0,0 -14.07931,-16.87416 -15.15716,-39.93501c-1.17241,-25.08399 8.0779,-36.56596 8.0779,-36.56596c0,0 11.15126,13.20704 17.61928,19.04745c6.53486,5.90076 20.38007,16.17789 20.38007,16.17789c0,0 -9.86952,5.86468 -17.52958,18.33069c-2.5643,4.17316 -13.39052,22.94494 -13.39052,22.94494z" fill="#ffffff" stroke="#000000" stroke-width="4.5" stroke-linecap="butt" stroke-linejoin="round"/><path d="M145.76318,334.00557v-308.47365h308.47365v308.47365z" fill="none" stroke="#000000" stroke-width="0" stroke-linecap="butt" stroke-linejoin="miter"/><path d="M203.3037,99.48299c9.44154,-11.38616 16.82784,-14.18876 16.82784,-14.18876l8.8542,7.3785c0,0 -9.54584,7.50638 -14.53225,14.09449c-5.15351,6.80888 -16.27298,27.04064 -16.27298,27.04064c0,0 -2.63895,-4.18327 -3.9021,-6.3622c-1.19226,-2.05664 -3.4764,-6.36571 -3.4764,-6.36571c0,0 3.22597,-10.41076 12.50169,-21.59696z" fill-opacity="0.14118" fill="#000000" stroke="#ff0000" stroke-width="0" stroke-linecap="round" stroke-linejoin="miter"/><path d="M401.55093,133.86124c0,0 -10.82622,-18.77178 -13.39052,-22.94494c-7.66006,-12.46601 -17.52958,-18.33069 -17.52958,-18.33069c0,0 13.84521,-10.27713 20.38007,-16.17789c6.46802,-5.84041 17.61928,-19.04745 17.61928,-19.04745c0,0 9.25031,11.48197 8.0779,36.56596c-1.07785,23.06085 -15.15716,39.93501 -15.15716,39.93501z" data-paper-data="{&quot;index&quot;:null}" fill="#ffffff" stroke="#000000" stroke-width="4.5" stroke-linecap="butt" stroke-linejoin="round"/><path d="M409.198,121.31121c0,0 -2.28414,4.30907 -3.4764,6.36571c-1.26315,2.17893 -3.9021,6.3622 -3.9021,6.3622c0,0 -11.11947,-20.23176 -16.27298,-27.04064c-4.98641,-6.58811 -14.53225,-14.09449 -14.53225,-14.09449l8.8542,-7.3785c0,0 7.3863,2.8026 16.82784,14.18876c9.27572,11.1862 12.50169,21.59696 12.50169,21.59696z" data-paper-data="{&quot;index&quot;:null}" fill-opacity="0.14118" fill="#000000" stroke="#ff0000" stroke-width="0" stroke-linecap="round" stroke-linejoin="miter"/><path d="M190.18337,179.32778c0,0 -10.67247,-7.7658 -18.37291,-23.84025c-8.376,-17.48467 -5.25054,-28.43089 -5.25054,-28.43089c0,0 11.90076,6.03853 18.25627,8.24682c6.42118,2.23111 14.06097,5.37616 14.06097,5.37616c0,0 -5.2548,7.13795 -6.95356,18.30576c-0.56868,3.73857 -1.74024,20.34241 -1.74024,20.34241z" fill="#ffffff" stroke="#000000" stroke-width="4.5" stroke-linecap="butt" stroke-linejoin="round"/><path d="M183.8094,151.82098c3.29026,-10.93558 6.37604,-13.38421 6.37604,-13.38421l8.51479,2.58455c0,0 -4.531,8.20804 -6.09591,14.39216c-1.61735,6.39135 -2.55845,24.12156 -2.55845,24.12156c0,0 -3.13439,-2.18123 -4.68778,-3.35086c-1.46621,-1.10398 -4.38612,-3.48136 -4.38612,-3.48136c0,0 -0.39504,-10.13829 2.83743,-20.88183z" fill-opacity="0.14118" fill="#000000" stroke="#ff0000" stroke-width="0" stroke-linecap="round" stroke-linejoin="miter"/><path d="M409.81664,179.55905c0,0 -1.17157,-16.60384 -1.74025,-20.34241c-1.69876,-11.1678 -6.95355,-18.30576 -6.95355,-18.30576c0,0 7.63978,-3.14505 14.06097,-5.37616c6.3555,-2.20829 18.25627,-8.24683 18.25627,-8.24683c0,0 3.12547,10.94621 -5.25054,28.43089c-7.70043,16.07446 -18.37291,23.84025 -18.37291,23.84025z" data-paper-data="{&quot;index&quot;:null}" fill="#ffffff" stroke="#000000" stroke-width="4.5" stroke-linecap="butt" stroke-linejoin="round"/><path d="M419.02803,172.93407c0,0 -2.91991,2.37738 -4.38612,3.48136c-1.55339,1.16963 -4.68777,3.35086 -4.68777,3.35086c0,0 -0.94111,-17.73021 -2.55846,-24.12156c-1.5649,-6.18412 -6.09591,-14.39216 -6.09591,-14.39216l8.5148,-2.58455c0,0 3.08578,2.44863 6.37604,13.38421c3.23246,10.74354 2.83742,20.88183 2.83742,20.88183z" data-paper-data="{&quot;index&quot;:null}" fill-opacity="0.14118" fill="#000000" stroke="#ff0000" stroke-width="0" stroke-linecap="round" stroke-linejoin="miter"/></g></g></svg>