<svg version="1.1" xmlns="http://www.w3.org/2000/svg" xmlns:xlink="http://www.w3.org/1999/xlink" width="352.09003" height="365.31083" viewBox="0,0,352.09003,365.31083"><defs><radialGradient cx="300" cy="130.45345" r="157.28832" gradientUnits="userSpaceOnUse" id="color-1"><stop offset="0" stop-color="#fa3e00" stop-opacity="0.61961"/><stop offset="1" stop-color="#fa3e00" stop-opacity="0"/></radialGradient><radialGradient cx="301.60771" cy="162.43095" r="176.04502" gradientUnits="userSpaceOnUse" id="color-2"><stop offset="0" stop-color="#fa3e00" stop-opacity="0.56471"/><stop offset="1" stop-color="#fa3e00" stop-opacity="0"/></radialGradient><radialGradient cx="301.60771" cy="162.43095" r="162.43095" gradientUnits="userSpaceOnUse" id="color-3"><stop offset="0" stop-color="#fa7d00" stop-opacity="0.27059"/><stop offset="1" stop-color="#fa7d00" stop-opacity="0"/></radialGradient></defs><g transform="translate(-125.5627,26.83487)"><g data-paper-data="{&quot;isPaintingLayer&quot;:true}" fill-rule="nonzero" stroke-linejoin="miter" stroke-miterlimit="10" stroke-dasharray="" stroke-dashoffset="0" style="mix-blend-mode: normal"><path d="M142.71168,130.45345c0,-86.86794 70.42038,-157.28832 157.28832,-157.28832c86.86794,0 157.28832,70.42038 157.28832,157.28832c0,86.86794 -70.42038,157.28832 -157.28832,157.28832c-86.86794,0 -157.28832,-70.42038 -157.28832,-157.28832z" fill="url(#color-1)" stroke="none" stroke-width="0" stroke-linecap="butt"/><path d="M125.5627,162.43095c0,-97.22698 78.81803,-176.04502 176.04501,-176.04502c97.22698,0 176.04502,78.81804 176.04502,176.04502c0,97.22698 -78.81804,176.04501 -176.04502,176.04501c-97.22698,0 -176.04501,-78.81804 -176.04501,-176.04501z" fill="url(#color-2)" stroke="none" stroke-width="0" stroke-linecap="butt"/><path d="M139.17677,162.43095c0,-89.70814 72.72281,-162.43095 162.43095,-162.43095c89.70814,0 162.43095,72.72281 162.43095,162.43095c0,89.70814 -72.72281,162.43095 -162.43095,162.43095c-89.70814,0 -162.43095,-72.72281 -162.43095,-162.43095z" fill="url(#color-3)" stroke="none" stroke-width="0" stroke-linecap="butt"/><g stroke-linecap="round"><path d="M189.36333,75.87627c6.9589,-7.34743 5.93233,-15.10638 5.93233,-15.10638c0,0 1.22695,-1.19888 1.89888,-1.73345c0.66722,-0.53084 2.11868,-1.46292 2.11868,-1.46292c0,0 4.46534,14.26824 17.74496,18.60192c2.7014,0.88158 8.41864,2.39368 12.11203,0.83048c4.41341,-1.86796 6.61723,-6.96847 6.61723,-6.96847c0,0 11.72928,-3.07399 21.80776,-9.70332c10.53375,-6.92879 14.6285,-14.57471 14.6285,-14.57471c0,0 5.93751,-3.62964 8.65365,-7.219c2.08287,-2.75248 4.92769,-10.44761 7.43428,-14.85441c1.96642,-3.45715 3.90308,-4.09141 3.90308,-4.09141c0,0 8.4845,13.09103 12.75685,18.01965c3.57895,4.12871 11.16738,9.5796 11.16738,9.5796c0,0 1.13195,6.36512 5.62823,9.37839c4.3506,2.91563 12.17815,2.7345 12.17815,2.7345c0,0 12.46419,14.35163 33.36144,13.3877c3.65663,-0.16867 7.67463,-3.14951 11.0479,-8.91988c1.69232,-2.89493 1.82247,-8.88398 2.98208,-11.89906c1.6888,-4.39108 4.32861,-5.37047 4.32861,-5.37047c0,0 1.82836,7.59797 4.76536,12.06495c2.90297,4.41523 9.30034,7.22892 9.30034,7.22892c0,0 1.01874,7.9049 2.47252,10.50382c2.85128,5.09723 8.01299,7.79473 8.01299,7.79473c0,0 -2.90513,24.10361 7.22694,34.18963c13.43673,13.37569 18.38996,-1.57326 18.38996,-1.57326c0,0 9.2563,15.82264 5.5932,47.22656c-3.83294,32.85991 -16.30946,78.14172 -48.08809,107.19249c-13.16645,12.03624 -29.83214,20.4383 -50.20848,25.21797c-12.37859,2.90363 -26.13241,4.75655 -41.28631,4.451c-74.80064,-1.50825 -112.59369,-39.41099 -129.82899,-80.28022c-14.76219,-35.00491 -13.90112,-69.31255 -13.90112,-69.31255c0,0 5.71355,2.83355 7.50818,3.37117c2.21332,0.66305 5.71464,0.78161 5.71464,0.78161c0,0 0.15616,-15.64708 -0.16005,-23.27191c-0.30853,-7.43976 -1.71473,-21.9355 -1.71473,-21.9355c0,0 3.68422,-6.20749 4.74756,-10.11102c1.28984,-4.73499 2.44404,-16.2892 2.44404,-16.2892c0,0 6.35622,-1.1694 12.70999,-7.87792z" fill="#fa3e00" stroke="#ff5f29" stroke-width="2.5"/><path d="M180.75967,157.45167c0,0 -2.83793,-29.29617 0.17319,-46.68538c0.83591,-4.82744 4.58301,-8.22067 4.58301,-8.22067l-0.12255,-8.33104c0,0 6.84683,-5.00422 9.51909,-8.40348c2.61882,-3.33129 6.35741,-11.79227 6.35741,-11.79227c0,0 7.76592,13.24908 23.46942,13.04888c19.66947,-0.25077 21.46809,-12.95249 21.46809,-12.95249c0,0 10.24842,-0.64787 15.21341,-4.17379c3.73826,-2.65475 9.16401,-9.76188 13.71296,-14.86473c3.30188,-3.70391 6.50534,-6.12364 6.50534,-6.12364c0,0 4.1169,-1.09367 5.86763,-2.63089c2.08579,-1.83144 5.81889,-7.63045 5.81889,-7.63045c0,0 3.27189,0.96011 6.18517,3.44076c2.98668,2.54315 5.63228,6.63253 6.93983,8.64967c0.81511,1.25747 0.67304,5.72605 4.2753,9.42382c1.98403,2.03663 15.3739,7.2792 28.76185,13.33311c9.73953,4.40412 18.54287,10.18926 27.52056,10.83404c5.03088,0.36133 7.54409,-4.66064 10.80731,-7.46515c5.13625,-4.41424 9.62902,-7.52974 9.62902,-7.52974c0,0 2.35023,7.69559 4.08365,10.90975c1.81282,3.36135 6.56576,8.83657 6.56576,8.83657c0,0 1.72556,20.78591 6.23222,28.29289c2.10155,3.50066 6.46425,11.24336 10.90859,13.86472c7.75461,4.57382 16.16927,2.66612 16.16927,2.66612c0,0 2.51752,33.22718 -7.40836,69.1779c-12.85085,46.54476 -45.25953,98.43873 -117.50583,96.83513c-137.50252,-3.05205 -137.93665,-143.56998 -137.93665,-143.56998c0,0 4.12527,1.41175 6.0394,1.57802c2.1313,0.18514 6.167,-0.5177 6.167,-0.5177z" fill="#fa7b00" stroke="#ff0000" stroke-width="0"/><path d="M200.6997,92.36914c0,0 8.42026,6.43358 15.58617,4.05043c4.47146,-1.48707 14.86124,-6.27496 22.00835,-11.10364c6.25136,-4.22352 9.62546,-8.65063 9.62546,-8.65063c0,0 17.47223,-2.66346 25.96157,-6.96618c5.61511,-2.84596 20.01836,-16.33828 20.01836,-16.33828c0,0 3.56445,11.71582 11.67736,15.30885c7.27834,3.22342 18.2299,1.44155 28.05274,4.30952c18.99925,5.54721 37.38127,15.08945 42.06522,17.96412c3.5121,2.15547 7.78692,-3.76307 7.78692,-3.76307c0,0 4.92425,4.80564 5.85908,7.45777c2.13502,6.05704 0.91996,10.50765 0.91996,10.50765c0,0 11.0579,12.86648 15.35913,19.55377c4.14173,6.43932 9.98781,19.85415 9.98781,19.85415c0,0 1.7252,0.41641 2.61037,0.50981c0.91293,0.09632 2.777,0.52741 2.777,0.52741c0,0 0.45548,5.53198 1.17686,14.39988c1.40375,17.25631 1.79146,46.63852 -12.45961,72.67085c-10.62097,19.40123 -31.01674,39.16497 -51.74505,50.67711c-19.30887,10.72382 -38.67368,13.92048 -56.82294,12.6619c-103.38086,-7.16902 -122.50538,-70.0979 -119.3032,-124.12635c0.52219,-8.81075 2.61058,-17.36651 4.05171,-25.42346c5.51153,-30.81347 14.80678,-54.08163 14.80678,-54.08163z" fill="#ffd265" stroke="#ffff00" stroke-width="0"/></g><path d="M180.46753,180.00001c0,-66.01596 53.51652,-119.53249 119.53249,-119.53249c66.01597,0 119.5325,53.51652 119.5325,119.53249c0,66.01597 -53.51653,119.5325 -119.5325,119.5325c-66.01597,0 -119.53249,-53.51653 -119.53249,-119.5325z" fill="#fffef3" stroke="#000000" stroke-width="0" stroke-linecap="butt"/><path d="M183.95633,180.00001c0,-64.08915 51.95453,-116.04369 116.04369,-116.04369c64.08916,0 116.0437,51.95453 116.0437,116.04369c0,64.08916 -51.95454,116.0437 -116.0437,116.0437c-64.08916,0 -116.04369,-51.95454 -116.04369,-116.0437z" fill="#ffd265" stroke="#000000" stroke-width="0" stroke-linecap="butt"/><path d="M187.04545,180c0,-62.38307 50.57147,-112.95455 112.95455,-112.95455c62.38308,0 112.95455,50.57147 112.95455,112.95455c0,62.38307 -50.57148,112.95455 -112.95455,112.95455c-62.38307,0 -112.95455,-50.57148 -112.95455,-112.95455z" fill="#0d0700" stroke="#000000" stroke-width="0" stroke-linecap="butt"/></g></g></svg>