<svg version="1.1" xmlns="http://www.w3.org/2000/svg" xmlns:xlink="http://www.w3.org/1999/xlink" width="142.78041" height="48.2206" viewBox="0,0,142.78041,48.2206"><g transform="translate(-228.60983,-141.05937)"><g data-paper-data="{&quot;isPaintingLayer&quot;:true}" fill-rule="nonzero" stroke="#000000" stroke-width="0" stroke-linecap="butt" stroke-linejoin="miter" stroke-miterlimit="10" stroke-dasharray="" stroke-dashoffset="0" style="mix-blend-mode: normal"><g data-paper-data="{&quot;index&quot;:null}"><path d="M323.34767,168.07409c-1.60406,-13.21742 7.81042,-25.23262 21.02786,-26.83668c13.21742,-1.60406 25.23262,7.81042 26.83668,21.02786c1.60406,13.21742 -7.81042,25.23262 -21.02786,26.83668c-13.21742,1.60406 -25.23262,-7.81042 -26.83668,-21.02786z" fill="#000000"/><path d="M330.59632,158.05163c-0.46595,-3.83943 2.26879,-7.32963 6.10822,-7.79558c3.83943,-0.46595 7.32963,2.26879 7.79558,6.10822c0.46595,3.83943 -2.26879,7.32963 -6.10822,7.79558c-3.83943,0.46595 -7.32963,-2.26879 -7.79558,-6.10822z" fill="#ffffff"/></g><g data-paper-data="{&quot;index&quot;:null}"><path d="M228.78785,168.07408c-1.60406,-13.21742 7.81043,-25.23262 21.02785,-26.83668c13.21743,-1.60406 25.23262,7.81043 26.83669,21.02786c0.7463,6.14946 -0.8925,12.03868 -4.1897,16.74024c-11.00578,-3.8372 -22.90005,-2.92311 -34.15388,2.17771c-0.8886,0.40276 -1.74334,0.76492 -2.56333,1.10655c-3.7238,-3.68728 -6.27725,-8.60939 -6.95763,-14.21569z" fill="#000000"/><path d="M236.03648,158.05163c-0.46595,-3.83943 2.26879,-7.32963 6.10822,-7.79558c3.83943,-0.46595 7.32963,2.26879 7.79558,6.10822c0.46595,3.83943 -2.26878,7.32963 -6.10821,7.79558c-3.83943,0.46595 -7.32963,-2.26879 -7.79559,-6.10822z" fill="#ffffff"/></g></g></g></svg>