<svg version="1.1" xmlns="http://www.w3.org/2000/svg" xmlns:xlink="http://www.w3.org/1999/xlink" width="254.37081" height="254.37081" viewBox="0,0,254.37081,254.37081"><defs><linearGradient x1="300" y1="194.73779" x2="300" y2="263.09414" gradientUnits="userSpaceOnUse" id="color-1"><stop offset="0" stop-color="#420428"/><stop offset="1" stop-color="#5f0d26"/></linearGradient><radialGradient cx="300" cy="180" r="127.18541" gradientUnits="userSpaceOnUse" id="color-2"><stop offset="0" stop-color="#000000" stop-opacity="0"/><stop offset="1" stop-color="#000000" stop-opacity="0"/></radialGradient></defs><g transform="translate(-172.81459,-52.81459)"><g data-paper-data="{&quot;isPaintingLayer&quot;:true}" fill-rule="nonzero" stroke-linejoin="miter" stroke-miterlimit="10" stroke-dasharray="" stroke-dashoffset="0" style="mix-blend-mode: normal"><path d="M184.92907,295.07093v-230.14186h230.14186v230.14186z" fill="none" stroke="none" stroke-width="0" stroke-linecap="butt"/><path d="M228.21912,194.76515c0.45167,-0.4328 40.25616,8.09218 71.67433,8.3109c32.56771,0.22671 70.76528,-8.90005 71.25992,-8.3109c3.67472,4.37699 -1.8725,68.65374 -71.02637,68.32776c-69.22624,-0.32634 -73.4112,-66.88721 -71.90788,-68.32776z" fill="url(#color-1)" stroke="#000000" stroke-width="0" stroke-linecap="butt"/><path d="M228.21912,194.76515c0.45167,-0.4328 40.25616,8.09219 71.67433,8.3109c32.56771,0.22671 70.76529,-8.90005 71.25992,-8.3109c3.56566,4.24709 -1.55137,64.89124 -65.03589,68.18933c2.65155,-6.85075 5.4944,-10.55981 7.54167,-22.47703c2.35305,-13.69712 -2.66872,-26.25783 -2.66872,-26.25783c0,0 -25.423,0.90335 -44.39538,-1.67522c-17.27061,-2.34727 -35.09091,-9.0904 -38.04837,-9.65548c-0.70642,-4.72688 -0.63926,-7.82509 -0.32757,-8.12376z" fill-opacity="0.9098" fill="#30011f" stroke="#000000" stroke-width="0" stroke-linecap="butt"/><path d="M270.54329,249.96795c4.65859,-8.02902 13.34434,-11.90793 22.62454,-10.8534c2.34903,0.26693 5.00876,0.82956 6.95097,2.25886c0.33102,0.24361 1.24405,1.25161 1.44723,1.30382c0.0669,0.01719 0.95904,-0.76885 1.12945,-0.86539c0.09835,-0.05571 2.74457,-1.64344 3.93879,-2.05468c5.69654,-1.96168 13.12018,-1.97603 18.17775,1.87805c3.60485,2.74704 8.53784,9.30394 6.87884,14.04387c-0.53498,1.52851 -3.00691,2.60879 -4.35325,3.26083c-4.0695,1.97089 -8.22836,3.20197 -12.73843,3.34835c-5.2428,0.17016 -10.03513,1.51638 -15.31513,1.14157c-6.55707,-0.46546 -12.66175,-0.90487 -19.12374,-2.21436c-1.68904,-0.34228 -7.88052,-2.79934 -8.77694,-2.8018c-0.00103,0 -0.00208,0 -0.00311,0c-1.87893,0 -3.40211,-1.52345 -3.40211,-3.40272c0,-0.69545 0.20859,-1.34217 0.56662,-1.88098c0.58082,-1.13645 1.47084,-2.2525 1.99854,-3.162z" fill="#b51f62" stroke="none" stroke-width="0.5" stroke-linecap="butt"/><path d="M228.21912,194.76515c0.45167,-0.4328 40.25616,8.09219 71.67433,8.3109c32.56771,0.22671 70.76529,-8.90005 71.25992,-8.3109c3.67473,4.37699 -1.8725,68.65374 -71.02637,68.32775c-69.22624,-0.32634 -73.41119,-66.88721 -71.90788,-68.32775z" fill="none" stroke="#000000" stroke-width="5" stroke-linecap="butt"/><path d="M297.3584,246.95198c0,0 8.79157,-9.14304 19.41396,-8.63427c13.24287,0.63429 17.27157,18.85993 17.27157,18.85993" fill="none" stroke="#000000" stroke-width="3.5" stroke-linecap="round"/><path d="M267.8897,255.3731c0,0 4.98729,-14.04201 18.10915,-16.24086c7.36625,-1.23437 15.56937,4.06029 15.56937,4.06029" fill="none" stroke="#000000" stroke-width="3.5" stroke-linecap="round"/><path d="M281.47741,248.09554c-0.42526,-2.16407 1.76278,-4.4163 4.88714,-5.0305c3.12436,-0.6142 6.0019,0.64224 6.42717,2.80631c0.42526,2.16407 -1.76278,4.4163 -4.88714,5.0305c-3.12436,0.6142 -6.0019,-0.64224 -6.42717,-2.80631z" fill="#da4a8b" stroke="none" stroke-width="0.5" stroke-linecap="butt"/><path d="M308.59294,245.76918c-0.14454,-1.91074 2.65149,-3.58962 6.24511,-3.74986c3.59362,-0.16025 6.62401,1.2588 6.76854,3.16954c0.14454,1.91074 -2.65149,3.58962 -6.24511,3.74986c-3.59362,0.16025 -6.62401,-1.2588 -6.76854,-3.16954z" fill="#da4a8b" stroke="none" stroke-width="0.5" stroke-linecap="butt"/><path d="M172.8146,180c0,-70.24256 56.94284,-127.1854 127.18541,-127.1854c70.24257,0 127.18541,56.94284 127.18541,127.18541c0,70.24256 -56.94284,127.18541 -127.1854,127.18541c-70.24256,0 -127.1854,-56.94285 -127.1854,-127.1854z" fill="url(#color-2)" stroke="#000000" stroke-width="0" stroke-linecap="butt"/></g></g></svg>