<svg version="1.1" xmlns="http://www.w3.org/2000/svg" xmlns:xlink="http://www.w3.org/1999/xlink" width="254.37082" height="254.37082" viewBox="0,0,254.37082,254.37082"><defs><radialGradient cx="299.99999" cy="179.99999" r="127.18541" gradientUnits="userSpaceOnUse" id="color-1"><stop offset="0" stop-color="#000000" stop-opacity="0"/><stop offset="1" stop-color="#000000" stop-opacity="0"/></radialGradient></defs><g transform="translate(-172.81459,-52.81459)"><g data-paper-data="{&quot;isPaintingLayer&quot;:true}" fill-rule="nonzero" stroke-linejoin="miter" stroke-miterlimit="10" stroke-dasharray="" stroke-dashoffset="0" style="mix-blend-mode: normal"><path d="M172.81459,179.99999c0,-70.24256 56.94284,-127.1854 127.18541,-127.1854c70.24257,0 127.18541,56.94284 127.18541,127.18541c0,70.24256 -56.94284,127.18541 -127.1854,127.18541c-70.24256,0 -127.1854,-56.94285 -127.1854,-127.1854z" fill="url(#color-1)" stroke="#000000" stroke-width="0" stroke-linecap="butt"/><path d="M184.92911,295.07096v-230.14186h230.14186v230.14186z" fill="none" stroke="none" stroke-width="0" stroke-linecap="butt"/><path d="M340.49607,205.46095c7.99671,-1.14239 19.80749,-0.74518 25.24848,6.58015c3.61201,4.86294 6.81777,20.61485 -2.2084,22.62066c-19.73714,4.38603 -28.00915,0.93382 -58.95865,1.0357c-16.50073,0.05431 -32.38064,6.00764 -48.70856,6.89444c-8.93026,0.48502 -16.528,-4.85745 -20.22003,-12.58617c-3.8796,-8.12136 0.21758,-17.81243 8.91317,-19.75225c23.93829,-5.34019 49.05071,-0.51566 73.57631,-0.7494c7.29966,-0.06957 14.68227,-3.63901 21.96132,-3.88164z" fill="#ffffff" stroke="none" stroke-width="0.5" stroke-linecap="butt"/><path d="M340.49608,205.46094c7.99671,-1.14238 19.80749,-0.74517 25.24847,6.58016c3.61201,4.86294 6.81777,20.61484 -2.2084,22.62066c-19.73714,4.38603 -28.00916,0.93382 -58.95866,1.0357c-16.50073,0.05432 -32.38064,6.00763 -48.70856,6.89444c-8.93025,0.48502 -16.528,-4.85745 -20.22003,-12.58617c-3.87959,-8.12136 0.21758,-17.81243 8.91317,-19.75226c15.26997,-3.40645 27.52293,-2.50211 43.29135,-1.58772c8.95127,0.51907 21.40398,0.92296 30.28496,0.83832c7.29966,-0.06957 14.68227,-3.63901 21.96132,-3.88165z" fill="none" stroke="#000000" stroke-width="6" stroke-linecap="butt"/><path d="M367.87262,221.43215l-133.15095,4.71795" fill="none" stroke="#000000" stroke-width="5" stroke-linecap="round"/><path d="M233.9154,216.53946c0.41969,-1.00198 0.52704,-2.21853 1.09209,-3.11931c0.11814,-0.18833 0.25628,-0.36285 0.42146,-0.51873c2.18201,-2.05902 6.511,-2.08952 9.30003,-2.66761c5.61656,-1.16415 11.28421,-2.47222 16.98589,-3.06283c10.69103,-1.10743 20.42572,0.16577 30.84534,0.52422c2.06383,0.071 4.17237,1.21825 6.22829,1.22317c12.83429,0.03074 25.49404,-2.04193 38.32825,-2.09687c1.87221,-0.00801 4.41888,0.61686 6.29523,0.14777c0.67145,-0.16786 2.33462,0.58663 2.82866,0.23024c4.37247,-3.15419 11.80586,-1.38347 15.90636,1.78541c5.90415,4.56275 9.21678,17.7207 4.15187,23.62976c-2.75248,3.21123 -7.04788,3.57985 -10.88688,4.67671c-2.23251,0.63786 -3.27015,1.14518 -5.67667,0.49512c-1.47639,-0.39881 -17.82262,-0.87259 -17.82262,-0.87259c0,0 4.51866,-4.38163 4.92384,-7.96986c0.40518,-3.58824 -2.22022,-13.07798 -2.22022,-13.07798c0,0 -7.44729,3.5542 -22.30999,3.57584c-24.32326,0.03541 -53.07457,-1.04812 -60.44983,-0.48122c-7.57342,0.58213 -17.04913,4.78577 -17.85195,3.94805z" fill-opacity="0.35294" fill="#000000" stroke="none" stroke-width="0.5" stroke-linecap="butt"/></g></g></svg>