<svg version="1.1" xmlns="http://www.w3.org/2000/svg" xmlns:xlink="http://www.w3.org/1999/xlink" width="308.47365" height="308.47365" viewBox="0,0,308.47365,308.47365"><defs><linearGradient x1="300" y1="53.82574" x2="300" y2="112.34876" gradientUnits="userSpaceOnUse" id="color-1"><stop offset="0" stop-color="#ffb800"/><stop offset="1" stop-color="#ebff00"/></linearGradient></defs><g transform="translate(-145.76318,-25.53192)"><g data-paper-data="{&quot;isPaintingLayer&quot;:true}" fill-rule="nonzero" stroke="#000000" stroke-linecap="butt" stroke-linejoin="miter" stroke-miterlimit="10" stroke-dasharray="" stroke-dashoffset="0" style="mix-blend-mode: normal"><path d="M145.76318,334.00557v-308.47365h308.47365v308.47365z" fill="none" stroke-width="0"/><path d="M176.67786,83.08724c0,-16.16069 55.21321,-29.26152 123.32214,-29.26152c68.10893,0 123.32214,13.10083 123.32214,29.26152c0,16.16069 -55.21321,29.26152 -123.32214,29.26152c-68.10893,0 -123.32214,-13.10083 -123.32214,-29.26152zM300.93674,105.94072c52.61497,0 95.26783,-10.12054 95.26783,-22.60487c0,-12.48433 -42.65286,-22.60487 -95.26783,-22.60487c-52.61497,0 -95.26783,10.12054 -95.26783,22.60487c0,12.48433 42.65286,22.60487 95.26783,22.60487z" fill="url(#color-1)" stroke-width="4.5"/></g></g></svg>