<svg version="1.1" xmlns="http://www.w3.org/2000/svg" xmlns:xlink="http://www.w3.org/1999/xlink" width="254.37081" height="254.37081" viewBox="0,0,254.37081,254.37081"><defs><radialGradient cx="300" cy="180" r="127.18541" gradientUnits="userSpaceOnUse" id="color-1"><stop offset="0" stop-color="#000000" stop-opacity="0"/><stop offset="1" stop-color="#000000" stop-opacity="0"/></radialGradient></defs><g transform="translate(-172.81459,-52.81459)"><g data-paper-data="{&quot;isPaintingLayer&quot;:true}" fill-rule="nonzero" stroke="#000000" stroke-width="0" stroke-linecap="butt" stroke-linejoin="miter" stroke-miterlimit="10" stroke-dasharray="" stroke-dashoffset="0" style="mix-blend-mode: normal"><g><path d="M228.78782,168.07407c-1.60406,-13.21742 7.81042,-25.23262 21.02786,-26.83668c13.21742,-1.60406 25.23262,7.81042 26.83668,21.02786c1.60406,13.21742 -7.81042,25.23262 -21.02786,26.83668c-13.21742,1.60406 -25.23262,-7.81042 -26.83668,-21.02786z" fill="#000000"/><path d="M236.03647,158.05163c-0.46595,-3.83943 2.26879,-7.32963 6.10822,-7.79558c3.83943,-0.46595 7.32963,2.26879 7.79558,6.10822c0.46595,3.83943 -2.26879,7.32963 -6.10822,7.79558c-3.83943,0.46595 -7.32963,-2.26879 -7.79558,-6.10822z" fill="#ffffff"/></g><g data-paper-data="{&quot;index&quot;:null}"><path d="M328.37597,183.02064c-4.63653,-12.48102 1.72268,-26.35755 14.2037,-30.99408c12.48103,-4.63653 26.35755,1.72268 30.99409,14.20371c4.63653,12.48102 -1.72268,26.35755 -14.20371,30.99408c-12.48102,4.63653 -26.35755,-1.72268 -30.99408,-14.20371z" fill="#000000"/><path d="M333.09267,171.58628c-1.34683,-3.62552 0.50041,-7.6564 4.12593,-9.00323c3.62552,-1.34683 7.6564,0.50041 9.00323,4.12593c1.34683,3.62552 -0.5004,7.6564 -4.12592,9.00323c-3.62552,1.34683 -7.6564,-0.50041 -9.00324,-4.12592z" fill="#ffffff"/></g><path d="M172.8146,180c0,-70.24256 56.94284,-127.1854 127.18541,-127.1854c70.24257,0 127.18541,56.94284 127.18541,127.18541c0,70.24256 -56.94284,127.18541 -127.1854,127.18541c-70.24256,0 -127.1854,-56.94285 -127.1854,-127.1854z" fill="url(#color-1)"/></g></g></svg>