<svg version="1.1" xmlns="http://www.w3.org/2000/svg" xmlns:xlink="http://www.w3.org/1999/xlink" width="254.37081" height="254.37081" viewBox="0,0,254.37081,254.37081"><defs><radialGradient cx="300" cy="180" r="127.18541" gradientUnits="userSpaceOnUse" id="color-1"><stop offset="0" stop-color="#000000" stop-opacity="0"/><stop offset="1" stop-color="#000000" stop-opacity="0"/></radialGradient></defs><g transform="translate(-172.81459,-52.81459)"><g data-paper-data="{&quot;isPaintingLayer&quot;:true}" fill-rule="nonzero" stroke="#000000" stroke-width="0" stroke-linecap="butt" stroke-linejoin="miter" stroke-miterlimit="10" stroke-dasharray="" stroke-dashoffset="0" style="mix-blend-mode: normal"><path d="M365.5582,149.45046c8.68148,10.09483 7.53571,25.31602 -2.5591,33.99749c-10.09483,8.68148 -25.31602,7.53572 -33.99749,-2.5591c-8.68148,-10.09483 -7.53571,-25.31602 2.5591,-33.99749c10.09483,-8.68148 25.31603,-7.53572 33.99749,2.5591z" fill="#000000"/><path d="M268.43928,146.89137c10.09482,8.68147 11.24058,23.90266 2.5591,33.99749c-8.68147,10.09482 -23.90266,11.24058 -33.99749,2.5591c-10.09482,-8.68147 -11.24058,-23.90266 -2.5591,-33.99749c8.68147,-10.09482 23.90266,-11.24058 33.99749,-2.5591z" fill="#000000"/><path d="M172.8146,180c0,-70.24256 56.94284,-127.1854 127.18541,-127.1854c70.24257,0 127.18541,56.94284 127.18541,127.18541c0,70.24256 -56.94284,127.18541 -127.1854,127.18541c-70.24256,0 -127.1854,-56.94285 -127.1854,-127.1854z" fill="url(#color-1)"/></g></g></svg>