<svg version="1.1" xmlns="http://www.w3.org/2000/svg" xmlns:xlink="http://www.w3.org/1999/xlink" width="308.47365" height="308.47365" viewBox="0,0,308.47365,308.47365"><g transform="translate(-145.76317,-25.53191)"><g data-paper-data="{&quot;isPaintingLayer&quot;:true}" fill-rule="nonzero" stroke-miterlimit="10" stroke-dasharray="" stroke-dashoffset="0" style="mix-blend-mode: normal"><path d="M145.76317,334.00557v-308.47365h308.47365v308.47365z" fill="none" stroke="#000000" stroke-width="0" stroke-linecap="butt" stroke-linejoin="miter"/><path d="M198.79049,135.7374c0,0 -14.50484,-14.35676 -15.61526,-33.97724c-1.20784,-21.34179 8.32204,-31.11081 8.32204,-31.11081c0,0 11.48829,11.23673 18.1518,16.20582c6.73237,5.02045 20.55472,7.58608 20.55472,7.58608c0,0 -9.72651,11.16804 -17.61808,21.77428c-2.6418,3.55058 -13.79523,19.52186 -13.79523,19.52186z" fill="#ffffff" stroke="#000000" stroke-width="4.5" stroke-linecap="butt" stroke-linejoin="round"/><path d="M204.1007,106.13313c8.05569,-9.89246 13.71793,-14.47716 13.71793,-14.47716l11.99013,3.05616c0,0 -9.39304,12.56482 -14.53016,18.17007c-5.30927,5.79309 -16.76481,23.00654 -16.76481,23.00654l-5.34395,-8.50219c0,0 2.41458,-10.79534 10.93087,-21.25342z" fill-opacity="0.14118" fill="#000000" stroke="#ff0000" stroke-width="0" stroke-linecap="round" stroke-linejoin="miter"/><path d="" data-paper-data="{&quot;index&quot;:null}" fill="#ffffff" stroke="#000000" stroke-width="4.5" stroke-linecap="butt" stroke-linejoin="round"/><path d="" data-paper-data="{&quot;index&quot;:null}" fill-opacity="0.14118" fill="#000000" stroke="#ff0000" stroke-width="0" stroke-linecap="round" stroke-linejoin="miter"/><path d="M401.20953,135.96866c0,0 -11.15342,-15.97128 -13.79523,-19.52186c-7.89157,-10.60625 -17.61808,-21.77429 -17.61808,-21.77429c0,0 13.82236,-2.56563 20.55472,-7.58607c6.6635,-4.9691 18.1518,-16.20583 18.1518,-16.20583c0,0 9.52989,9.76901 8.32205,31.11081c-1.11042,19.62048 -15.61526,33.97724 -15.61526,33.97724z" data-paper-data="{&quot;index&quot;:null}" fill="#ffffff" stroke="#000000" stroke-width="4.5" stroke-linecap="butt" stroke-linejoin="round"/><path d="M406.83017,127.61781l-5.34396,8.50219c0,0 -11.45554,-17.21346 -16.76481,-23.00654c-5.13712,-5.60525 -14.53016,-18.17006 -14.53016,-18.17006l11.99013,-3.05616c0,0 5.66224,4.58469 13.71793,14.47715c8.51629,10.45808 10.93087,21.25342 10.93087,21.25342z" data-paper-data="{&quot;index&quot;:null}" fill-opacity="0.14118" fill="#000000" stroke="#ff0000" stroke-width="0" stroke-linecap="round" stroke-linejoin="miter"/></g></g></svg>