<svg version="1.1" xmlns="http://www.w3.org/2000/svg" xmlns:xlink="http://www.w3.org/1999/xlink" width="254.37081" height="254.37081" viewBox="0,0,254.37081,254.37081"><defs><radialGradient cx="300" cy="180" r="127.18541" gradientUnits="userSpaceOnUse" id="color-1"><stop offset="0" stop-color="#000000" stop-opacity="0"/><stop offset="1" stop-color="#000000" stop-opacity="0"/></radialGradient></defs><g transform="translate(-172.81459,-52.81459)"><g data-paper-data="{&quot;isPaintingLayer&quot;:true}" fill-rule="nonzero" stroke="#000000" stroke-width="0" stroke-linecap="butt" stroke-linejoin="miter" stroke-miterlimit="10" stroke-dasharray="" stroke-dashoffset="0" style="mix-blend-mode: normal"><path d="M378.30468,156.55761c14.73557,5.53063 12.79079,13.86983 -4.3437,18.62613c-17.13452,4.7563 -42.97031,4.12858 -57.70586,-1.40205c-14.73557,-5.53063 -12.79079,-13.86983 4.3437,-18.62613c17.13452,-4.7563 42.97033,-4.12858 57.70586,1.40205z" fill="#000000"/><path d="M261.6935,134.98531c5.76271,14.33638 6.41677,39.4723 1.46088,56.14267c-4.95588,16.67035 -13.64502,18.56243 -19.40773,4.22604c-5.76271,-14.33638 -6.41677,-39.4723 -1.46088,-56.14267c4.95588,-16.67035 13.64502,-18.56243 19.40773,-4.22604z" fill="#000000"/><path d="M172.8146,180c0,-70.24256 56.94284,-127.1854 127.18541,-127.1854c70.24257,0 127.18541,56.94284 127.18541,127.18541c0,70.24256 -56.94284,127.18541 -127.1854,127.18541c-70.24256,0 -127.1854,-56.94285 -127.1854,-127.1854z" fill="url(#color-1)"/></g></g></svg>