<svg version="1.1" xmlns="http://www.w3.org/2000/svg" xmlns:xlink="http://www.w3.org/1999/xlink" width="254.37081" height="254.37081" viewBox="0,0,254.37081,254.37081"><defs><linearGradient x1="300.00001" y1="185.97242" x2="300.00001" y2="249.74543" gradientUnits="userSpaceOnUse" id="color-1"><stop offset="0" stop-color="#420428"/><stop offset="1" stop-color="#5f0d26"/></linearGradient><radialGradient cx="300" cy="180" r="127.18541" gradientUnits="userSpaceOnUse" id="color-2"><stop offset="0" stop-color="#000000" stop-opacity="0"/><stop offset="1" stop-color="#000000" stop-opacity="0"/></radialGradient></defs><g transform="translate(-172.81459,-52.81459)"><g data-paper-data="{&quot;isPaintingLayer&quot;:true}" fill-rule="nonzero" stroke-linejoin="miter" stroke-miterlimit="10" stroke-dasharray="" stroke-dashoffset="0" style="mix-blend-mode: normal"><path d="M184.92907,295.07093v-230.14186h230.14186v230.14186z" data-paper-data="{&quot;index&quot;:null}" fill="none" stroke="none" stroke-width="0" stroke-linecap="butt"/><path d="M300.11818,185.97357c64.35187,-0.30412 69.5139,59.66283 66.09435,63.74634c-0.46029,0.54965 -36.00545,-7.96516 -66.31168,-7.75365c-29.23651,0.20405 -66.27701,8.15743 -66.69731,7.75365c-1.39893,-1.34396 2.49543,-63.44188 66.91464,-63.74634z" data-paper-data="{&quot;index&quot;:null}" fill="url(#color-1)" stroke="#000000" stroke-width="0" stroke-linecap="butt"/><path d="M308.1335,242.06556l3.64661,-42.68974c0,0 -20.08567,-1.92052 -35.91339,2.58556c-19.97832,5.68774 -32.74462,16.20789 -32.74462,16.20789c0,0 6.60158,-16.25604 25.09542,-25.60842c10.39866,-5.25863 37.92065,-5.30415 37.47516,-6.45813c59.0762,3.07695 63.8379,59.65488 60.51984,63.6172c-0.2269,0.27095 -13.87779,-2.7514 -28.13477,-4.7034c-14.665,-2.00787 -29.94426,-2.95096 -29.94426,-2.95096z" data-paper-data="{&quot;index&quot;:null}" fill-opacity="0.9098" fill="#30011f" stroke="#000000" stroke-width="0" stroke-linecap="butt"/><path d="M271.68908,238.46896c4.3351,-7.49067 12.41772,-11.1095 21.05351,-10.12567c2.18591,0.24903 4.66096,0.77394 6.4683,2.1074c0.30803,0.22728 1.15766,1.16769 1.34674,1.2164c0.06225,0.01604 0.89244,-0.7173 1.05102,-0.80737c0.09152,-0.05197 2.55399,-1.53325 3.66528,-1.91691c5.30098,-1.83015 12.20912,-1.84354 16.9155,1.75213c3.35453,2.56285 7.94498,8.68011 6.40118,13.10222c-0.22817,0.65359 -13.16717,-1.15371 -26.61342,-1.19813c-15.89104,-0.0525 -32.67512,1.52449 -32.67512,0.5748c0,-0.64882 0.19411,-1.25218 0.52727,-1.75486c0.54049,-1.06025 1.36871,-2.10147 1.85976,-2.94999z" data-paper-data="{&quot;index&quot;:null}" fill="#b51f62" stroke="none" stroke-width="0.5" stroke-linecap="butt"/><path d="M300.11818,185.97358c64.35187,-0.30413 69.51391,59.66282 66.09435,63.74633c-0.46028,0.54965 -36.00545,-7.96516 -66.31168,-7.75365c-29.23651,0.20405 -66.27701,8.15743 -66.69731,7.75365c-1.39892,-1.34395 2.49543,-63.44188 66.91464,-63.74633z" data-paper-data="{&quot;index&quot;:null}" fill="none" stroke="#000000" stroke-width="5" stroke-linecap="butt"/><path d="M296.64217,235.65521c0,0 8.18109,-8.52999 18.06587,-8.05534c12.32329,0.59176 16.07224,17.59536 16.07224,17.59536" data-paper-data="{&quot;index&quot;:null}" fill="none" stroke="#000000" stroke-width="3.5" stroke-linecap="round"/><path d="M269.21975,243.51169c0,0 4.64098,-13.10048 16.85166,-15.1519c6.85474,-1.1516 14.48824,3.78805 14.48824,3.78805" data-paper-data="{&quot;index&quot;:null}" fill="none" stroke="#000000" stroke-width="3.5" stroke-linecap="round"/><path d="M281.86394,236.72209c-0.39573,-2.01897 1.64037,-4.12018 4.54778,-4.6932c2.90741,-0.57302 5.58513,0.59918 5.98087,2.61815c0.39573,2.01897 -1.64037,4.12018 -4.54778,4.6932c-2.90741,0.57302 -5.58513,-0.59918 -5.98087,-2.61815z" data-paper-data="{&quot;index&quot;:null}" fill="#da4a8b" stroke="none" stroke-width="0.5" stroke-linecap="butt"/><path d="M307.09658,234.55172c-0.1345,-1.78262 2.46737,-3.34893 5.81145,-3.49843c3.34408,-0.14951 6.16404,1.1744 6.29854,2.95702c0.1345,1.78262 -2.46737,3.34893 -5.81145,3.49843c-3.34408,0.14951 -6.16404,-1.1744 -6.29854,-2.95702z" data-paper-data="{&quot;index&quot;:null}" fill="#da4a8b" stroke="none" stroke-width="0.5" stroke-linecap="butt"/><path d="M172.8146,180c0,-70.24256 56.94284,-127.1854 127.18541,-127.1854c70.24257,0 127.18541,56.94284 127.18541,127.18541c0,70.24256 -56.94284,127.18541 -127.1854,127.18541c-70.24256,0 -127.1854,-56.94285 -127.1854,-127.1854z" fill="url(#color-2)" stroke="#000000" stroke-width="0" stroke-linecap="butt"/></g></g></svg>