<svg version="1.1" xmlns="http://www.w3.org/2000/svg" xmlns:xlink="http://www.w3.org/1999/xlink" width="232.52532" height="235.14728" viewBox="0,0,232.52532,235.14728"><g transform="translate(-9.12119,-67.75815)"><g data-paper-data="{&quot;isPaintingLayer&quot;:true}" fill-rule="nonzero" stroke="#ff0000" stroke-width="0" stroke-linecap="butt" stroke-linejoin="miter" stroke-miterlimit="10" stroke-dasharray="" stroke-dashoffset="0" style="mix-blend-mode: normal"><path d="M9.12119,75.17384c0,-3.1696 4.77197,-7.41569 8.42503,-7.41569c9.88365,0 194.28102,0.37509 215.74221,0.37509c2.15349,0 4.86056,1.45552 5.99819,2.60897c1.06456,1.07935 2.35989,4.56822 2.35989,6.12207c0,11.52848 -0.07017,198.37043 -0.07017,218.38736c0,3.46745 -4.51597,7.65379 -7.40164,7.65379c-10.97959,0 -197.00965,-0.37509 -217.45793,-0.37509c-3.63757,0 -7.59556,-4.6675 -7.59556,-8.23021c0,-3.5627 0,-212.12448 0,-223.5589z" fill="#ffffff"/><path d="M10.64061,75.87508c0,-3.08331 3.90304,-6.47481 7.45666,-6.47481c9.61461,0 193.94606,0.37509 214.82305,0.37509c2.09486,0 3.98922,1.23114 5.09589,2.35321c1.03558,1.04997 2.11088,3.72766 2.11088,5.2392c0,11.21467 -0.06825,197.778 -0.06825,217.25006c0,3.37307 -3.83876,6.89117 -6.64588,6.89117c-10.68071,0 -196.04615,-0.37509 -215.9378,-0.37509c-3.53855,0 -6.83453,-3.98617 -6.83453,-7.4519c0,-3.46572 0,-211.11637 0,-222.23953z" fill="#000000"/><path d="M12.72979,76.98152c0,-2.96306 3.0224,-5.49221 6.43929,-5.49221c9.24467,0 192.59609,0.37509 212.66981,0.37509c2.01427,0 3.47049,0.81808 4.53458,1.89639c0.99573,1.00903 1.66443,2.22958 1.66443,3.68217c0,4.16259 -0.00979,33.39759 -0.02181,47.68551c-1.35542,0.24154 -2.70885,0.49298 -4.04722,0.81338c-1.0526,0.252 -2.04618,0.72213 -3.10258,0.95776c-2.38626,0.53224 -4.84814,0.67548 -7.23502,1.20488c-1.58978,0.35261 -3.13767,0.88978 -4.73835,1.18903c-1.74335,0.32593 -19.64676,0.45552 -21.40562,0.68329c-10.98865,0.91987 -98.55014,0.08835 -109.57405,0.08835c-6.96684,0 -42.45053,0.50815 -49.33851,-0.67562c-2.58632,-0.44449 -5.13582,-1.08345 -7.71434,-1.57123c-5.54545,-1.04902 -11.31806,-1.91662 -16.77238,-3.40981c-0.47309,-0.12951 -0.92296,-0.29131 -1.35817,-0.47288c0,-13.96857 0,-42.87275 0,-46.9541z" fill="#ffaa55"/><path d="M11.84116,263.79493c0.43523,-0.18158 0.88509,-0.34337 1.35817,-0.47288c5.45433,-1.4932 11.22693,-2.36079 16.77238,-3.40981c2.57852,-0.48777 5.12802,-1.12674 7.71434,-1.57123c6.88799,-1.18377 42.37169,-0.67562 49.33851,-0.67562c11.0239,0 98.5854,-0.08133 109.57406,0.83854c1.75886,0.22776 19.66227,0.35735 21.40562,0.68328c1.60068,0.29925 3.14857,0.83642 4.73835,1.18903c2.38689,0.52941 4.84878,0.67264 7.23502,1.20488c1.0564,0.23562 2.04998,0.70577 3.10258,0.95776c1.33837,0.32042 2.69181,0.57184 4.04722,0.81338c0.01202,14.28791 0.02181,26.32657 0.02181,30.48916c0,1.45261 -0.6687,2.67315 -1.66443,3.68217c-1.06409,1.0783 -2.52032,1.89639 -4.53458,1.89639c-20.07371,0 -203.42513,-0.37509 -212.6698,-0.37509c-3.41689,0 -6.43928,-2.52914 -6.43928,-5.49221c0,-4.08135 0,-15.7892 0,-29.75775z" data-paper-data="{&quot;index&quot;:null}" fill="#553311"/><path d="M12.72979,290.32903c0,-17.99689 0,-201.35473 0,-211.52355c0,-2.81877 3.0224,-4.79039 6.43929,-4.79039c9.24467,0 192.59608,0.37509 212.6698,0.37509c2.01427,0 3.47049,0.77825 4.53458,1.80404c0.99573,0.95989 1.66443,2.95883 1.66443,4.34067c0,10.25249 -0.06563,192.88044 -0.06563,210.68186c0,3.08367 -2.77797,5.43177 -5.47708,5.43177c-10.26976,0 -194.79799,-0.37509 -213.92429,-0.37509c-3.4024,0 -5.84109,-2.77602 -5.84109,-5.9444z" fill="#995533"/></g></g></svg>