<svg version="1.1" xmlns="http://www.w3.org/2000/svg" xmlns:xlink="http://www.w3.org/1999/xlink" width="230.14186" height="230.14186" viewBox="0,0,230.14186,230.14186"><g transform="translate(-184.92917,-64.92911)"><g data-paper-data="{&quot;isPaintingLayer&quot;:true}" fill-rule="nonzero" stroke-linejoin="miter" stroke-miterlimit="10" stroke-dasharray="" stroke-dashoffset="0" style="mix-blend-mode: normal"><path d="M184.92918,295.07097v-230.14186h230.14186v230.14186z" fill="none" stroke="none" stroke-width="0" stroke-linecap="butt"/><g data-paper-data="{&quot;index&quot;:null}"><path d="M402.21536,225.07906c3.13577,14.38512 5.39422,39.87701 -20.2038,49.84864c-17.86454,6.95905 -63.14175,-14.52099 -83.84724,-15.67909c-34.65878,-1.93855 -66.84548,18.61561 -77.14368,17.56834c-20.07465,-2.04148 -24.5331,-33.8996 -25.05656,-49.62801c-0.93911,-28.21756 15.2267,-46.53908 33.78881,-46.98316c25.18632,-0.60252 39.3399,16.14548 70.82735,15.3205c21.68156,-0.56804 47.28559,-18.91209 66.5359,-14.97216c22.60516,4.62658 29.1903,17.41835 35.09918,44.5248z" fill="#000000" stroke="none" stroke-width="0.5" stroke-linecap="butt"/><g fill="#ffffff" stroke="#ff0000" stroke-width="0" stroke-linecap="round"><path d="M217.71565,192.3964c0,0 5.20639,-3.99383 8.29733,-4.6156c8.00925,-1.61117 13.56674,1.26972 13.56674,1.26972c0,0 -0.47282,26.40086 -4.41661,27.76952c-13.94375,2.0354 -17.44742,-24.42357 -17.44742,-24.42357z"/><path d="M265.48386,196.74611c0,0 -0.19512,24.30864 -9.0308,22.08274c-12.22605,-3.07998 -12.12029,-27.10152 -12.12029,-27.10152c0,0 4.34586,0.19287 6.83808,0.78422c3.90345,0.92626 14.313,4.23457 14.313,4.23457z"/><path d="M269.04868,197.08072c0,0 5.18088,1.98042 9.02862,2.38336c5.27796,0.55268 19.72734,0.62792 19.72734,0.62792c0,0 -0.78074,26.97126 -14.97213,25.09402c-14.15179,-1.87194 -13.78386,-28.10531 -13.78386,-28.10531z"/><path d="M320.13112,199.78682c4.36719,-0.36475 8.80602,-1.70238 8.80602,-1.70238c0,0 2.7092,26.861 -12.59561,27.10158c-16.96189,0.26668 -15.44742,-24.75943 -15.44742,-24.75943c0,0 14.32151,-0.22925 19.237,-0.63977z"/><path d="M332.02659,199.08826c0,0 7.05397,-3.98391 10.56823,-5.12184c4.26227,-1.38019 13.19705,-2.57369 13.19705,-2.57369c0,0 -0.20178,12.80374 -4.24752,20.2129c-3.19148,5.84469 -7.45175,6.39429 -10.01165,7.22321c-6.39261,2.06998 -9.5061,-19.74065 -9.5061,-19.74065z"/><path d="M360.07272,189.38399c0,0 9.01979,-1.63988 13.01025,-0.79719c3.93038,0.83004 9.08831,5.48265 9.08831,5.48265c0,0 -7.37861,20.07367 -21.11096,21.0765c-3.25563,0.23775 -0.9876,-25.76195 -0.9876,-25.76195z"/><path d="M211.53674,262.9944c0,0 10.31367,-15.31213 23.5894,-16.73938c7.8808,-0.84724 -0.53708,14.73181 -0.53708,14.73181c0,0 -8.39734,3.40799 -12.36943,3.75392c-3.69142,0.32147 -10.68291,-1.74637 -10.68291,-1.74637z"/><path d="M265.48389,253.62591c0,0 -5.32738,1.02339 -8.80002,1.58951c-3.98287,0.64934 -13.77702,2.09095 -13.77702,2.09095c0,0 2.91776,-15.46678 14.02151,-16.71431c9.91036,-1.11345 8.55553,13.03385 8.55553,13.03385z"/><path d="M284.25842,238.92043c15.06668,-0.04736 11.40732,12.36339 11.40732,12.36339l-23.0523,0.3346c0,0 -0.61305,-11.98673 11.64498,-12.69799z"/><path d="M303.50831,251.95306c0,0 -0.95248,-13.11709 11.83634,-12.36722c15.79705,0.92626 11.45362,12.70175 11.45362,12.70175l-23.28996,-0.3346z"/><path d="M332.97717,253.62598c0,0 3.38472,-12.88963 13.07088,-11.70051c11.15337,1.36928 10.6944,16.71935 10.6944,16.71935c0,0 -7.4319,-2.33907 -11.3899,-3.1749c-3.96377,-0.83713 -12.37534,-1.84394 -12.37534,-1.84394z"/><path d="M365.06037,261.32137c0,0 -6.05112,-15.36837 2.46292,-14.39976c8.51404,0.96863 20.5894,16.40732 20.5894,16.40732c0,0 -8.03141,2.0165 -12.11337,1.55208c-3.72852,-0.42421 -10.93898,-3.55959 -10.93898,-3.55959z"/></g><path d="M206.39145,206.11454c2.2538,-3.92328 5.28436,-9.72634 8.79467,-8.70841c4.8228,1.39853 7.00347,11.45343 12.82584,11.5021c7.13525,0.05964 14.65724,-5.35339 14.65724,-5.35339c0,0 7.13714,8.74451 12.75993,10.83029c5.62279,2.08576 12.06642,-5.36783 12.06642,-5.36783c0,0 8.60236,11.4978 16.87519,11.93607c6.13751,0.32516 13.11733,-11.45401 13.11733,-11.45401c0,0 13.28305,10.15391 18.51981,10.11567c5.71454,-0.04172 16.22984,-9.6128 16.22984,-9.6128c0,0 3.93484,5.01791 9.5752,3.89818c3.9839,-0.79087 14.85912,-8.67964 14.85912,-8.67964c0,0 6.12788,3.5923 9.10124,3.68745c5.82634,0.18642 22.0186,-9.7133 22.0186,4.23262c0,12.76609 -35.95825,13.19258 -42.51762,15.80301c-9.52565,3.79095 -34.58927,3.28509 -43.66441,0.51981c-2.81678,-0.85828 -13.05366,10.12181 -19.48988,8.4339c-10.87567,-2.85212 -23.37062,-15.90827 -35.03137,-16.50906c-8.33895,-0.42964 -35.60418,15.27838 -39.08115,-9.19755z" fill-opacity="0.22353" fill="#000000" stroke="none" stroke-width="0.5" stroke-linecap="butt"/><path d="M205.44085,255.96804c1.91478,-4.71761 3.19144,0.37542 7.04725,-0.93192c10.83932,-3.67516 72.42785,-7.15299 85.49807,-6.90188c37.97913,0.72969 79.73404,6.76727 88.70518,8.45422c0.7485,0.14075 -0.16704,-7.73229 0.08227,-7.55679c10.54615,7.42387 -1.26593,22.78027 -7.11603,23.70368c-17.55934,2.7717 -40.04307,-5.79753 -57.23752,-9.70303c-18.30245,-4.15716 -24.81804,-0.92267 -53.3797,-0.82412c-16.07654,0.05549 -27.74986,6.01741 -45.62101,5.01881c-2.12739,-0.11887 -13.25996,0.36651 -14.74242,-3.28593z" fill-opacity="0.22353" fill="#000000" stroke="none" stroke-width="0.5" stroke-linecap="butt"/></g></g></g></svg>