<svg version="1.1" xmlns="http://www.w3.org/2000/svg" xmlns:xlink="http://www.w3.org/1999/xlink" width="254.37081" height="254.37081" viewBox="0,0,254.37081,254.37081"><defs><radialGradient cx="300" cy="180" r="127.18541" gradientUnits="userSpaceOnUse" id="color-1"><stop offset="0" stop-color="#000000" stop-opacity="0"/><stop offset="1" stop-color="#000000" stop-opacity="0"/></radialGradient></defs><g transform="translate(-172.81459,-52.81459)"><g data-paper-data="{&quot;isPaintingLayer&quot;:true}" fill-rule="nonzero" stroke="#000000" stroke-width="0" stroke-linecap="butt" stroke-linejoin="miter" stroke-miterlimit="10" stroke-dasharray="" stroke-dashoffset="0" style="mix-blend-mode: normal"><path d="M274.77437,188.94651c-2.97866,-2.70257 -9.61836,-8.63149 -20.8516,-8.78703c-12.13934,-0.16809 -20.42629,6.51813 -23.25697,8.85404c3.35909,-9.62054 12.78891,-16.25109 23.46375,-15.61152c9.66627,0.57915 17.6072,6.955 20.64482,15.54451z" data-paper-data="{&quot;index&quot;:null}" fill="#000000"/><path d="M348.68937,174.31393c9.66627,0.57914 17.60721,6.95499 20.64483,15.5445c-2.97867,-2.70257 -9.61837,-8.63148 -20.85161,-8.78702c-12.13933,-0.16809 -20.42629,6.51813 -23.25697,8.85404c3.35909,-9.62054 12.78891,-16.25108 23.46375,-15.61151z" data-paper-data="{&quot;index&quot;:null}" fill="#000000"/><path d="M172.8146,180c0,-70.24256 56.94284,-127.1854 127.18541,-127.1854c70.24257,0 127.18541,56.94284 127.18541,127.18541c0,70.24256 -56.94284,127.18541 -127.1854,127.18541c-70.24256,0 -127.1854,-56.94285 -127.1854,-127.1854z" fill="url(#color-1)"/></g></g></svg>