<svg version="1.1" xmlns="http://www.w3.org/2000/svg" xmlns:xlink="http://www.w3.org/1999/xlink" width="254.37081" height="254.37081" viewBox="0,0,254.37081,254.37081"><defs><radialGradient cx="300" cy="180" r="127.18541" gradientUnits="userSpaceOnUse" id="color-1"><stop offset="0" stop-color="#000000" stop-opacity="0"/><stop offset="1" stop-color="#000000" stop-opacity="0"/></radialGradient></defs><g transform="translate(-172.81459,-52.81459)"><g data-paper-data="{&quot;isPaintingLayer&quot;:true}" fill-rule="nonzero" stroke="#000000" stroke-width="0" stroke-linecap="butt" stroke-linejoin="miter" stroke-miterlimit="10" stroke-dasharray="" stroke-dashoffset="0" style="mix-blend-mode: normal"><g><path d="M232.67448,151.77626c13.4038,0.03327 26.80845,0.19839 40.21137,0.17264c1.97455,3.0068 3.30375,6.50333 3.7665,10.31636c0.16422,1.35319 0.21295,2.69377 0.15394,4.01188c-16.05702,-0.04151 -32.11397,-0.06286 -48.1707,-0.02081c-0.2446,-5.29656 1.26113,-10.32674 4.03889,-14.48007z" fill="#000000"/><path d="" fill="#000000"/><path d="M236.03647,158.05164c-0.29903,-2.46397 0.72015,-4.78412 2.50355,-6.25341c2.98611,0.01445 5.97224,0.03311 8.95837,0.05241c1.30874,1.10127 2.21956,2.68171 2.44188,4.51364c0.46595,3.83943 -2.26879,7.32963 -6.10822,7.79558c-3.83943,0.46595 -7.32963,-2.26879 -7.79558,-6.10822z" fill="#ffffff"/></g><g><path d="M327.24589,151.75894c13.3479,0.05895 26.6965,0.0145 40.04514,-0.04257c2.05979,3.05851 3.44641,6.63715 3.92114,10.54888c0.17047,1.40466 0.21649,2.79574 0.14674,4.16219c-16.05174,0.04599 -32.10368,0.02728 -48.15567,-0.01292c-0.28266,-5.36193 1.22982,-10.45762 4.04266,-14.65558z" fill="#000000"/><path d="" fill="#000000"/><path d="M330.59628,158.05164c-0.30037,-2.47503 0.72933,-4.80494 2.5276,-6.27313c2.95231,0.00676 5.90466,0.00911 8.85702,0.00803c1.35012,1.10361 2.2925,2.70996 2.51918,4.57774c0.46595,3.83943 -2.26878,7.32963 -6.10821,7.79558c-3.83943,0.46595 -7.32963,-2.26879 -7.79559,-6.10822z" fill="#ffffff"/></g><path d="M172.8146,180c0,-70.24256 56.94284,-127.1854 127.18541,-127.1854c70.24257,0 127.18541,56.94284 127.18541,127.18541c0,70.24256 -56.94284,127.18541 -127.1854,127.18541c-70.24256,0 -127.1854,-56.94285 -127.1854,-127.1854z" fill="url(#color-1)"/></g></g></svg>