<svg version="1.1" xmlns="http://www.w3.org/2000/svg" xmlns:xlink="http://www.w3.org/1999/xlink" width="464.08579" height="424.81525" viewBox="0,0,464.08579,424.81525"><defs><radialGradient cx="478.22594" cy="207.31788" r="51.61042" gradientUnits="userSpaceOnUse" id="color-1"><stop offset="0" stop-color="#ff2ec7" stop-opacity="0.51373"/><stop offset="1" stop-color="#ff2ec7" stop-opacity="0"/></radialGradient><radialGradient cx="110.61848" cy="216.15805" r="44.86791" gradientUnits="userSpaceOnUse" id="color-2"><stop offset="0" stop-color="#ff2ec7" stop-opacity="0.51373"/><stop offset="1" stop-color="#ff2ec7" stop-opacity="0"/></radialGradient><radialGradient cx="295.23305" cy="266.56789" r="114.62257" gradientUnits="userSpaceOnUse" id="color-3"><stop offset="0" stop-color="#ff2dc8"/><stop offset="1" stop-color="#ff2dc8" stop-opacity="0"/></radialGradient><radialGradient cx="392.75856" cy="271.14316" r="97.52551" gradientUnits="userSpaceOnUse" id="color-4"><stop offset="0" stop-color="#ff2dc8"/><stop offset="1" stop-color="#ff2dc8" stop-opacity="0"/></radialGradient><radialGradient cx="216.81291" cy="264.72334" r="101.37837" gradientUnits="userSpaceOnUse" id="color-5"><stop offset="0" stop-color="#ff2dc8"/><stop offset="1" stop-color="#ff2dc8" stop-opacity="0"/></radialGradient><radialGradient cx="299.99998" cy="162.43095" r="206.05574" gradientUnits="userSpaceOnUse" id="color-6"><stop offset="0" stop-color="#ff15c1"/><stop offset="1" stop-color="#ff15c1" stop-opacity="0"/></radialGradient><radialGradient cx="300" cy="162.43094" r="180.74582" gradientUnits="userSpaceOnUse" id="color-7"><stop offset="0" stop-color="#ff95e3"/><stop offset="1" stop-color="#ff95e3" stop-opacity="0"/></radialGradient><radialGradient cx="300" cy="122.99699" r="161.48828" gradientUnits="userSpaceOnUse" id="color-8"><stop offset="0" stop-color="#ff95e3"/><stop offset="1" stop-color="#ff95e3" stop-opacity="0"/></radialGradient><radialGradient cx="299.99998" cy="162.43095" r="180.74582" gradientUnits="userSpaceOnUse" id="color-9"><stop offset="0" stop-color="#ff15c1"/><stop offset="1" stop-color="#ff15c1" stop-opacity="0"/></radialGradient></defs><g transform="translate(-65.75057,43.62479)"><g data-paper-data="{&quot;isPaintingLayer&quot;:true}" fill-rule="nonzero" stroke-linejoin="miter" stroke-miterlimit="10" stroke-dasharray="" stroke-dashoffset="0" style="mix-blend-mode: normal"><g stroke-width="0"><path d="M426.61552,207.31788c0,-28.50364 23.10677,-51.61042 51.61042,-51.61042c28.50364,0 51.61042,23.10677 51.61042,51.61042c0,28.50364 -23.10678,51.61042 -51.61042,51.61042c-28.50364,0 -51.61042,-23.10678 -51.61042,-51.61042z" fill="url(#color-1)" stroke="#000000" stroke-linecap="butt"/><path d="M65.75057,216.15805c0,-24.77986 20.08805,-44.86791 44.86791,-44.86791c24.77986,0 44.86791,20.08805 44.86791,44.86791c0,24.77986 -20.08805,44.86791 -44.86791,44.86791c-24.77986,0 -44.86791,-20.08805 -44.86791,-44.86791z" fill="url(#color-2)" stroke="#000000" stroke-linecap="butt"/><path d="M180.61049,266.56789c0,-63.3043 51.31827,-114.62257 114.62257,-114.62257c63.3043,0 114.62257,51.31827 114.62257,114.62257c0,63.3043 -51.31827,114.62257 -114.62257,114.62257c-63.3043,0 -114.62257,-51.31827 -114.62257,-114.62257z" fill="url(#color-3)" stroke="#000000" stroke-linecap="butt"/><path d="M295.23305,271.14316c0,-53.86185 43.66366,-97.52551 97.52551,-97.52551c53.86185,0 97.52551,43.66366 97.52551,97.52551c0,53.86185 -43.66366,97.52551 -97.52551,97.52551c-53.86185,0 -97.52551,-43.66366 -97.52551,-97.52551z" fill="url(#color-4)" stroke="#000000" stroke-linecap="butt"/><path d="M115.43455,264.72334c0,-55.98972 45.38864,-101.37837 101.37837,-101.37837c55.98972,0 101.37837,45.38864 101.37837,101.37837c0,55.98972 -45.38864,101.37837 -101.37837,101.37837c-55.98972,0 -101.37837,-45.38864 -101.37837,-101.37837z" fill="url(#color-5)" stroke="#000000" stroke-linecap="butt"/><g fill="#ff8ae0" stroke-linecap="round"><path d="M189.86702,270.9455c0,0 -3.70324,-11.11691 -4.47941,-17.32623c-0.76612,-6.12901 -0.14785,-19.69189 -0.14785,-19.69189c0,0 12.55584,10.91129 19.96979,15.08164c7.7574,4.36353 25.59096,10.54628 25.59096,10.54628c0,0 5.23443,-27.74664 8.62662,-40.64906c3.24561,-12.34494 11.30622,-35.16689 11.30622,-35.16689c0,0 23.72342,26.80412 35.68825,38.70883c11.63697,11.57849 35.14448,31.76796 35.14448,31.76796c0,0 15.93663,-18.36625 22.25337,-29.01115c6.4924,-10.94088 16.18851,-35.77055 16.18851,-35.77055c0,0 14.52799,28.34454 19.37109,40.09714c3.79996,9.22125 7.32466,24.68456 7.32466,24.68456c0,0 13.8564,-6.46817 21.31595,-11.29164c8.24235,-5.32965 26.02452,-19.3195 26.02452,-19.3195l-6.05104,59.79849c0,0 12.69768,-6.42016 19.21593,-11.04131c8.72689,-6.18697 29.54832,-24.19709 29.54832,-24.19709l-20.64472,36.66217c0,0 4.65209,0.66371 6.80831,0.44255c2.43667,-0.2499 7.07348,-1.86633 7.07348,-1.86633c0,0 -8.37362,15.15532 -22.38717,20.38859c-6.58659,2.45972 -18.76403,6.50118 -31.6853,8.63053c-15.64124,2.57757 -31.70989,3.0158 -31.70989,3.0158l12.10207,4.62726c0,0 -58.60258,10.5966 -105.02258,10.73307c-56.15499,0.16508 -86.11903,-13.22468 -86.11903,-13.22468l9.96642,-4.27132c0,0 -27.654,0.88779 -48.37509,-7.90016c-13.35269,-5.66296 -28.15274,-30.54173 -28.15274,-30.54173c0,0 13.77549,8.00971 19.74925,10.6433c4.80313,2.11751 13.35349,3.95039 13.35349,3.95039c0,0 -6.62175,-8.97212 -10.20381,-15.90661c-5.11485,-9.90183 -17.55977,-37.84085 -17.55977,-37.84085z" stroke="none"/><path d="M89.84692,189.43445c0,0 15.6667,12.71858 22.01177,17.23208c4.57288,3.25288 12.51473,7.32802 12.51473,7.32802c0,0 -3.24643,7.50397 -2.66184,12.39325c0.69973,5.85226 6.57723,20.35353 6.57723,20.35353c0,0 -4.07856,-2.52868 -8.63704,-7.70513c-4.68646,-5.32177 -9.90044,-13.36097 -13.21715,-18.30532c-6.25847,-9.32977 -16.5877,-31.29644 -16.5877,-31.29644z" stroke="#000000"/><path d="M449.70568,232.14767c0,0 4.8419,-12.70843 11.68751,-20.69498c3.40079,-3.96758 16.86317,-6.86023 20.91259,-12.56916c7.69066,-10.84242 18.65576,-26.53435 18.65576,-26.53435c0,0 -7.18422,28.8761 -10.79467,38.85407c-2.48432,6.86574 -8.78222,15.24932 -8.78222,15.24932c0,0 -6.91467,-4.48801 -11.75658,-3.61755c-5.60552,1.00773 -19.92239,9.31264 -19.92239,9.31264z" stroke="#000000"/></g><path d="M195.51347,276.90306c0,0 -5.42336,-15.86189 -6.21048,-21.97946c-0.59333,-4.61146 -0.30142,-11.18681 -0.30142,-11.18681c0,0 13.26893,9.95242 20.45749,13.92563c6.70307,3.70487 25.09769,10.73928 25.09769,10.73928c0,0 5.25977,-27.02149 8.34918,-39.37917c2.87802,-11.51209 9.59813,-32.41007 9.59813,-32.41007c0,0 21.34406,23.69403 32.52512,34.79151c11.0224,10.94001 37.87045,33.21692 37.87045,33.21692c0,0 14.0145,-16.34667 20.05051,-25.92181c6.44642,-10.22619 17.47783,-33.61078 17.47783,-33.61078c0,0 9.39826,17.87331 13.25876,27.46919c3.79305,9.42826 9.70548,29.61209 9.70548,29.61209c0,0 12.99839,-4.91476 19.4839,-8.4199c7.71181,-4.1679 23.74836,-14.94529 23.74836,-14.94529c0,0 -9.88508,39.79663 -4.40811,49.74869c1.46021,2.65331 4.76342,2.07285 7.89944,1.64168c8.62662,-1.18606 20.75329,-11.71735 20.75329,-11.71735l-0.31487,16.68785c0,0 -5.43825,2.38594 -14.17385,4.371c-18.22025,4.14032 -47.62043,9.70141 -49.74378,10.42766c-6.62708,2.2667 -8.18649,7.55676 -8.18649,7.55676c0,0 -63.18445,8.94447 -90.41937,7.43653c-43.20965,-2.39242 -67.64292,-10.58518 -67.64292,-10.58518c0,0 6.25741,-2.58731 -8.50136,-6.92703c-14.75877,-4.33972 -15.62408,-1.02244 -26.19547,-3.27535c-7.7344,-1.64831 -15.99645,-7.74493 -15.99645,-7.74493c0,0 6.49555,-3.75608 5.30792,-9.38441c-1.22516,-5.80624 -9.0863,-23.36156 -9.0863,-23.36156c0,0 10.89797,6.17171 15.79068,8.58995c4.09605,2.02448 13.80664,4.63439 13.80664,4.63439z" fill="#ffdaf5" stroke="#000000" stroke-linecap="round"/><path d="M483.30018,207.31788l-2.83378,7.55676l-8.50136,-0.62973z" fill="#ffdaf5" stroke="#000000" stroke-linecap="round"/></g><g><path d="M93.94427,162.43095c0,-113.80145 92.25428,-206.05574 206.05573,-206.05574c113.80145,0 206.05574,92.25429 206.05574,206.05574c0,113.80145 -92.25429,206.05573 -206.05574,206.05573c-113.80145,0 -206.05573,-92.25429 -206.05573,-206.05573z" fill="url(#color-6)" stroke="none" stroke-width="0" stroke-linecap="butt"/><path d="M119.25418,162.43094c0,-99.82316 80.92266,-180.74582 180.74582,-180.74582c99.82316,0 180.74582,80.92266 180.74582,180.74582c0,99.82316 -80.92266,180.74582 -180.74582,180.74582c-99.82316,0 -180.74582,-80.92266 -180.74582,-180.74582z" fill="url(#color-7)" stroke="none" stroke-width="0" stroke-linecap="butt"/><path d="M138.51173,122.99699c0,-89.18751 72.30076,-161.48828 161.48828,-161.48828c89.18751,0 161.48828,72.30076 161.48828,161.48828c0,89.18751 -72.30076,161.48828 -161.48828,161.48828c-89.18751,0 -161.48828,-72.30076 -161.48828,-161.48828z" fill="url(#color-8)" stroke="none" stroke-width="0" stroke-linecap="butt"/><path d="M119.25418,162.43095c0,-99.82316 80.92265,-180.74582 180.74581,-180.74582c99.82316,0 180.74582,80.92266 180.74582,180.74582c0,99.82316 -80.92266,180.74581 -180.74582,180.74581c-99.82316,0 -180.74581,-80.92266 -180.74581,-180.74581z" fill="url(#color-9)" stroke="none" stroke-width="0" stroke-linecap="butt"/><g><g stroke-linecap="round"><path d="M179.54235,51.71005c7.57587,-8.4378 6.45829,-17.3482 6.45829,-17.3482c0,0 1.33574,-1.3768 2.06723,-1.9907c0.72638,-0.60961 2.30652,-1.68002 2.30652,-1.68002c0,0 4.86123,16.38567 19.31821,21.36247c2.94091,1.0124 9.16503,2.74891 13.18588,0.95372c4.8047,-2.14516 7.20392,-8.0026 7.20392,-8.0026c0,0 12.76919,-3.53017 23.74122,-11.1433c11.46766,-7.95703 15.92546,-16.73762 15.92546,-16.73762c0,0 6.46392,-4.16829 9.42088,-8.2903c2.26753,-3.16096 5.36457,-11.99805 8.09339,-17.05883c2.14077,-3.9702 4.24913,-4.69858 4.24913,-4.69858c0,0 9.23673,15.03375 13.88786,20.69379c3.89625,4.74141 12.15747,11.00124 12.15747,11.00124c0,0 1.23231,7.30971 6.12722,10.77016c4.73632,3.34831 13.25786,3.1403 13.25786,3.1403c0,0 13.56926,16.48144 36.31923,15.37446c3.98082,-0.1937 8.35506,-3.6169 12.0274,-10.2436c1.84237,-3.32454 1.98405,-10.20238 3.24646,-13.66489c1.83853,-5.04273 4.71238,-6.16746 4.71238,-6.16746c0,0 1.99047,8.72552 5.18785,13.85541c3.16034,5.07045 10.1249,8.30171 10.1249,8.30171c0,0 1.10905,9.078 2.69173,12.0626c3.10407,5.85367 8.72342,8.95148 8.72342,8.95148c0,0 -3.16269,27.68062 7.86767,39.26343c14.62802,15.36067 20.0204,-1.80674 20.0204,-1.80674c0,0 10.07696,18.17074 6.08908,54.23506c-4.17276,37.73637 -17.75545,89.73808 -52.35154,123.10002c-14.33377,13.82244 -32.47704,23.47138 -54.65992,28.96036c-13.47606,3.33453 -28.44928,5.46243 -44.94672,5.11154c-81.43241,-1.73208 -122.57616,-45.25965 -141.33951,-92.19393c-16.07099,-40.19969 -15.13358,-79.59865 -15.13358,-79.59865c0,0 6.22011,3.25406 8.17385,3.87146c2.40956,0.76144 6.22129,0.89759 6.22129,0.89759c0,0 0.17,-17.96913 -0.17424,-26.72549c-0.33589,-8.54383 -1.86675,-25.19076 -1.86675,-25.19076c0,0 4.01085,-7.12869 5.16848,-11.61152c1.4042,-5.43766 2.66073,-18.70655 2.66073,-18.70655c0,0 6.91976,-1.34295 13.83685,-9.04701z" fill="#ff2dc8" stroke="#ff3ecc" stroke-width="2.5"/><path d="M170.17589,145.39138c0,0 -3.08954,-33.64377 0.18854,-53.61356c0.91003,-5.54384 4.98933,-9.44063 4.98933,-9.44063l-0.13341,-9.56739c0,0 7.45386,-5.74685 10.36304,-9.65057c2.851,-3.82566 6.92106,-13.54226 6.92106,-13.54226c0,0 8.45444,15.21527 25.55019,14.98536c21.41334,-0.28798 23.37143,-14.87467 23.37143,-14.87467c0,0 11.15704,-0.74401 16.56222,-4.79319c4.06969,-3.04872 9.97649,-11.21055 14.92874,-17.07068c3.59462,-4.25358 7.0821,-7.03241 7.0821,-7.03241c0,0 4.48189,-1.25598 6.38784,-3.02132c2.27072,-2.10323 6.33479,-8.76282 6.33479,-8.76282c0,0 3.56197,1.1026 6.73354,3.95138c3.25148,2.92056 6.13164,7.61682 7.55511,9.93329c0.88738,1.44408 0.73271,6.5758 4.65435,10.82234c2.15994,2.33887 16.73693,8.35944 31.31185,15.31177c10.60303,5.0577 20.18687,11.70136 29.96051,12.44183c5.47691,0.41495 8.21294,-5.35228 11.76547,-8.57299c5.59163,-5.06932 10.48272,-8.64717 10.48272,-8.64717c0,0 2.55859,8.83763 4.4457,12.52878c1.97354,3.86018 7.14787,10.14794 7.14787,10.14794c0,0 1.87855,23.87057 6.78476,32.49161c2.28787,4.02017 7.03736,12.91189 11.87574,15.92226c8.44212,5.25259 17.60282,3.06178 17.60282,3.06178c0,0 2.74072,38.15814 -8.06518,79.44401c-13.99019,53.45208 -49.27219,113.0472 -127.92379,111.20562c-149.69338,-3.50498 -150.166,-164.87599 -150.166,-164.87599c0,0 4.49101,1.62126 6.57485,1.8122c2.32025,0.21261 6.71376,-0.59452 6.71376,-0.59452z" fill="#ff95e3" stroke="#ff0000" stroke-width="0"/><path d="M191.88379,70.65049c0,0 9.1668,7.38833 16.96803,4.65152c4.8679,-1.70775 16.17883,-7.20617 23.9596,-12.75144c6.80561,-4.8503 10.47884,-9.93439 10.47884,-9.93439c0,0 19.0213,-3.05872 28.2633,-7.99997c6.11294,-3.2683 21.79317,-18.7629 21.79317,-18.7629c0,0 3.88047,13.45446 12.71266,17.58071c7.92364,3.70179 19.84614,1.65548 30.53986,4.94905c20.6837,6.37043 40.69546,17.32874 45.79469,20.63002c3.82348,2.47535 8.4773,-4.32151 8.4773,-4.32151c0,0 5.36082,5.5188 6.37854,8.56451c2.3243,6.95592 1.00153,12.06701 1.00153,12.06701c0,0 12.03829,14.77589 16.72085,22.45558c4.50894,7.39493 10.87332,22.80054 10.87332,22.80054c0,0 1.87816,0.47821 2.8418,0.58547c0.99387,0.11062 3.02321,0.60567 3.02321,0.60567c0,0 0.49587,6.35294 1.2812,16.53684c1.52821,19.81717 1.95029,53.55975 -13.56428,83.45532c-11.56262,22.2804 -33.76665,44.97712 -56.33272,58.19767c-21.02077,12.31525 -42.10245,15.9863 -61.86081,14.54095c-112.54652,-8.23292 -133.36659,-80.50054 -129.88052,-142.5469c0.56849,-10.11828 2.84204,-19.94372 4.41093,-29.19633c6.00017,-35.38624 16.11953,-62.10743 16.11953,-62.10743z" fill="#ffdaf5" stroke="#ffff00" stroke-width="0"/></g><path d="M174.59514,175.93258c0,-69.6284 56.14374,-126.0734 125.40053,-126.0734c69.25681,0 125.40054,56.44498 125.40054,126.0734c0,69.62841 -56.14375,126.07341 -125.40054,126.07341c-69.25681,0 -125.40053,-56.44499 -125.40053,-126.07341z" fill="#fffef3" stroke="#000000" stroke-width="0" stroke-linecap="butt"/><path d="M187.04545,180c0,-62.38307 50.57147,-112.95455 112.95455,-112.95455c62.38308,0 112.95455,50.57147 112.95455,112.95455c0,62.38307 -50.57148,112.95455 -112.95455,112.95455c-62.38307,0 -112.95455,-50.57148 -112.95455,-112.95455z" fill="#12040f" stroke="#000000" stroke-width="0" stroke-linecap="butt"/></g></g></g></g></svg>