<svg version="1.1" xmlns="http://www.w3.org/2000/svg" xmlns:xlink="http://www.w3.org/1999/xlink" width="254.37081" height="254.37081" viewBox="0,0,254.37081,254.37081"><defs><radialGradient cx="264.89509" cy="180.6891" r="30.20698" gradientUnits="userSpaceOnUse" id="color-1"><stop offset="0" stop-color="#0f0f0f"/><stop offset="1" stop-color="#000000"/></radialGradient><radialGradient cx="359.27017" cy="180.68911" r="30.20697" gradientUnits="userSpaceOnUse" id="color-2"><stop offset="0" stop-color="#0f0f0f"/><stop offset="1" stop-color="#000000"/></radialGradient><radialGradient cx="300" cy="180" r="127.18541" gradientUnits="userSpaceOnUse" id="color-3"><stop offset="0" stop-color="#000000" stop-opacity="0"/><stop offset="1" stop-color="#000000" stop-opacity="0"/></radialGradient></defs><g transform="translate(-172.81459,-52.81459)"><g data-paper-data="{&quot;isPaintingLayer&quot;:true}" fill-rule="nonzero" stroke="#000000" stroke-width="0" stroke-linecap="butt" stroke-linejoin="miter" stroke-miterlimit="10" stroke-dasharray="" stroke-dashoffset="0" style="mix-blend-mode: normal"><g><path d="M222.9209,168.80849c-2.00967,-16.55966 9.78541,-31.6131 26.3451,-33.62277c16.55966,-2.00967 31.6131,9.78541 33.62277,26.3451c2.00967,16.55966 -9.78541,31.6131 -26.3451,33.62277c-16.55966,2.00967 -31.6131,-9.78541 -33.62277,-26.3451z" fill="url(#color-1)"/><path d="M230.74335,159.20983c-0.89105,-7.3423 4.3387,-14.01675 11.681,-14.9078c7.3423,-0.89105 14.01675,4.3387 14.9078,11.681c0.89105,7.3423 -4.3387,14.01675 -11.681,14.9078c-7.3423,0.89105 -14.01675,-4.3387 -14.9078,-11.681z" fill="#ffffff"/><path d="M255.65324,188.15743c-3.00454,-2.33474 -1.70218,-7.87963 2.9089,-12.38485c4.61108,-4.50522 10.78476,-6.26475 13.7893,-3.93c3.00454,2.33474 1.70218,7.87963 -2.9089,12.38485c-4.61108,4.50522 -10.78476,6.26475 -13.7893,3.93z" fill-opacity="0.07843" fill="#ffffff"/></g><g><path d="M317.29597,168.80849c-2.00967,-16.55966 9.78542,-31.6131 26.3451,-33.62278c16.55966,-2.00967 31.6131,9.78542 33.62277,26.3451c2.00968,16.55966 -9.78541,31.6131 -26.3451,33.62278c-16.55966,2.00967 -31.6131,-9.78541 -33.62277,-26.3451z" fill="url(#color-2)"/><path d="M325.11843,159.20983c-0.89106,-7.3423 4.3387,-14.01675 11.68099,-14.9078c7.3423,-0.89105 14.01675,4.3387 14.9078,11.68099c0.89105,7.3423 -4.3387,14.01675 -11.681,14.9078c-7.3423,0.89105 -14.01675,-4.3387 -14.9078,-11.68099z" fill="#ffffff"/><path d="M350.02831,188.15743c-3.00454,-2.33474 -1.70219,-7.87963 2.9089,-12.38485c4.61109,-4.50522 10.78476,-6.26474 13.78931,-3.93c3.00454,2.33474 1.70218,7.87963 -2.90891,12.38485c-4.61109,4.50522 -10.78476,6.26474 -13.7893,3.93z" fill-opacity="0.07843" fill="#ffffff"/></g><path d="M172.8146,180c0,-70.24256 56.94284,-127.1854 127.18541,-127.1854c70.24257,0 127.18541,56.94284 127.18541,127.18541c0,70.24256 -56.94284,127.18541 -127.1854,127.18541c-70.24256,0 -127.1854,-56.94285 -127.1854,-127.1854z" fill="url(#color-3)"/></g></g></svg>