<svg version="1.1" xmlns="http://www.w3.org/2000/svg" xmlns:xlink="http://www.w3.org/1999/xlink" width="352.09004" height="371.7417" viewBox="0,0,352.09004,371.7417"><defs><radialGradient cx="300" cy="124.02258" r="157.28832" gradientUnits="userSpaceOnUse" id="color-1"><stop offset="0" stop-color="#ffc400" stop-opacity="0.83137"/><stop offset="1" stop-color="#ffc400" stop-opacity="0"/></radialGradient><radialGradient cx="301.60771" cy="162.43095" r="176.04502" gradientUnits="userSpaceOnUse" id="color-2"><stop offset="0" stop-color="#ffdd00"/><stop offset="1" stop-color="#ffdd00" stop-opacity="0"/></radialGradient><radialGradient cx="301.60772" cy="162.43094" r="176.04502" gradientUnits="userSpaceOnUse" id="color-3"><stop offset="0" stop-color="#ffdd00"/><stop offset="1" stop-color="#ffdd00" stop-opacity="0"/></radialGradient></defs><g transform="translate(-125.5627,33.26574)"><g data-paper-data="{&quot;isPaintingLayer&quot;:true}" fill-rule="nonzero" stroke-linejoin="miter" stroke-miterlimit="10" stroke-dasharray="" stroke-dashoffset="0" style="mix-blend-mode: normal"><path d="M142.71168,124.02258c0,-86.86794 70.42038,-157.28832 157.28832,-157.28832c86.86794,0 157.28832,70.42038 157.28832,157.28832c0,86.86794 -70.42038,157.28832 -157.28832,157.28832c-86.86794,0 -157.28832,-70.42038 -157.28832,-157.28832z" fill="url(#color-1)" stroke="none" stroke-width="0" stroke-linecap="butt"/><path d="M125.5627,162.43095c0,-97.22698 78.81803,-176.04502 176.04501,-176.04502c97.22698,0 176.04502,78.81804 176.04502,176.04502c0,97.22698 -78.81804,176.04501 -176.04502,176.04501c-97.22698,0 -176.04501,-78.81804 -176.04501,-176.04501z" fill="url(#color-2)" stroke="none" stroke-width="0" stroke-linecap="butt"/><path d="M125.5627,162.43094c0,-97.22698 78.81804,-176.04502 176.04502,-176.04502c97.22698,0 176.04502,78.81804 176.04502,176.04502c0,97.22698 -78.81804,176.04502 -176.04502,176.04502c-97.22698,0 -176.04502,-78.81804 -176.04502,-176.04502z" fill="url(#color-3)" stroke="none" stroke-width="0" stroke-linecap="butt"/><g stroke-linecap="round"><path d="M185.18324,62.22237c7.22136,-8.00003 6.15607,-16.44814 6.15607,-16.44814c0,0 1.27323,-1.30537 1.9705,-1.88742c0.69239,-0.57799 2.19859,-1.59286 2.19859,-1.59286c0,0 4.63375,15.53555 18.41423,20.25415c2.80329,0.95988 8.73616,2.60629 12.56885,0.90424c4.57987,-2.03387 6.86681,-7.58741 6.86681,-7.58741c0,0 12.17166,-3.34702 22.63026,-10.56517c10.93104,-7.54421 15.18023,-15.86924 15.18023,-15.86924c0,0 6.16145,-3.95203 8.98003,-7.86019c2.16143,-2.99696 5.11354,-11.37557 7.71467,-16.17379c2.04059,-3.76422 4.05029,-4.45481 4.05029,-4.45481c0,0 8.8045,14.25378 13.23799,19.62016c3.71393,4.49542 11.58857,10.43047 11.58857,10.43047c0,0 1.17464,6.93047 5.8405,10.21138c4.51469,3.1746 12.63746,2.97738 12.63746,2.97738c0,0 12.93429,15.62635 34.6197,14.5768c3.79454,-0.18365 7.96409,-3.42925 11.46458,-9.71215c1.75615,-3.15206 1.89121,-9.67306 3.09455,-12.95594c1.75249,-4.7811 4.49187,-5.84748 4.49187,-5.84748c0,0 1.89732,8.27283 4.94509,13.13657c3.01246,4.80739 9.65111,7.871 9.65111,7.871c0,0 1.05716,8.60702 2.56577,11.43677c2.95882,5.54997 8.31521,8.48706 8.31521,8.48706c0,0 -3.0147,26.2445 7.49951,37.22637c13.94351,14.56373 19.08355,-1.713 19.08355,-1.713c0,0 9.60541,17.22801 5.80415,51.42125c-3.9775,35.77854 -16.92459,85.08231 -49.90178,116.71338c-13.66303,13.10531 -30.95729,22.25364 -52.10214,27.45784c-12.84546,3.16153 -27.11802,5.17903 -42.84346,4.84634c-77.62182,-1.64221 -116.84027,-42.9115 -134.72561,-87.41075c-15.31896,-38.11406 -14.42541,-75.46893 -14.42541,-75.46893c0,0 5.92904,3.08523 7.79136,3.6706c2.2968,0.72194 5.93017,0.85103 5.93017,0.85103c0,0 0.16205,-17.03686 -0.16609,-25.33893c-0.32017,-8.10056 -1.7794,-23.88382 -1.7794,-23.88382c0,0 3.82317,-6.75884 4.92662,-11.00909c1.33849,-5.15555 2.53622,-17.73602 2.53622,-17.73602c0,0 6.59595,-1.27327 13.18936,-8.57764z" fill="#fbac00" stroke="#ffba00" stroke-width="2.5"/><path d="M176.25508,151.04334c0,0 -2.94497,-31.89827 0.17972,-50.832c0.86744,-5.25622 4.75586,-8.95083 4.75586,-8.95083l-0.12717,-9.07101c0,0 7.10506,-5.4487 9.87811,-9.14988c2.71759,-3.62718 6.59719,-12.83967 6.59719,-12.83967c0,0 8.05882,14.42587 24.35459,14.20789c20.41132,-0.27304 22.27778,-14.10294 22.27778,-14.10294c0,0 10.63495,-0.70541 15.7872,-4.54451c3.87925,-2.89055 9.50964,-10.62893 14.23016,-16.18502c3.42641,-4.03289 6.7507,-6.66755 6.7507,-6.66755c0,0 4.27217,-1.19081 6.08893,-2.86457c2.16446,-1.99411 6.03836,-8.30819 6.03836,-8.30819c0,0 3.39529,1.04539 6.41845,3.74637c3.09933,2.76903 5.84471,7.22164 7.20157,9.41794c0.84585,1.36916 0.69842,6.23464 4.43655,10.26085c2.05886,2.21752 15.95374,7.92574 29.84663,14.51736c10.10687,4.7953 19.24223,11.09427 28.55852,11.79633c5.22062,0.39342 7.82862,-5.0746 11.21492,-8.12821c5.32997,-4.80632 9.99219,-8.19854 9.99219,-8.19854c0,0 2.43887,8.37912 4.23767,11.87876c1.88119,3.65991 6.81339,9.62144 6.81339,9.62144c0,0 1.79064,22.63212 6.46727,30.80588c2.18081,3.81159 6.70805,12.242 11.32002,15.09619c8.04708,4.98007 16.77911,2.90293 16.77911,2.90293c0,0 2.61247,36.17843 -7.68777,75.32232c-13.33553,50.67889 -46.96653,107.18211 -121.93767,105.43608c-142.68856,-3.32313 -143.13906,-156.32194 -143.13906,-156.32194c0,0 4.28086,1.53714 6.26718,1.71818c2.21168,0.20158 6.39959,-0.56368 6.39959,-0.56368z" fill="#ffdd00" stroke="#ff0000" stroke-width="0"/><path d="M196.94717,80.18015c0,0 8.73784,7.00501 16.17402,4.41019c4.64011,-1.61915 15.42175,-6.8323 22.83842,-12.08987c6.48714,-4.59865 9.98849,-9.41898 9.98849,-9.41898c0,0 18.13121,-2.90003 26.94073,-7.58492c5.82689,-3.09874 20.77337,-17.78945 20.77337,-17.78945c0,0 3.69889,12.75642 12.11778,16.66859c7.55285,3.50973 18.91746,1.56959 29.11077,4.69229c19.71582,6.03992 38.79114,16.4297 43.65175,19.5597c3.64456,2.34692 8.08061,-4.09731 8.08061,-4.09731c0,0 5.10997,5.23248 6.08006,8.12017c2.21554,6.59503 0.95466,11.44095 0.95466,11.44095c0,0 11.47496,14.00929 15.93841,21.29055c4.29794,7.01126 10.36451,21.61761 10.36451,21.61761c0,0 1.79027,0.4534 2.70882,0.55509c0.94736,0.10488 2.88174,0.57425 2.88174,0.57425c0,0 0.47266,6.02333 1.22125,15.67888c1.45669,18.78902 1.85903,50.78098 -12.92954,79.12551c-11.02155,21.12446 -32.18656,42.64362 -53.69666,55.17828c-20.03712,11.67632 -40.13229,15.1569 -58.96607,13.78654c-107.27997,-7.80578 -127.12578,-76.32403 -123.80283,-135.15132c0.54188,-9.59333 2.70904,-18.90901 4.20452,-27.68158c5.7194,-33.55034 15.36523,-58.88519 15.36523,-58.88519z" fill="#ffff00" stroke="#ffff00" stroke-width="0"/></g><path d="M180.46753,180.00001c0,-66.01596 53.51652,-119.53249 119.53249,-119.53249c66.01597,0 119.5325,53.51652 119.5325,119.53249c0,66.01597 -53.51653,119.5325 -119.5325,119.5325c-66.01597,0 -119.53249,-53.51653 -119.53249,-119.5325z" fill="#fffef3" stroke="#000000" stroke-width="0" stroke-linecap="butt"/><path d="M183.95633,180.00001c0,-64.08915 51.95453,-116.04369 116.04369,-116.04369c64.08916,0 116.0437,51.95453 116.0437,116.04369c0,64.08916 -51.95454,116.0437 -116.0437,116.0437c-64.08916,0 -116.04369,-51.95454 -116.04369,-116.0437z" fill="#ffff00" stroke="#000000" stroke-width="0" stroke-linecap="butt"/><path d="M187.04545,180c0,-62.38307 50.57147,-112.95455 112.95455,-112.95455c62.38308,0 112.95455,50.57147 112.95455,112.95455c0,62.38307 -50.57148,112.95455 -112.95455,112.95455c-62.38307,0 -112.95455,-50.57148 -112.95455,-112.95455z" fill="#0d0c00" stroke="#000000" stroke-width="0" stroke-linecap="butt"/></g></g></svg>