<svg version="1.1" xmlns="http://www.w3.org/2000/svg" xmlns:xlink="http://www.w3.org/1999/xlink" width="240.16665" height="240.16665" viewBox="0,0,240.16665,240.16665"><g transform="translate(-179.91668,-59.91667)"><g data-paper-data="{&quot;isPaintingLayer&quot;:true}" fill-rule="nonzero" stroke-width="0" stroke-linejoin="miter" stroke-miterlimit="10" stroke-dasharray="" stroke-dashoffset="0" style="mix-blend-mode: normal"><path d="M276.09714,112.45042c0,0 -15.69442,-2.12879 -32.76107,0.79073c-19.66765,3.36446 -37.69792,16.63462 -37.69792,16.63462c0,0 12.09261,-22.74442 40.17595,-27.17787c21.96383,-2.83837 30.28304,9.75254 30.28304,9.75254z" fill="#000000" stroke="#000000" stroke-linecap="round"/><path d="M323.90286,112.45044c0,0 8.31921,-12.59091 30.28304,-9.75254c28.08334,4.43345 40.17595,27.17787 40.17595,27.17787c0,0 -18.03027,-13.27016 -37.69792,-16.63462c-17.06665,-2.91952 -32.76107,-0.79073 -32.76107,-0.79073z" data-paper-data="{&quot;index&quot;:null}" fill="#000000" stroke="#000000" stroke-linecap="round"/><path d="M179.91668,300.08332v-240.16665h240.16665v240.16665z" fill="none" stroke="none" stroke-linecap="butt"/></g></g></svg>