<svg version="1.1" xmlns="http://www.w3.org/2000/svg" xmlns:xlink="http://www.w3.org/1999/xlink" width="254.37081" height="254.37081" viewBox="0,0,254.37081,254.37081"><defs><radialGradient cx="300" cy="180" r="127.18541" gradientUnits="userSpaceOnUse" id="color-1"><stop offset="0" stop-color="#000000" stop-opacity="0"/><stop offset="1" stop-color="#000000" stop-opacity="0"/></radialGradient></defs><g transform="translate(-172.81459,-52.81459)"><g data-paper-data="{&quot;isPaintingLayer&quot;:true}" fill-rule="nonzero" stroke="#000000" stroke-width="0" stroke-linecap="butt" stroke-linejoin="miter" stroke-miterlimit="10" stroke-dasharray="" stroke-dashoffset="0" style="mix-blend-mode: normal"><g><path d="M228.78782,168.07408c-1.60406,-13.21742 7.81042,-25.23262 21.02786,-26.83668c13.21742,-1.60406 25.23262,7.81042 26.83668,21.02786c0.29114,2.399 0.2193,4.7584 -0.17239,7.02313c-2.98431,-0.37556 -5.96646,-0.76777 -8.96454,-0.93023c-11.75922,-0.63721 -24.23199,-0.53869 -35.97771,-0.02897c-0.78243,0.03395 -1.70712,0.05923 -2.70458,0.097c-0.01592,-0.11707 -0.03103,-0.23444 -0.04531,-0.35212z" fill="#000000"/><path d="M236.03647,158.05164c-0.46595,-3.83943 2.26879,-7.32963 6.10822,-7.79558c3.83943,-0.46595 7.32963,2.26879 7.79558,6.10822c0.46595,3.83943 -2.26879,7.32963 -6.10822,7.79558c-3.83943,0.46595 -7.32963,-2.26879 -7.79558,-6.10822z" fill="#ffffff"/></g><path d="M371.21216,168.07407c-0.01428,0.11768 -0.02939,0.23505 -0.04531,0.35212c-0.99746,-0.03777 -1.92215,-0.06305 -2.70458,-0.097c-11.74572,-0.50972 -24.21849,-0.60824 -35.97771,0.02897c-2.99808,0.16246 -5.98023,0.55467 -8.96454,0.93023c-0.39169,-2.26473 -0.46353,-4.62413 -0.17239,-7.02313c1.60406,-13.21744 13.61926,-22.63192 26.83668,-21.02786c13.21744,1.60406 22.63192,13.61926 21.02786,26.83668z" data-paper-data="{&quot;index&quot;:null}" fill="#000000"/><path d="M330.59628,158.05164c-0.46595,-3.83943 2.26879,-7.32963 6.10822,-7.79558c3.83943,-0.46595 7.32963,2.26879 7.79558,6.10822c0.46595,3.83943 -2.26879,7.32963 -6.10822,7.79558c-3.83943,0.46595 -7.32963,-2.26879 -7.79558,-6.10822z" fill="#ffffff"/><path d="M172.8146,180c0,-70.24256 56.94284,-127.1854 127.18541,-127.1854c70.24257,0 127.18541,56.94284 127.18541,127.18541c0,70.24256 -56.94284,127.18541 -127.1854,127.18541c-70.24256,0 -127.1854,-56.94285 -127.1854,-127.1854z" fill="url(#color-1)"/></g></g></svg>