<svg version="1.1" xmlns="http://www.w3.org/2000/svg" xmlns:xlink="http://www.w3.org/1999/xlink" width="254.37082" height="254.37082" viewBox="0,0,254.37082,254.37082"><defs><radialGradient cx="300.00001" cy="180.00002" r="127.18541" gradientUnits="userSpaceOnUse" id="color-1"><stop offset="0" stop-color="#000000" stop-opacity="0"/><stop offset="1" stop-color="#000000" stop-opacity="0"/></radialGradient><linearGradient x1="300.00001" y1="75.22728" x2="300.00001" y2="213.49214" gradientUnits="userSpaceOnUse" id="color-2"><stop offset="0" stop-color="#ff4040" stop-opacity="0.67451"/><stop offset="1" stop-color="#ff4040" stop-opacity="0"/></linearGradient><linearGradient x1="300.00001" y1="284.77275" x2="300.00001" y2="75.22728" gradientUnits="userSpaceOnUse" id="color-3"><stop offset="0" stop-color="#ff4040" stop-opacity="0"/><stop offset="1" stop-color="#ff4040" stop-opacity="0.67451"/></linearGradient><linearGradient x1="300.00001" y1="184.63519" x2="300.00001" y2="77.64601" gradientUnits="userSpaceOnUse" id="color-4"><stop offset="0" stop-color="#ffbaba" stop-opacity="0"/><stop offset="1" stop-color="#ffbaba"/></linearGradient></defs><g transform="translate(-172.81461,-52.81461)"><g data-paper-data="{&quot;isPaintingLayer&quot;:true}" fill-rule="nonzero" stroke-linecap="butt" stroke-linejoin="miter" stroke-miterlimit="10" stroke-dasharray="" stroke-dashoffset="0" style="mix-blend-mode: normal"><path d="M172.81461,180.00002c0,-70.24256 56.94284,-127.1854 127.18541,-127.1854c70.24257,0 127.18541,56.94284 127.18541,127.18541c0,70.24256 -56.94284,127.18541 -127.1854,127.18541c-70.24256,0 -127.1854,-56.94285 -127.1854,-127.1854z" fill="url(#color-1)" stroke="#000000" stroke-width="0"/><path d="M195.22729,180.00003c0,-57.86438 46.90835,-104.77273 104.77273,-104.77273c57.86438,0 104.77273,46.90835 104.77273,104.77273c0,11.69226 -1.91524,22.93719 -5.44912,33.43817c-66.21473,0.0554 -132.42941,0.0826 -198.64395,0.00969c-3.53596,-10.50376 -5.45238,-21.75201 -5.45238,-33.44786z" data-paper-data="{&quot;index&quot;:null}" fill="url(#color-2)" stroke="#000000" stroke-width="0"/><path d="M300.00001,284.77275c-9.83329,0 -19.35019,-1.35464 -28.37425,-3.8875c18.21581,0.2429 36.4302,0.42789 54.64552,0.56657c-8.39537,2.16776 -17.19865,3.32093 -26.27126,3.32093z" data-paper-data="{&quot;index&quot;:null}" fill="url(#color-3)" stroke="#000000" stroke-width="0"/><path d="M203.23687,213.45064c-3.62306,-10.48225 -5.59086,-21.73664 -5.59086,-33.45063c0,-56.52856 45.82545,-102.35401 102.35401,-102.35401c56.52856,0 102.35401,45.82545 102.35401,102.35401c0,11.71014 -1.96651,22.96098 -5.58729,33.4403" data-paper-data="{&quot;index&quot;:null}" fill="none" stroke="none" stroke-width="0"/><path d="M314.36139,281.35443c-4.69254,0.65889 -9.48717,0.9996 -14.36138,0.9996c-5.60675,0 -11.10821,-0.45081 -16.47011,-1.31816" data-paper-data="{&quot;index&quot;:null}" fill="none" stroke="none" stroke-width="0"/><path d="M197.646,179.94892c0.02761,-56.50508 45.84248,-102.30293 102.35401,-102.30293c56.52856,0 102.35401,45.82546 102.35401,102.35402c0,1.55338 -0.0346,3.09868 -0.10308,4.63517" data-paper-data="{&quot;index&quot;:null}" fill="none" stroke="url(#color-4)" stroke-width="5"/></g></g></svg>