<svg version="1.1" xmlns="http://www.w3.org/2000/svg" xmlns:xlink="http://www.w3.org/1999/xlink" width="183.27761" height="183.27761" viewBox="0,0,183.27761,183.27761"><defs><linearGradient x1="299.20028" y1="200.28876" x2="299.20028" y2="219.33528" gradientUnits="userSpaceOnUse" id="color-1"><stop offset="0" stop-color="#420428"/><stop offset="1" stop-color="#5f0d26"/></linearGradient></defs><g transform="translate(-208.36119,-88.3612)"><g data-paper-data="{&quot;isPaintingLayer&quot;:true}" fill-rule="nonzero" stroke-linecap="butt" stroke-linejoin="miter" stroke-miterlimit="10" stroke-dasharray="" stroke-dashoffset="0" style="mix-blend-mode: normal"><path d="M252.89451,219.33528c0,0 8.42578,-18.78956 47.87843,-19.04653c33.33691,-0.21714 44.73313,19.04653 44.73313,19.04653c0,0 -30.23025,-2.97056 -45.60682,-2.97056c-15.49306,0 -47.00473,2.97056 -47.00473,2.97056z" fill="url(#color-1)" stroke="#000000" stroke-width="8"/><path d="M208.36119,271.63881v-183.27761h183.27761v183.27761z" fill="none" stroke="#000000" stroke-width="0"/><path d="M286.94031,233.48676l0.75708,-2.38885c0,0 8.09833,4.56758 12.4561,4.56758c4.34867,0 12.14913,-4.32868 12.14913,-4.32868l0.75708,2.14997c0,0 -4.8983,6.44992 -13.03239,6.44992c-8.26938,0 -13.08701,-6.44992 -13.08701,-6.44992z" fill-opacity="0.44314" fill="#000000" stroke="none" stroke-width="0"/></g></g></svg>