<svg version="1.1" xmlns="http://www.w3.org/2000/svg" xmlns:xlink="http://www.w3.org/1999/xlink" width="254.37081" height="254.37081" viewBox="0,0,254.37081,254.37081"><defs><radialGradient cx="364.97433" cy="181.71286" r="38.33589" gradientUnits="userSpaceOnUse" id="color-1"><stop offset="0" stop-color="#0f0f0f"/><stop offset="1" stop-color="#000000"/></radialGradient><radialGradient cx="265.78664" cy="188.93088" r="38.33589" gradientUnits="userSpaceOnUse" id="color-2"><stop offset="0" stop-color="#0f0f0f"/><stop offset="1" stop-color="#000000"/></radialGradient><radialGradient cx="300" cy="180" r="127.18541" gradientUnits="userSpaceOnUse" id="color-3"><stop offset="0" stop-color="#000000" stop-opacity="0"/><stop offset="1" stop-color="#000000" stop-opacity="0"/></radialGradient></defs><g transform="translate(-172.81459,-52.81459)"><g data-paper-data="{&quot;isPaintingLayer&quot;:true}" fill-rule="nonzero" stroke="#000000" stroke-width="0" stroke-linecap="butt" stroke-linejoin="miter" stroke-miterlimit="10" stroke-dasharray="" stroke-dashoffset="0" style="mix-blend-mode: normal"><path d="M309.33166,179.73305c-8.26074,-21.16549 0.93826,-44.84378 20.54663,-52.88692c19.60833,-8.04313 42.2007,2.59461 50.46146,23.76013c8.26074,21.16549 -0.93826,44.84378 -20.54663,52.88692c-19.60833,8.04313 -42.2007,-2.59461 -50.46145,-23.76014z" fill="url(#color-1)"/><path d="M317.67221,151.75483c0.96337,-10.02772 9.33856,-17.55845 18.70655,-16.82034c9.36799,0.73811 16.18129,9.4655 15.21792,19.49322c-0.96337,10.02772 -9.33856,17.55845 -18.70655,16.82034c-9.36799,-0.73811 -16.18129,-9.4655 -15.21792,-19.49322z" fill="#ffffff"/><path d="M350.85276,197.5706c-3.92249,-3.04726 -2.53609,-10.66032 3.0966,-17.00425c5.63269,-6.34392 13.3787,-9.01641 17.30119,-5.96914c3.92249,3.04726 2.53609,10.66032 -3.0966,17.00425c-5.63269,6.34392 -13.3787,9.01641 -17.30119,5.96914z" fill-opacity="0.07843" fill="#ffffff"/><g><path d="M216.79972,162.46753c1.98825,-22.63326 20.73839,-39.7714 41.87965,-38.27904c21.14123,1.49235 36.66781,21.05 34.67955,43.68331c-1.98825,22.63326 -20.73839,39.7714 -41.87965,38.27904c-21.14123,-1.49235 -36.66781,-21.05 -34.67955,-43.68331z" fill="url(#color-2)"/><path d="M229.13047,151.61563c0.88157,-10.03524 9.19508,-17.63401 18.56877,-16.97232c9.3737,0.66169 16.25793,9.33324 15.37636,19.36848c-0.88157,10.03524 -9.19508,17.63401 -18.56877,16.97232c-9.3737,-0.66169 -16.25793,-9.33324 -15.37636,-19.36848z" fill="#ffffff"/><path d="M252.26781,196.57825c-3.10425,-3.87754 0.01832,-10.95782 6.97446,-15.81424c6.95613,-4.85642 15.11169,-5.64996 18.21594,-1.7724c3.10425,3.87754 -0.01832,10.95782 -6.97446,15.81424c-6.95613,4.85642 -15.11169,5.64996 -18.21594,1.7724z" fill-opacity="0.07843" fill="#ffffff"/></g><path d="M172.8146,180c0,-70.24256 56.94284,-127.1854 127.18541,-127.1854c70.24257,0 127.18541,56.94284 127.18541,127.18541c0,70.24256 -56.94284,127.18541 -127.1854,127.18541c-70.24256,0 -127.1854,-56.94285 -127.1854,-127.1854z" fill="url(#color-3)"/></g></g></svg>