<svg version="1.1" xmlns="http://www.w3.org/2000/svg" xmlns:xlink="http://www.w3.org/1999/xlink" width="254.37081" height="254.37081" viewBox="0,0,254.37081,254.37081"><defs><radialGradient cx="300" cy="180" r="127.18541" gradientUnits="userSpaceOnUse" id="color-1"><stop offset="0" stop-color="#000000" stop-opacity="0"/><stop offset="1" stop-color="#000000" stop-opacity="0"/></radialGradient></defs><g transform="translate(-172.81459,-52.81459)"><g data-paper-data="{&quot;isPaintingLayer&quot;:true}" fill-rule="nonzero" stroke="#000000" stroke-width="0" stroke-linecap="butt" stroke-linejoin="miter" stroke-miterlimit="10" stroke-dasharray="" stroke-dashoffset="0" style="mix-blend-mode: normal"><g><path d="M323.34763,168.07408c-1.60406,-13.21742 7.81042,-25.23262 21.02786,-26.83668c13.21742,-1.60406 25.23262,7.81042 26.83668,21.02786c0.76299,6.28701 -0.967,12.11727 -4.41344,16.8692c-0.17415,-0.0439 -1.24192,0.0387 -2.9382,-0.0831c-3.63731,-0.26118 -10.16449,-0.61273 -16.96763,-0.67423c-7.09572,-0.06414 -14.40038,0.46108 -19.45062,0.49995c-2.15543,-3.11372 -3.60672,-6.78242 -4.09465,-10.80301z" fill="#000000"/><path d="M330.59628,158.05164c-0.46595,-3.83943 2.26879,-7.32963 6.10822,-7.79558c3.83943,-0.46595 7.32963,2.26879 7.79558,6.10822c0.46595,3.83943 -2.26879,7.32963 -6.10822,7.79558c-3.83943,0.46595 -7.32963,-2.26879 -7.79558,-6.10822z" fill="#ffffff"/></g><g><path d="M228.78782,168.07408c-1.60406,-13.21742 7.81042,-25.23262 21.02786,-26.83668c13.21742,-1.60406 25.23262,7.81042 26.83668,21.02786c0.76299,6.28701 -0.967,12.30202 -4.41344,17.05395c-0.17415,-0.0439 -1.24192,0.0387 -2.9382,-0.0831c-3.63731,-0.26118 -10.16448,-0.79748 -16.96763,-0.85898c-7.09572,-0.06415 -14.40038,0.46108 -19.45062,0.49995c-2.15543,-3.11372 -3.60672,-6.78242 -4.09465,-10.80301z" fill="#000000"/><path d="M236.03647,158.05164c-0.46595,-3.83943 2.26879,-7.32963 6.10822,-7.79558c3.83943,-0.46595 7.32963,2.26879 7.79558,6.10822c0.46595,3.83943 -2.26879,7.32963 -6.10822,7.79558c-3.83943,0.46595 -7.32963,-2.26879 -7.79558,-6.10822z" fill="#ffffff"/></g><path d="M172.8146,180c0,-70.24256 56.94284,-127.1854 127.18541,-127.1854c70.24257,0 127.18541,56.94284 127.18541,127.18541c0,70.24256 -56.94284,127.18541 -127.1854,127.18541c-70.24256,0 -127.1854,-56.94285 -127.1854,-127.1854z" fill="url(#color-1)"/></g></g></svg>