<svg version="1.1" xmlns="http://www.w3.org/2000/svg" xmlns:xlink="http://www.w3.org/1999/xlink" width="254.37081" height="254.37081" viewBox="0,0,254.37081,254.37081"><defs><radialGradient cx="300" cy="180" r="127.18541" gradientUnits="userSpaceOnUse" id="color-1"><stop offset="0" stop-color="#000000" stop-opacity="0"/><stop offset="1" stop-color="#000000" stop-opacity="0"/></radialGradient></defs><g transform="translate(-172.81459,-52.81459)"><g data-paper-data="{&quot;isPaintingLayer&quot;:true}" fill-rule="nonzero" stroke="#000000" stroke-width="0" stroke-linecap="butt" stroke-linejoin="miter" stroke-miterlimit="10" stroke-dasharray="" stroke-dashoffset="0" style="mix-blend-mode: normal"><path d="M239.42409,166.78326c-0.89116,-7.34318 4.33922,-14.01844 11.68241,-14.9096c7.34318,-0.89116 14.01844,4.33922 14.9096,11.68241c0.89116,7.34318 -4.33922,14.01844 -11.68241,14.9096c-7.34318,0.89116 -14.01844,-4.33922 -14.9096,-11.68241z" fill="#000000"/><path d="M248.85784,165.63838c-0.25887,-2.13306 1.26047,-4.07211 3.39353,-4.33098c2.13306,-0.25887 4.07211,1.26047 4.33098,3.39353c0.25887,2.13306 -1.26047,4.07211 -3.39353,4.33098c-2.13306,0.25887 -4.07211,-1.26047 -4.33098,-3.39353z" fill="#ffffff"/><path d="M333.98391,166.78325c-0.89116,-7.34318 4.33923,-14.01844 11.6824,-14.9096c7.34318,-0.89116 14.01844,4.33923 14.90961,11.68241c0.89116,7.34318 -4.33923,14.01844 -11.68241,14.9096c-7.34318,0.89116 -14.01844,-4.33923 -14.9096,-11.68241z" fill="#000000"/><path d="M343.41766,165.63837c-0.25887,-2.13306 1.26047,-4.07211 3.39353,-4.33098c2.13306,-0.25887 4.07211,1.26047 4.33098,3.39353c0.25887,2.13306 -1.26046,4.07211 -3.39353,4.33098c-2.13306,0.25887 -4.07211,-1.26047 -4.33098,-3.39353z" fill="#ffffff"/><path d="M172.8146,180c0,-70.24256 56.94284,-127.1854 127.18541,-127.1854c70.24257,0 127.18541,56.94284 127.18541,127.18541c0,70.24256 -56.94284,127.18541 -127.1854,127.18541c-70.24256,0 -127.1854,-56.94285 -127.1854,-127.1854z" fill="url(#color-1)"/></g></g></svg>