<svg version="1.1" xmlns="http://www.w3.org/2000/svg" xmlns:xlink="http://www.w3.org/1999/xlink" width="254.37081" height="254.37081" viewBox="0,0,254.37081,254.37081"><defs><radialGradient cx="300" cy="180" r="127.18541" gradientUnits="userSpaceOnUse" id="color-1"><stop offset="0" stop-color="#000000" stop-opacity="0"/><stop offset="1" stop-color="#000000" stop-opacity="0"/></radialGradient></defs><g transform="translate(-172.81459,-52.81459)"><g data-paper-data="{&quot;isPaintingLayer&quot;:true}" fill-rule="nonzero" stroke="#000000" stroke-width="0" stroke-linecap="butt" stroke-linejoin="miter" stroke-miterlimit="10" stroke-dasharray="" stroke-dashoffset="0" style="mix-blend-mode: normal"><g data-paper-data="{&quot;index&quot;:null}"><path d="M324.81718,172.27611c-1.44489,-3.90236 -1.81557,-7.93988 -1.26118,-11.78802c9.22932,-4.42523 18.22991,-8.88639 26.65201,-14.74897c1.65047,-1.14888 3.81844,-2.6322 5.91738,-4.31734c6.21662,2.40828 11.41074,7.36906 13.90763,14.11266c2.96282,8.00197 1.40884,16.57224 -3.37599,22.9127c-0.24126,-0.02273 -0.48369,-0.04483 -0.72722,-0.06627c-4.55525,-0.91975 -9.35974,-1.38622 -14.20037,-1.45177c-7.63919,-0.65044 -14.91575,0.16019 -23.26769,1.87226c-1.50963,-1.92273 -2.75015,-4.10962 -3.64457,-6.52526z" fill="#000000"/><path d="M329.5462,160.84682c-0.37507,-1.01297 -0.50095,-2.0573 -0.40857,-3.06571c3.53486,-1.74217 7.02472,-3.53129 10.44925,-5.44682c1.3789,0.78668 2.49937,2.04415 3.09373,3.64938c1.34292,3.62697 -0.50866,7.65586 -4.13562,8.99878c-3.62697,1.34292 -7.65586,-0.50866 -8.99878,-4.13562z" fill="#ffffff"/></g><g data-paper-data="{&quot;index&quot;:null}"><path d="M271.84356,179.67054c-8.3844,-1.54526 -15.67568,-2.21069 -23.30038,-1.40812c-4.83836,0.16202 -9.6326,0.72416 -14.16861,1.73453c-0.24305,0.02628 -0.48499,0.05321 -0.72575,0.08075c-4.91026,-6.24383 -6.63475,-14.78142 -3.83202,-22.84086c2.36198,-6.79204 7.45619,-11.85536 13.62358,-14.38707c2.1321,1.64297 4.32922,3.08278 6.00225,4.19853c8.53728,5.69354 17.625,9.97441 26.94069,14.21481c0.63099,3.83633 0.34085,7.88043 -1.02597,11.81082c-0.8461,2.43299 -2.04278,4.64417 -3.51379,6.59661z" fill="#000000"/><path d="M270.40146,161.74119c-1.27036,3.65301 -5.26155,5.58453 -8.91456,4.31417c-3.65301,-1.27036 -5.58453,-5.26155 -4.31417,-8.91456c0.56224,-1.61676 1.65742,-2.89631 3.02037,-3.71032c3.46203,1.84689 6.98686,3.5661 10.55574,5.23746c0.11246,1.00636 0.00742,2.053 -0.34738,3.07324z" fill="#ffffff"/></g><path d="M172.8146,180c0,-70.24256 56.94284,-127.1854 127.18541,-127.1854c70.24257,0 127.18541,56.94284 127.18541,127.18541c0,70.24256 -56.94284,127.18541 -127.1854,127.18541c-70.24256,0 -127.1854,-56.94285 -127.1854,-127.1854z" fill="url(#color-1)"/></g></g></svg>