<svg version="1.1" xmlns="http://www.w3.org/2000/svg" xmlns:xlink="http://www.w3.org/1999/xlink" width="240.16665" height="240.16665" viewBox="0,0,240.16665,240.16665"><g transform="translate(-179.91668,-59.91667)"><g data-paper-data="{&quot;isPaintingLayer&quot;:true}" fill-rule="nonzero" stroke-linejoin="miter" stroke-miterlimit="10" stroke-dasharray="" stroke-dashoffset="0" style="mix-blend-mode: normal"><path d="M262.41654,115.86261c-9.90583,0.90181 -28.59249,1.98859 -42.33711,2.72396c-1.85895,0.09946 -3.64177,1.38884 -6.14837,2.63839c-2.5066,1.24955 -2.24962,1.75522 -3.78986,1.3967c-1.54024,-0.35852 -1.95252,-1.36072 -2.15103,-2.77955c-0.19852,-1.41883 0.75744,-4.40901 1.49709,-6.4143c0.2541,-0.6889 1.47797,-1.87514 2.85193,-2.35585c1.55013,-0.54234 3.29131,-0.33713 4.04646,-0.34387c7.18557,-0.06416 17.18371,-0.86577 27.19915,-1.57418c4.61726,-0.32659 9.23821,-0.92288 13.58894,-0.90014c5.63915,0.02948 9.76183,-3.61641 12.51303,-5.13319c3.10789,-1.71342 3.80642,-1.41252 4.72958,-0.75623c0.98837,0.70264 2.04605,1.92016 0.67356,4.89214c-1.51595,3.28263 -7.22716,8.1103 -12.67339,8.60612z" fill="#000000" stroke="#000000" stroke-width="1.5" stroke-linecap="round"/><path d="M179.91668,300.08332v-240.16665h240.16665v240.16665z" fill="none" stroke="none" stroke-width="0" stroke-linecap="butt"/><path d="M324.91007,116.55927c-1.37248,-2.97198 -0.3148,-4.18951 0.67356,-4.89215c0.92316,-0.65628 1.62169,-0.95718 4.72958,0.75624c2.75121,1.51677 6.87389,5.16267 12.51304,5.13318c4.35073,-0.02275 8.97168,0.57356 13.58894,0.90014c10.01544,0.70841 20.01359,1.51001 27.19915,1.57418c0.75514,0.00674 2.49632,-0.19848 4.04646,0.34387c1.37396,0.48071 2.59783,1.66695 2.85193,2.35585c0.73965,2.00529 1.69561,4.99547 1.49709,6.41429c-0.19852,1.41882 -0.61079,2.42103 -2.15103,2.77955c-1.54025,0.35852 -1.28326,-0.14715 -3.78986,-1.3967c-2.5066,-1.24955 -4.28942,-2.53893 -6.14837,-2.63839c-13.74462,-0.73537 -32.43128,-1.82215 -42.33711,-2.72396c-5.44622,-0.49581 -11.15744,-5.32348 -12.67339,-8.60611z" data-paper-data="{&quot;index&quot;:null}" fill="#000000" stroke="#000000" stroke-width="1.5" stroke-linecap="round"/></g></g></svg>