<svg version="1.1" xmlns="http://www.w3.org/2000/svg" xmlns:xlink="http://www.w3.org/1999/xlink" width="254.37081" height="254.37081" viewBox="0,0,254.37081,254.37081"><defs><radialGradient cx="300" cy="180" r="127.18541" gradientUnits="userSpaceOnUse" id="color-1"><stop offset="0" stop-color="#000000" stop-opacity="0"/><stop offset="1" stop-color="#000000" stop-opacity="0"/></radialGradient></defs><g transform="translate(-172.81459,-52.81459)"><g data-paper-data="{&quot;isPaintingLayer&quot;:true}" fill-rule="nonzero" stroke="#000000" stroke-width="0" stroke-linecap="butt" stroke-linejoin="miter" stroke-miterlimit="10" stroke-dasharray="" stroke-dashoffset="0" style="mix-blend-mode: normal"><path d="M272.5775,154.13985c-1.83799,-15.14502 8.94948,-28.91249 24.09452,-30.75049c15.14502,-1.83799 28.91249,8.94948 30.75049,24.09452c1.83799,15.14502 -8.94948,28.91249 -24.09452,30.75049c-15.14502,1.83799 -28.91249,-8.94948 -30.75049,-24.09452z" fill="#000000"/><path d="M280.88327,142.65576c-0.5339,-4.39936 2.59967,-8.39857 6.99903,-8.93247c4.39936,-0.5339 8.39857,2.59967 8.93247,6.99903c0.5339,4.39936 -2.59967,8.39857 -6.99903,8.93247c-4.39936,0.5339 -8.39857,-2.59967 -8.93247,-6.99903z" fill="#ffffff"/><path d="M172.8146,180c0,-70.24256 56.94284,-127.1854 127.18541,-127.1854c70.24257,0 127.18541,56.94284 127.18541,127.18541c0,70.24256 -56.94284,127.18541 -127.1854,127.18541c-70.24256,0 -127.1854,-56.94285 -127.1854,-127.1854z" fill="url(#color-1)"/></g></g></svg>