<svg version="1.1" xmlns="http://www.w3.org/2000/svg" xmlns:xlink="http://www.w3.org/1999/xlink" width="254.37081" height="254.37081" viewBox="0,0,254.37081,254.37081"><defs><radialGradient cx="300" cy="180" r="127.18541" gradientUnits="userSpaceOnUse" id="color-1"><stop offset="0" stop-color="#000000" stop-opacity="0"/><stop offset="1" stop-color="#000000" stop-opacity="0"/></radialGradient></defs><g transform="translate(-172.81459,-52.81459)"><g data-paper-data="{&quot;isPaintingLayer&quot;:true}" fill-rule="nonzero" stroke="#000000" stroke-width="0" stroke-linecap="butt" stroke-linejoin="miter" stroke-miterlimit="10" stroke-dasharray="" stroke-dashoffset="0" style="mix-blend-mode: normal"><path d="M323.34764,168.07406c-1.60406,-13.21742 7.81042,-25.23262 21.02786,-26.83668c13.21742,-1.60406 25.23262,7.81042 26.83668,21.02786c1.60406,13.21742 -7.81042,25.23262 -21.02786,26.83668c-13.21742,1.60406 -25.23262,-7.81042 -26.83668,-21.02786z" fill="#000000"/><path d="M330.60867,167.19286c-1.11739,-9.20728 5.44075,-17.57707 14.64803,-18.69446c9.20728,-1.11739 17.57707,5.44075 18.69446,14.64803c1.11739,9.20728 -5.44074,17.57707 -14.64803,18.69446c-9.20728,1.11739 -17.57707,-5.44075 -18.69446,-14.64803z" fill="#ffffff"/><path d="M228.78782,168.07407c-1.60406,-13.21742 7.81042,-25.23262 21.02786,-26.83668c13.21742,-1.60406 25.23262,7.81042 26.83668,21.02786c1.60406,13.21742 -7.81042,25.23262 -21.02786,26.83668c-13.21742,1.60406 -25.23262,-7.81042 -26.83668,-21.02786z" fill="#000000"/><path d="M236.04885,167.19288c-1.11739,-9.20728 5.44075,-17.57707 14.64803,-18.69446c9.20728,-1.11739 17.57707,5.44075 18.69446,14.64803c1.11739,9.20728 -5.44075,17.57707 -14.64803,18.69446c-9.20728,1.11739 -17.57707,-5.44075 -18.69446,-14.64803z" fill="#ffffff"/><path d="M172.8146,180c0,-70.24256 56.94284,-127.1854 127.18541,-127.1854c70.24257,0 127.18541,56.94284 127.18541,127.18541c0,70.24256 -56.94284,127.18541 -127.1854,127.18541c-70.24256,0 -127.1854,-56.94285 -127.1854,-127.1854z" fill="url(#color-1)"/></g></g></svg>