<svg version="1.1" xmlns="http://www.w3.org/2000/svg" xmlns:xlink="http://www.w3.org/1999/xlink" width="254.37081" height="254.37081" viewBox="0,0,254.37081,254.37081"><defs><radialGradient cx="300" cy="180" r="127.18541" gradientUnits="userSpaceOnUse" id="color-1"><stop offset="0" stop-color="#000000" stop-opacity="0"/><stop offset="1" stop-color="#000000" stop-opacity="0"/></radialGradient></defs><g transform="translate(-172.81459,-52.81459)"><g data-paper-data="{&quot;isPaintingLayer&quot;:true}" fill-rule="nonzero" stroke="#000000" stroke-width="0" stroke-linecap="butt" stroke-linejoin="miter" stroke-miterlimit="10" stroke-dasharray="" stroke-dashoffset="0" style="mix-blend-mode: normal"><g><path d="M234.64815,154.30232c-1.09438,-9.01765 2.94006,-17.4757 9.81187,-22.44967c0.89727,0.54315 1.77882,1.11529 2.69098,1.63224c4.9422,2.80092 10.6638,4.94641 15.71806,7.72759c3.50289,1.92752 6.86552,4.10217 10.3604,6.04418c2.49907,1.38866 5.62206,1.87213 7.97236,3.63486c0.46783,0.35087 0.96338,0.7663 1.47918,1.22137c-0.22655,7.97088 -4.39526,15.16057 -10.81075,19.40528c-0.19371,-0.0067 -0.38443,-0.01119 -0.57173,-0.01334c-1.69482,-0.01949 -3.38979,-0.03537 -5.0848,-0.04492c-0.6856,-0.13677 -1.27094,-0.2539 -1.71194,-0.35444c-7.15797,-1.63186 -14.18521,-2.00702 -21.29911,-1.141c-4.58481,-3.79606 -7.7808,-9.2867 -8.55452,-15.66214z" fill="#000000"/><path d="M241.8968,144.27988c-0.46595,-3.83943 2.26879,-7.32963 6.10822,-7.79558c3.83943,-0.46595 7.32963,2.26879 7.79558,6.10822c0.46595,3.83943 -2.26879,7.32963 -6.10822,7.79558c-3.83943,0.46595 -7.32963,-2.26879 -7.79558,-6.10822z" fill="#ffffff"/></g><g><path d="M317.48732,154.36909c-0.10092,-0.83159 -0.15823,-1.65841 -0.17371,-2.47819c0.29128,-0.15015 0.5755,-0.28978 0.85152,-0.41584c8.89788,-4.0637 16.99367,-9.47976 25.74888,-13.85548c3.86808,-1.93321 7.96872,-3.48165 11.7321,-5.61766c5.19752,3.80084 8.8688,9.66194 9.70575,16.55835c0.9322,7.68132 -1.85697,14.95661 -6.95126,20.01837c-4.51824,-0.01031 -9.0369,0.02922 -13.55497,0.0628c-2.48226,0.01845 -4.97086,0.85639 -7.42558,1.26573c-2.69191,0.4489 -6.15744,0.80108 -9.60291,1.46172c-5.52662,-3.78007 -9.45976,-9.8305 -10.32982,-16.9998z" fill="#000000"/><path d="M338.63976,142.6593c0.46595,3.83943 -2.26878,7.32963 -6.10821,7.79558c-2.64931,0.32152 -5.13235,-0.88093 -6.57022,-2.91872c4.07818,-2.22202 8.07316,-4.58917 12.14359,-6.84173c0.26688,0.61042 0.45046,1.26953 0.53484,1.96487z" fill="#ffffff"/></g><path d="M172.8146,180c0,-70.24256 56.94284,-127.1854 127.18541,-127.1854c70.24257,0 127.18541,56.94284 127.18541,127.18541c0,70.24256 -56.94284,127.18541 -127.1854,127.18541c-70.24256,0 -127.1854,-56.94285 -127.1854,-127.1854z" fill="url(#color-1)"/></g></g></svg>