<svg version="1.1" xmlns="http://www.w3.org/2000/svg" xmlns:xlink="http://www.w3.org/1999/xlink" width="254.37081" height="254.37081" viewBox="0,0,254.37081,254.37081"><defs><radialGradient cx="300" cy="180" r="127.18541" gradientUnits="userSpaceOnUse" id="color-1"><stop offset="0" stop-color="#000000" stop-opacity="0"/><stop offset="1" stop-color="#000000" stop-opacity="0"/></radialGradient></defs><g transform="translate(-172.81459,-52.81459)"><g data-paper-data="{&quot;isPaintingLayer&quot;:true}" fill-rule="nonzero" stroke="#000000" stroke-width="0" stroke-linecap="butt" stroke-linejoin="miter" stroke-miterlimit="10" stroke-dasharray="" stroke-dashoffset="0" style="mix-blend-mode: normal"><g><path d="M221.63585,166.76101c-2.08342,-7.2419 10.1445,-13.82509 27.31187,-14.70397c17.16734,-0.87887 32.77319,4.27937 34.85661,11.52128c2.08342,7.2419 -10.1445,13.82509 -27.31187,14.70397c-17.16734,0.87887 -32.77319,-4.27937 -34.85661,-11.52128z" fill="#000000"/><path d="M231.0507,161.26966c-0.6052,-2.10364 2.9468,-4.01594 7.93361,-4.27124c4.98681,-0.2553 9.52003,1.24308 10.12523,3.34673c0.6052,2.10364 -2.9468,4.01594 -7.93361,4.27124c-4.98681,0.2553 -9.52003,-1.24308 -10.12523,-3.34673z" fill="#ffffff"/></g><g><path d="M316.19567,166.761c-2.08342,-7.2419 10.14452,-13.82509 27.31186,-14.70397c17.16735,-0.87887 32.77319,4.27938 34.85662,11.52128c2.08342,7.2419 -10.14452,13.82509 -27.31187,14.70397c-17.16734,0.87887 -32.77319,-4.27938 -34.85661,-11.52128z" fill="#000000"/><path d="M325.61051,161.26965c-0.6052,-2.10364 2.9468,-4.01594 7.93361,-4.27124c4.98681,-0.2553 9.52003,1.24308 10.12523,3.34673c0.6052,2.10364 -2.94679,4.01594 -7.9336,4.27124c-4.98681,0.2553 -9.52003,-1.24308 -10.12524,-3.34673z" fill="#ffffff"/></g><path d="M172.8146,180c0,-70.24256 56.94284,-127.1854 127.18541,-127.1854c70.24257,0 127.18541,56.94284 127.18541,127.18541c0,70.24256 -56.94284,127.18541 -127.1854,127.18541c-70.24256,0 -127.1854,-56.94285 -127.1854,-127.1854z" fill="url(#color-1)"/></g></g></svg>