<svg version="1.1" xmlns="http://www.w3.org/2000/svg" xmlns:xlink="http://www.w3.org/1999/xlink" width="240.16665" height="240.16665" viewBox="0,0,240.16665,240.16665"><g transform="translate(-179.91668,-59.91667)"><g data-paper-data="{&quot;isPaintingLayer&quot;:true}" fill-rule="nonzero" stroke-linejoin="miter" stroke-miterlimit="10" stroke-dasharray="" stroke-dashoffset="0" style="mix-blend-mode: normal"><path d="M262.72003,111.85244c-9.54895,2.78502 -27.68022,7.43575 -41.02861,10.7937c-1.80536,0.45416 -3.30777,2.06155 -5.52817,3.76867c-2.2204,1.70712 -1.8712,2.15411 -3.45161,2.09767c-1.58041,-0.05644 -2.17726,-0.96096 -2.64421,-2.31537c-0.46697,-1.35441 -0.10228,-4.47243 0.23902,-6.58235c0.11725,-0.72485 1.09088,-2.1238 2.34713,-2.85911c1.41733,-0.82959 3.16554,-0.96215 3.90538,-1.1136c7.03986,-1.44117 16.69862,-4.14556 26.39223,-6.76179c4.46889,-1.20612 8.88968,-2.67765 13.164,-3.48981c5.54011,-1.05266 8.88696,-5.4216 11.29616,-7.4379c2.72155,-2.27771 3.46483,-2.11637 4.49672,-1.64933c1.10479,0.50002 2.37635,1.49207 1.59937,4.67212c-0.85819,3.51245 -5.53741,9.3459 -10.78743,10.87711z" fill="#000000" stroke="#000000" stroke-width="1.5" stroke-linecap="round"/><path d="M179.91668,300.08332v-240.16665h240.16665v240.16665z" fill="none" stroke="none" stroke-width="0" stroke-linecap="butt"/><path d="M337.22172,111.87546c-5.25002,-1.53121 -9.92924,-7.36467 -10.78742,-10.87711c-0.77698,-3.18005 0.49459,-4.1721 1.59937,-4.67212c1.0319,-0.46704 1.77517,-0.62837 4.49672,1.64933c2.4092,2.01631 5.75605,6.38523 11.29616,7.4379c4.27432,0.81216 8.6951,2.28369 13.164,3.48981c9.69361,2.61624 19.35238,5.32061 26.39223,6.76178c0.73983,0.15145 2.48805,0.28402 3.90538,1.11361c1.25625,0.73531 2.22987,2.13427 2.34713,2.85912c0.3413,2.10993 0.70599,5.22794 0.23902,6.58235c-0.46696,1.35442 -1.06381,2.25893 -2.64422,2.31538c-1.58041,0.05644 -1.23122,-0.39055 -3.45161,-2.09767c-2.2204,-1.70712 -3.72281,-3.31451 -5.52817,-3.76867c-13.34839,-3.35796 -31.47966,-8.00868 -41.02861,-10.7937z" data-paper-data="{&quot;index&quot;:null}" fill="#000000" stroke="#000000" stroke-width="1.5" stroke-linecap="round"/></g></g></svg>