<svg version="1.1" xmlns="http://www.w3.org/2000/svg" xmlns:xlink="http://www.w3.org/1999/xlink" width="254.37081" height="254.37081" viewBox="0,0,254.37081,254.37081"><defs><radialGradient cx="300" cy="180" r="127.18541" gradientUnits="userSpaceOnUse" id="color-1"><stop offset="0" stop-color="#000000" stop-opacity="0"/><stop offset="1" stop-color="#000000" stop-opacity="0"/></radialGradient></defs><g transform="translate(-172.81459,-52.81459)"><g data-paper-data="{&quot;isPaintingLayer&quot;:true}" fill-rule="nonzero" stroke="#000000" stroke-width="0" stroke-linecap="butt" stroke-linejoin="miter" stroke-miterlimit="10" stroke-dasharray="" stroke-dashoffset="0" style="mix-blend-mode: normal"><g data-paper-data="{&quot;index&quot;:null}"><path d="M362.9991,183.44795c-10.09483,8.68148 -25.31602,7.53572 -33.99749,-2.5591c-4.94893,-5.75462 -6.70436,-13.17513 -5.42897,-20.10041c15.80824,0.01298 31.61648,0.02866 47.42471,0.03849c1.48303,8.14269 -1.26974,16.83454 -7.99826,22.62102z" fill="#000000"/><path d="M339.29084,169.79967c-2.93237,2.52182 -7.35386,2.18899 -9.87567,-0.74337c-2.04476,-2.37765 -2.21276,-5.73431 -0.63997,-8.2635c3.96813,0.00338 7.93626,0.00687 11.90439,0.01034c1.78901,2.88149 1.26319,6.71587 -1.38875,8.99653z" fill="#ffffff"/></g><g><path d="M270.99838,180.88886c-8.68147,10.09482 -23.90266,11.24058 -33.99749,2.5591c-6.73296,-5.7903 -9.48492,-14.4898 -7.99532,-22.63714c15.80587,-0.03179 31.61176,-0.04383 47.41766,-0.04468c1.28328,6.93164 -0.47061,14.36191 -5.42485,20.12271z" fill="#000000"/><path d="M270.58482,169.05631c-2.52182,2.93237 -6.9433,3.26519 -9.87567,0.74337c-2.66158,-2.28894 -3.18155,-6.14288 -1.36918,-9.02786c3.9562,-0.00251 7.91241,-0.00412 11.86861,-0.00498c1.59014,2.53215 1.42801,5.90367 -0.62376,8.28947z" fill="#ffffff"/></g><path d="M172.8146,180c0,-70.24256 56.94284,-127.1854 127.18541,-127.1854c70.24257,0 127.18541,56.94284 127.18541,127.18541c0,70.24256 -56.94284,127.18541 -127.1854,127.18541c-70.24256,0 -127.1854,-56.94285 -127.1854,-127.1854z" fill="url(#color-1)"/></g></g></svg>