<svg version="1.1" xmlns="http://www.w3.org/2000/svg" xmlns:xlink="http://www.w3.org/1999/xlink" width="254.37082" height="254.37082" viewBox="0,0,254.37082,254.37082"><defs><radialGradient cx="300" cy="180" r="127.18541" gradientUnits="userSpaceOnUse" id="color-1"><stop offset="0" stop-color="#000000" stop-opacity="0"/><stop offset="1" stop-color="#000000" stop-opacity="0"/></radialGradient></defs><g transform="translate(-172.81459,-52.81459)"><g data-paper-data="{&quot;isPaintingLayer&quot;:true}" fill-rule="nonzero" stroke-linejoin="miter" stroke-miterlimit="10" stroke-dasharray="" stroke-dashoffset="0" style="mix-blend-mode: normal"><path d="M172.8146,180c0,-70.24256 56.94284,-127.1854 127.18541,-127.1854c70.24257,0 127.18541,56.94284 127.18541,127.18541c0,70.24256 -56.94284,127.18541 -127.1854,127.18541c-70.24256,0 -127.1854,-56.94285 -127.1854,-127.1854z" fill="url(#color-1)" stroke="#000000" stroke-width="0" stroke-linecap="butt"/><path d="M184.92909,295.07094v-230.14186h230.14186v230.14186z" fill="none" stroke="none" stroke-width="0" stroke-linecap="butt"/><g><path d="M340.06331,192.10533l27.35718,3.81092c0,0 0.93767,14.21603 2.79411,21.08914c1.81229,6.70966 8.21526,19.67097 8.21526,19.67097c0,0 -21.20285,-2.14977 -38.09743,-1.058c-27.06789,1.74919 -108.71434,10.54535 -108.71434,10.54535c0,0 4.06638,-5.86602 5.5429,-12.20408c0.40505,-1.73869 0.41296,-4.92855 0.33275,-6.33331c-0.58627,-10.26729 -6.56287,-16.43511 -6.56287,-16.43511z" fill="#ffffff" stroke="none" stroke-width="0" stroke-linecap="butt"/><path d="M340.06331,192.10533l27.35718,3.81092c0,0 0.93767,14.21603 2.79411,21.08914c1.81229,6.70966 8.21526,19.67097 8.21526,19.67097c0,0 -21.20285,-2.14977 -38.09743,-1.058c-27.06789,1.74919 -108.71434,10.54535 -108.71434,10.54535c0,0 4.06638,-5.86602 5.5429,-12.20408c0.40505,-1.73869 0.41296,-4.92855 0.33275,-6.33331c-0.58627,-10.26729 -6.56287,-16.43511 -6.56287,-16.43511z" fill="none" stroke="#000000" stroke-width="6" stroke-linecap="butt"/><path d="M368.47738,215.34415c0,0 -19.20807,0.65217 -38.84224,1.71794c-19.40272,1.0532 -91.17964,11.85633 -91.17964,11.85633" fill="none" stroke="#000000" stroke-width="5" stroke-linecap="round"/><path d="M365.50769,194.02639l11.36731,42.58924l-38.3774,0.35573c0,0 2.60558,-7.03871 4.32913,-16.64758c1.88368,-10.50156 -6.24869,-14.78339 -6.24869,-14.78339l-99.87715,13.92851l-6.7396,-7.85264l109.51148,-19.31715z" data-paper-data="{&quot;index&quot;:null}" fill-opacity="0.35294" fill="#000000" stroke="#000000" stroke-width="0" stroke-linecap="round"/></g></g></g></svg>