<svg version="1.1" xmlns="http://www.w3.org/2000/svg" xmlns:xlink="http://www.w3.org/1999/xlink" width="308.47365" height="308.47365" viewBox="0,0,308.47365,308.47365"><g transform="translate(-145.76318,-25.53192)"><g data-paper-data="{&quot;isPaintingLayer&quot;:true}" fill-rule="nonzero" stroke-miterlimit="10" stroke-dasharray="" stroke-dashoffset="0" style="mix-blend-mode: normal"><path d="M145.76318,334.00557v-308.47365h308.47365v308.47365z" fill="none" stroke="#000000" stroke-width="0" stroke-linecap="butt" stroke-linejoin="miter"/><path d="M196.50826,136.81489c0,0 -14.34839,-18.13286 -15.44684,-42.9139c-1.19482,-26.95509 8.23228,-39.29354 8.23228,-39.29354c0,0 11.36438,14.1922 17.95602,20.46826c6.65975,6.34092 20.76957,17.38465 20.76957,17.38465c0,0 -10.05814,6.30215 -17.8646,19.69804c-2.61331,4.48445 -13.64644,24.65648 -13.64644,24.65648z" fill="#ffffff" stroke="#000000" stroke-width="4.5" stroke-linecap="butt" stroke-linejoin="round"/><path d="M201.45565,100.12076c9.62199,-12.23549 17.14945,-15.24715 17.14945,-15.24715l9.02342,7.92889c0,0 -9.72828,8.06631 -14.80999,15.14584c-5.252,7.31678 -16.58399,29.05769 -16.58399,29.05769c0,0 -2.68939,-4.49531 -3.97668,-6.83678c-1.21505,-2.21005 -3.54284,-6.84055 -3.54284,-6.84055c0,0 3.28762,-11.18733 12.74062,-23.20795z" fill-opacity="0.14118" fill="#000000" stroke="#ff0000" stroke-width="0" stroke-linecap="round" stroke-linejoin="miter"/><path d="M403.49175,137.0634c0,0 -11.03313,-20.17203 -13.64644,-24.65648c-7.80646,-13.39589 -17.8646,-19.69804 -17.8646,-19.69804c0,0 14.10982,-11.04374 20.76957,-17.38465c6.59164,-6.27607 17.95602,-20.46826 17.95602,-20.46826c0,0 9.4271,12.33845 8.23228,39.29354c-1.09845,24.78104 -15.44684,42.9139 -15.44684,42.9139z" data-paper-data="{&quot;index&quot;:null}" fill="#ffffff" stroke="#000000" stroke-width="4.5" stroke-linecap="butt" stroke-linejoin="round"/><path d="M411.28497,123.57722c0,0 -2.32779,4.6305 -3.54284,6.84055c-1.28729,2.34146 -3.97668,6.83678 -3.97668,6.83678c0,0 -11.33198,-21.74091 -16.58399,-29.05769c-5.08171,-7.07954 -14.80999,-15.14584 -14.80999,-15.14584l9.02342,-7.92889c0,0 7.52747,3.01166 17.14945,15.24715c9.453,12.02062 12.74062,23.20795 12.74062,23.20795z" data-paper-data="{&quot;index&quot;:null}" fill-opacity="0.14118" fill="#000000" stroke="#ff0000" stroke-width="0" stroke-linecap="round" stroke-linejoin="miter"/><path d="M189.69206,179.32778c0,0 -10.92854,-7.7658 -18.81375,-23.84025c-8.57697,-17.48467 -5.37652,-28.43089 -5.37652,-28.43089c0,0 12.1863,6.03853 18.69431,8.24682c6.57525,2.23111 14.39835,5.37616 14.39835,5.37616c0,0 -5.38088,7.13795 -7.1204,18.30576c-0.58232,3.73857 -1.782,20.34241 -1.782,20.34241z" fill="#ffffff" stroke="#000000" stroke-width="4.5" stroke-linecap="butt" stroke-linejoin="round"/><path d="M183.16516,151.82098c3.36921,-10.93558 6.52903,-13.38421 6.52903,-13.38421l8.71909,2.58455c0,0 -4.63972,8.20804 -6.24217,14.39216c-1.65616,6.39135 -2.61984,24.12156 -2.61984,24.12156c0,0 -3.2096,-2.18123 -4.80026,-3.35086c-1.50139,-1.10398 -4.49136,-3.48136 -4.49136,-3.48136c0,0 -0.40452,-10.13829 2.90551,-20.88183z" fill-opacity="0.14118" fill="#000000" stroke="#ff0000" stroke-width="0" stroke-linecap="round" stroke-linejoin="miter"/><path d="M410.30793,179.55905c0,0 -1.19968,-16.60384 -1.78201,-20.34241c-1.73952,-11.1678 -7.12039,-18.30576 -7.12039,-18.30576c0,0 7.82309,-3.14505 14.39835,-5.37616c6.50799,-2.20829 18.69431,-8.24683 18.69431,-8.24683c0,0 3.20046,10.94621 -5.37652,28.43089c-7.88519,16.07446 -18.81375,23.84025 -18.81375,23.84025z" data-paper-data="{&quot;index&quot;:null}" fill="#ffffff" stroke="#000000" stroke-width="4.5" stroke-linecap="butt" stroke-linejoin="round"/><path d="M419.74034,172.93407c0,0 -2.98997,2.37738 -4.49136,3.48136c-1.59066,1.16963 -4.80025,3.35086 -4.80025,3.35086c0,0 -0.96369,-17.73021 -2.61985,-24.12156c-1.60245,-6.18412 -6.24217,-14.39216 -6.24217,-14.39216l8.7191,-2.58455c0,0 3.15982,2.44863 6.52903,13.38421c3.31002,10.74354 2.9055,20.88183 2.9055,20.88183z" data-paper-data="{&quot;index&quot;:null}" fill-opacity="0.14118" fill="#000000" stroke="#ff0000" stroke-width="0" stroke-linecap="round" stroke-linejoin="miter"/><path d="M236.0528,87.45572c0,0 -2.21817,-3.62001 -1.47856,-12.01549c0.8536,-9.68943 6.48747,-16.7984 6.48747,-16.7984c0,0 4.58349,6.71565 8.19786,10.01459c3.65172,3.33302 9.49726,8.32177 9.49726,8.32177c0,0 -9.37422,3.1901 -13.31304,5.0078c-3.59839,1.66059 -9.391,5.46973 -9.391,5.46973z" fill="#ffffff" stroke="#000000" stroke-width="4.5" stroke-linecap="butt" stroke-linejoin="round"/><path d="M253.59191,72.97355l4.94916,4.17579c0,0 -7.74223,2.23111 -12.63547,3.85445c-4.89324,1.62335 -10.23825,3.73397 -10.23825,3.73397l-0.35899,-7.10994c0,0 0.28727,-1.80583 8.09293,-4.58654c7.54058,-2.68629 10.19062,-0.06773 10.19062,-0.06773z" fill-opacity="0.14118" fill="#000000" stroke="#ff0000" stroke-width="0" stroke-linecap="round" stroke-linejoin="miter"/><path d="M363.94721,87.68699c0,0 -5.79262,-3.80913 -9.39101,-5.46973c-3.93882,-1.8177 -13.31304,-5.0078 -13.31304,-5.0078c0,0 5.84554,-4.98875 9.49727,-8.32178c3.61437,-3.29894 8.19786,-10.01458 8.19786,-10.01458c0,0 5.63387,7.10896 6.48747,16.7984c0.73961,8.39548 -1.47856,12.01549 -1.47856,12.01549z" data-paper-data="{&quot;index&quot;:null}" fill="#ffffff" stroke="#000000" stroke-width="4.5" stroke-linecap="butt" stroke-linejoin="round"/><path d="M356.59871,73.27254c7.80566,2.78072 8.09293,4.58655 8.09293,4.58655l-0.35899,7.10994c0,0 -5.34501,-2.11063 -10.23825,-3.73398c-4.89324,-1.62335 -12.63548,-3.85445 -12.63548,-3.85445l4.94916,-4.17579c0,0 2.65004,-2.61856 10.19063,0.06773z" data-paper-data="{&quot;index&quot;:null}" fill-opacity="0.14118" fill="#000000" stroke="#ff0000" stroke-width="0" stroke-linecap="round" stroke-linejoin="miter"/></g></g></svg>