<svg version="1.1" xmlns="http://www.w3.org/2000/svg" xmlns:xlink="http://www.w3.org/1999/xlink" width="230.14186" height="230.14186" viewBox="0,0,230.14186,230.14186"><g transform="translate(-184.92913,-64.92911)"><g data-paper-data="{&quot;isPaintingLayer&quot;:true}" fill-rule="nonzero" stroke-linejoin="miter" stroke-miterlimit="10" stroke-dasharray="" stroke-dashoffset="0" style="mix-blend-mode: normal"><path d="M248.35096,196.85154c0.6584,0.17485 3.56877,0.83593 4.7654,1.47142c14.52193,0.07289 29.04424,0.00904 43.56635,-0.00225c14.94578,-0.01162 29.19611,-5.04037 43.81491,-7.46719c6.23224,-1.03459 12.63196,0.38145 18.62238,0.59219c7.48183,0.2632 25.61735,0.04469 29.37025,7.08138c0.50412,0.94522 20.28793,-3.18062 19.73186,-1.45726c-1.308,4.05381 -24.49653,14.97328 -24.61402,17.2174c-0.18629,3.55838 -1.14175,5.46125 -1.04166,9.0231c0.08147,2.89927 10.37507,13.06879 10.10742,16.37934c-0.14355,1.77561 -10.59695,-0.8791 -10.99858,0.66306c-0.80097,3.07551 -7.41179,0.41905 -10.85884,0.42631c-39.08103,0.08225 -41.31059,-0.25337 -62.73539,-0.41666c-8.49917,-0.06478 -17.45469,0.85738 -26.01461,0.625c-3.833,-0.10405 -6.83486,-5.20244 -9.32292,-5.20834c-11.06418,-0.02622 -22.12858,-0.05933 -33.19263,0c-5.38368,0.02887 -23.19799,4.17187 -23.19799,4.17187c0,0 -8.05158,0.89167 -8.28392,0.49935c-1.16098,-1.96038 3.18273,-4.67325 5.3769,-9.29623c1.33409,-2.81083 0.82301,-8.03491 0.82888,-9.29824c0.01814,-3.90109 -1.32538,-8.58341 -2.16477,-12.31628c-0.52434,-2.33176 -17.51776,-4.91165 -15.69063,-6.84464c1.01462,-1.07341 6.50328,-0.97639 12.17421,-2.06625c9.78019,-1.8796 21.74776,-4.82149 24.10378,-5.59371c0.35134,-0.11515 0.94567,-0.23245 1.61865,-0.30759c2.97529,-2.92247 11.23885,1.38167 14.03495,2.12421z" fill="#000000" stroke="none" stroke-width="0.5" stroke-linecap="butt"/><path d="M184.92913,295.07097v-230.14186h230.14186v230.14186z" fill="none" stroke="none" stroke-width="0" stroke-linecap="butt"/><path d="M226.85811,194.77904c9.18785,-0.3235 8.82772,1.98843 8.625,9.18507c-0.07925,2.81339 0.44331,6.8165 -1.54712,9.2974c-2.25509,2.81078 -5.56242,2.59199 -9.01781,2.72586c-5.66152,0.21935 -12.27894,0.99182 -14.48389,-5.62305c-0.21015,-0.63046 -1.17767,-11.66504 3.2751,-10.45065c0.34046,-0.08788 0.69746,-0.13464 1.06538,-0.13464c0.10763,0 0.21434,0.00401 0.31997,0.01187c3.66522,-0.00895 7.74405,-4.87035 11.76337,-5.01186z" fill="#ffffff" stroke="#000000" stroke-width="2.5" stroke-linecap="butt"/><path d="M283.36154,199.15404c3.95112,-0.30393 10.18532,-2.16225 13.60127,0.39522c3.77589,2.82695 -0.0265,11.93027 -3.39637,13.6152c-1.67751,0.83875 -3.86059,0.67733 -5.6625,0.94792c-4.51747,0.67837 -16.42718,3.90153 -17.78607,-2.90604c-0.14799,-0.7414 -0.53204,-5.65311 -0.46216,-8.07793c-0.33951,2.33363 -1.65143,6.8471 -2.5876,8.93559c-0.60248,1.34406 -0.41703,2.86186 -2.00086,3.65378c-1.19685,0.59842 -3.06538,0.67011 -4.27648,0.23758c-0.30225,-0.10795 -1.86146,-1.40103 -2.01603,-1.26438c-3.27051,2.89137 -14.64094,2.80438 -17.61149,-0.77714c-2.78852,-3.36206 -3.26172,-8.75536 -3.34682,-12.90326c-0.02521,-1.22859 -0.91879,-4.23032 0.37895,-4.97189c0,0 4.10354,-0.97171 6.74522,-0.76887c2.64168,0.20285 10.0739,2.21944 14.83417,2.42588c1.61233,0.06993 7.51602,1.1269 8.30066,2.11985c1.17785,1.49055 1.63585,2.94707 1.66188,4.36498c0.13779,-1.26862 0.45123,-2.36691 1.05705,-2.944c0.52956,-0.50445 3.10069,-2.85386 4.25771,-2.08251z" fill="#ffffff" stroke="#000000" stroke-width="2.5" stroke-linecap="butt"/><path d="M349.56644,187.69571c0.69666,0.22964 1.40525,0.41618 2.12371,0.56783c6.05418,1.27792 12.80813,0.07856 19.01193,1.31693c1.45474,0.29038 2.61395,1.40366 3.77556,2.03723c3.1973,1.74386 6.02854,0.41057 8.41668,3.3872c3.44725,4.29673 2.11485,19.93012 -3.44225,23.26438c-3.85681,2.31409 -13.04403,3.53565 -16.0749,0.20168c-1.33137,-1.46452 -1.50754,-5.30108 -3.03342,-6.28493c-0.67519,-0.43535 -0.83761,1.45174 -1.5265,1.86507c-1.64083,0.9845 -3.66847,2.18142 -5.70916,1.72793c-4.91721,-1.09271 -8.10584,-11.55612 -8.20833,-16.54166c-0.00344,-0.16714 -0.07298,-1.84898 -0.03564,-3.75284c-0.35954,0.95239 -0.82451,1.90255 -1.00506,2.9573c-0.81062,4.73554 0.39075,19.34358 -7.20946,18.92135c-1.65298,-0.09183 -2.94979,-2.0448 -3.49795,-3.55336c-0.08828,-0.24295 0.02373,-0.737 -0.23476,-0.73911c-8.61326,-0.07038 -16.74895,-0.80685 -25.19622,-0.80685c-1.74126,0 -5.31266,-1.2148 -6.24658,-2.77133c-1.52542,-2.54236 -2.60669,-6.68381 -1.04309,-9.46348c0.09229,-0.16405 0.21277,-0.32232 0.35656,-0.47498c0.60989,-0.78753 1.49034,-1.35497 2.50198,-1.56292c1.17741,-0.52096 2.43901,-0.93533 3.27993,-1.26245c3.01402,-1.17247 17.87699,-6.25046 21.11474,-5.44102l0.12156,-0.04053c4.69993,-0.36154 13.95475,-5.18829 16.93772,0.0319c0.14659,0.25654 0.26186,0.50581 0.35001,0.74895c0.15675,-1.13369 0.40939,-2.01027 0.81019,-2.2393z" fill="#ffffff" stroke="#000000" stroke-width="2.5" stroke-linecap="butt"/><path d="M218.80207,240.77904c-1.19207,0.79471 -4.18062,-1.62219 -4.82697,-2.35436c-2.79893,-3.17058 -0.80435,-7.6919 0.41425,-11.10397c2.45739,-6.8807 12.7558,-6.63474 18.52545,-6.91667c0.32788,-0.01602 1.89821,-4.89481 5.90358,-3.63216c2.64499,0.83381 3.26282,2.95372 4.8979,4.72948c3.80644,4.13397 5.32969,6.25711 4.42545,12.13596c-0.4293,2.79107 -1.36931,7.69589 -5.24197,7.35005c-1.12384,0 -2.14579,-0.43621 -2.90579,-1.14855c-0.98562,-0.19712 -3.21314,1.49023 -4.03817,0.94021z" fill="#ffffff" stroke="#000000" stroke-width="2.5" stroke-linecap="butt"/><path d="M248.85811,237.36238c-0.19288,-5.50535 -2.10733,-14.89755 3.99167,-18.60834c5.85951,-3.56507 11.14222,-1.53258 13.72683,4.37663c0.1223,0.27963 1.85593,-2.72671 1.85964,-2.73184c0.91892,-1.27019 3.16985,-1.92685 4.59818,-2.43697c5.16042,-1.84301 10.66595,-0.96793 13.37252,4.10689c0.49528,0.92865 0.304,3.46799 0.32618,4.23008c0.04782,1.64369 1.0447,3.40509 0.66981,5.35611c-0.35638,1.85462 -1.33068,2.99773 -2.5459,4.34393c-1.35706,1.50333 -2.68627,4.31583 -4.83224,5.08225c-4.54917,1.62471 -6.12889,-1.03585 -10.91689,-0.60411c-2.74025,0.24709 -17.61804,2.06381 -18.69321,0.18227c-1.24506,-0.69497 -1.4795,-1.58128 -1.55165,-3.09058c-0.00115,-0.0707 -0.00259,-0.1397 -0.00492,-0.20633z" fill="#ffffff" stroke="#000000" stroke-width="2.5" stroke-linecap="butt"/><path d="M369.74553,222.25256c4.48845,0.99743 9.84215,0.95819 13.30185,4.41789c3.34535,3.34535 5.43213,11.57873 0.7274,14.20234c-1.75321,0.97768 -4.08092,-0.47275 -6.50835,-0.36463c-4.01252,0.17872 -8.29753,1.3678 -10.71062,0.88612c-4.10721,-0.81986 -3.53461,-4.89857 -3.9477,-8.02849c-0.06074,-0.46022 -0.59871,-0.95456 -1.15847,-1.49731c0.46611,5.73627 -3.94663,8.89571 -10.21653,8.91057c-7.29165,0.01728 -9.58335,0.01372 -16.875,0c-0.40028,-0.00075 -5.95608,-0.10022 -6.13751,-0.41773l-4.19188,-0.63359c-1.14078,-0.65187 -1.15551,-4.45214 -1.21228,-5.48618c-0.06187,-1.12685 -0.1483,-2.27845 -0.20573,-3.43041c-0.0634,3.21198 -1.24208,6.36267 -3.79345,8.86497c-0.90659,0.88915 -11.89805,0.89868 -13.834,1.22873c-4.71684,0.80417 -14.85618,-0.7508 -15.00016,-0.7508c-2.34721,0 -3.625,0.38888 -3.625,-1.95833c0,-1.51728 0.7951,-2.84886 1.99137,-3.60081c0.05714,-0.16937 0.0904,-0.33632 0.09197,-0.50093c0.04841,-5.05569 -1.7198,-10.01165 -1.61657,-14.86324c0.01664,-0.78235 2.24825,-2.64821 2.85593,-3.19192c2.01922,-1.80667 5.34232,1.7527 6.77478,2.79843c1.21492,0.88692 2.68412,-1.44021 4.15252,-1.76652c3.84249,-0.85388 11.27861,-1.98631 14.49304,0.05924c0.78352,0.4986 3.8352,1.65052 5.03285,3.74767c2.21688,3.8819 2.63058,9.48601 2.63058,9.48601c0,0 1.89016,-10.0759 3.38437,-11.35665c2.15316,-1.84556 6.68565,-1.27866 8.50164,0.41666c0.32087,0.29955 1.95971,2.9934 2.22725,3.06374c2.32254,0.61056 5.62901,-1.37101 7.89693,-1.875c4.98894,-1.10865 12.0952,1.11465 14.77936,5.58825c0.35896,0.59826 0.66517,1.20001 0.92088,1.8012c1.25741,-3.46254 5.59827,-5.72279 9.2308,-5.72279z" fill="#ffffff" stroke="#000000" stroke-width="2.5" stroke-linecap="butt"/><path d="M195.39976,202.50127l13.9196,-1.83103c0,0 16.34614,-6.43573 23.5804,-6.5023c14.99123,-0.13796 34.95151,6.7591 55.83334,5.27778c20.88182,-1.48132 36.19536,-10.57586 63.61111,-11.66667c27.41575,-1.09081 36.11111,10 36.11111,10l20,-1.38889" fill="none" stroke="#000000" stroke-width="2.5" stroke-linecap="round"/><path d="M207.34422,240.55682h184.72223" fill="none" stroke="#000000" stroke-width="2.5" stroke-linecap="round"/><path d="M207.69144,204.44571c0,-1.55985 0.84033,-2.92342 2.09298,-3.66272l0.03202,-0.05603l0.12167,-0.03042c0.59687,-0.3196 1.27894,-0.50083 2.00333,-0.50083h0.9854l1.40411,-0.17551l0.02974,0.0036l0.02808,-0.01043l1.875,-0.20833l0.18972,0.02564l0.04921,-0.88579l0.59475,-0.50978l0.08788,-0.28361l0.58321,-0.2916l0.39724,-0.34049l1.25,-0.625l0.51074,-0.1135l0.46796,-0.23398l1.875,-0.41667l0.29225,0.00769l0.27676,-0.09422l2.48408,-0.20701l1.29935,-0.11812l0.02256,-0.00501l0.02527,0.00066l0.24983,-0.02271l0.11971,-0.04634l1.66667,-0.20833l0.26661,0.03232l0.26054,-0.06514h0.11842l0.8092,-0.17982l0.94738,-0.23684h0.11842l0.11916,-0.02648l0.03972,0.02648h4.0977l0.50758,0.12689h0.5232l1.66667,0.41667l0.41298,0.22026l0.31282,0.06952h0.32676l0.07292,0.01823l0.30208,-0.52865l1.02157,-0.25539l0.03537,-0.04336l0.0266,-0.00213l0.20148,-0.18027l0.48909,0.03762l0.35089,-0.08772h0.41667l0.34461,0.08615l0.35409,-0.02833l1.20126,0.20021l1.40942,0.20135l0.27247,0.11101l0.29405,0.0098l1.29294,0.36941l1.91466,0.38293l0.09365,0.04436h0.10363l0.73522,0.1838l0.8753,0.17506l2.4324,0.4054l0.22436,0.09755l0.24451,0.00815l1.29294,0.36941l0.46033,0.09207h0.62083l0.50758,0.12689h0.5232l1.99242,0.49811h0.03283l0.03972,-0.02648l0.11916,0.02648h0.11842l0.94738,0.23684l0.8092,0.17982h24.28509l0.41067,0.10267l0.42283,-0.02013l0.62901,0.1258h11.31076l0.83545,-0.13924l0.97447,-0.19489l0.42283,0.02013l0.41067,-0.10267h1.49128l0.55426,-0.04264l0.66279,-0.1657h0.24128l0.03924,-0.00302l0.14704,-0.07842l0.83333,-0.20833h0.5232l0.50758,-0.12689h0.22319l0.28173,-0.11269l0.79753,-0.10875l0.07277,-0.01819l0.094,-0.05013l1.50832,-0.37708l1.09516,-0.36505l0.65304,-0.05023l0.07681,-0.04097l0.67499,-0.16875l0.47016,-0.15672l0.26777,-0.0206l0.24271,-0.11497l0.78221,-0.15644l0.37398,-0.12466l0.33612,-0.02586l0.30915,-0.13441l0.99322,-0.16554l0.34136,-0.18206l0.83333,-0.20833h0.10363l0.09365,-0.04436l0.30984,-0.06197l0.06532,-0.11431l0.92875,-0.23219l0.90156,-0.32199l0.12879,0.0644l0.16589,-0.04147h0.4125l0.36955,-0.07391l0.37398,-0.12466l0.33612,-0.02586l0.30915,-0.13441l0.22776,-0.03796l0.00426,-0.0032l0.51691,-0.21765l0.45468,-0.32838l1.04167,-0.41667l0.79753,-0.10875l0.78088,-0.19522h2.43532l0.51954,-0.17318l0.10322,-0.51609l1.84796,-1.17597l0.33846,-0.11282l0.14652,-0.07326l0.55415,-0.12314l0.51302,-0.24301l0.9425,-0.1885l0.73522,-0.1838h0.5232l0.50758,-0.12689h2.18513l0.32576,-0.08144h0.5232l0.50758,-0.12689h22.91667l0.50758,0.12689h0.5232l0.83333,0.20833l0.14704,0.07842l0.16615,0.01278l0.26144,0.08715l1.07896,0.15414l0.20662,0.08418h0.22311l1.15909,0.28977h2.74117l0.03972,-0.02648l0.11916,0.02648h0.11842l0.83333,0.20833h0.625l0.50758,0.12689h0.5232l0.83333,0.20833l0.1527,0.08144h0.48319l0.66279,0.1657l0.68118,0.0524l0.47016,0.15672l0.62074,0.15519l1.62463,0.36103l1.46765,0.18346l0.50971,0.19731l0.54155,0.07385l1.96737,0.78695l0.24344,0.08115l0.04606,-0.01256l0.10467,0.0628l0.11235,0.03745l0.68719,0.4373l0.26067,0.05213l0.24271,0.11497l0.26777,0.0206l1.09516,0.36505l0.67499,0.16875l0.06414,0.03421l0.07265,0.00242l1.45833,0.41667l0.31119,0.17953l0.80202,0.20051l0.41298,0.22026l0.4569,0.10153l0.41667,0.20833l0.04361,0.03738l0.18073,0.04518l0.1229,0.21507l0.13464,0.1154l0.16428,0.08762l0.01971,0.07009l0.9972,0.85475l0.0723,1.30138l0.61397,1.07444l-0.50516,0.88404l0.05648,1.01662l-1.02966,0.68644l-0.64666,1.13166l-1.68132,0.42033l-0.2061,0.1374l-0.18185,-0.04041l-0.05573,0.01393h-2.91667l-0.47062,-0.11766l-0.48503,0.00882l-2.70833,-0.625l-0.03539,-0.01806h-0.03973l-1.50201,-0.3755l-1.08258,-0.18043l-0.30915,-0.13441l-0.33612,-0.02586l-1.25,-0.41667l-0.0681,-0.04334l-0.0802,-0.00917l-1.38745,-0.52029l-1.35962,-0.30214l-1.64666,-0.18296l-0.33794,-0.12552l-0.36029,-0.01201l-1.29294,-0.36941l-0.80579,-0.16116l-1.1824,-0.19707l-0.06452,-0.02805l-0.07028,0.00335l-0.8894,-0.17788l-2.9167,-0.36459h-2.44374l-0.50758,-0.12689h-0.5232l-0.83333,-0.20833l-0.14704,-0.07842l-0.03924,-0.00302h-4.44813l0.07382,0.51671l0.18894,1.13366l0.74337,3.71684l0.68842,1.72104l0.0395,0.28967l0.13758,0.25796l0.41667,1.66667v0.17322l0.06907,0.15886l0.20833,1.25l-0.02833,0.35409l0.08615,0.34461v0.01486l0.11269,0.28173l0.0395,0.28967l0.13758,0.25796l0.20833,0.83333v0.5232l0.12689,0.50758v1.38936l0.02648,0.03972l-0.02648,0.11916v0.11842l-0.23684,0.94738l-0.01512,0.06803l0.00091,0.0023l-0.002,0.00257l-0.19564,0.88038l-0.05296,0.10592l-0.02961,0.11842l-0.04145,0.02368l-0.08432,0.16864l-1.42549,1.66308l-0.49421,0.02746l-0.30388,0.39071l-2.17877,0.22539l-1.45833,-0.20833l-0.42996,-0.17517l-0.46127,-0.05272l-3.10668,-1.165l-3.09849,-0.77462l-0.41298,-0.22026l-0.02425,-0.00539l-0.04842,0.02905l-0.04554,0.13661l-0.86518,0.40982l-0.82091,0.49255l-0.13892,-0.03789l-0.15453,0.0732l-0.9425,0.1885l-0.73522,0.1838h-0.5232l-0.50758,0.12689h-2.29167l-0.34461,-0.08615l-0.35409,0.02833l-1.25,-0.20833l-0.50559,-0.21982l-0.16029,0.06932l-0.77644,-0.32692l-0.81731,-0.20433l-0.1052,-0.1841l-0.3198,-0.13465l-0.73896,-0.55422l-0.22825,-0.15216l-0.18289,-0.04572l-0.59247,-0.01975l-1.45833,-0.41667l-0.08201,-0.04731l-0.0944,-0.00726l-1.25,-0.41667l-0.0345,-0.02195l-0.79478,-0.17662h-21.99342l-0.15025,-0.03756l-0.15255,0.02676l-2.91667,-0.20833l-0.25875,-0.08468l-0.27194,0.01295l-1.04167,-0.20833l-0.51302,-0.24301l-0.55415,-0.12314l-0.25855,-0.12928l-0.87753,-0.35101l-0.31016,-0.224l-0.36393,-0.11803l-1.66667,-1.04167l-0.04455,-0.0462l-0.06044,-0.02158l-0.32796,-0.21864l-0.54462,0.32677l-0.69581,0.21177l-0.65731,0.31136l-0.36408,0.07282l-0.31319,0.11186l-0.47892,0.30476l-0.2686,0.08953l-0.24747,0.14848l-0.16124,0.28217l-0.52978,0.13245l-0.46827,0.28096l-0.31353,-0.08551l-0.81342,0.20335h-0.03838l-0.35263,0.17632l-0.12475,0.02772l-0.10175,0.07733l-1.00325,0.42996l-0.00424,0.00742l-0.03137,0.00784l-0.41947,0.17977l-0.84439,0.13619l-0.07319,0.0183l-0.31425,0.15713l-0.55415,0.12314l-0.51302,0.24301l-0.60774,0.12155l-1.05159,0.45068l-0.05257,0.00848l-0.04317,0.03118l-1.04167,0.41667l-0.12663,0.01727l-0.10782,0.06861l-2.5,0.83333l-0.47381,0.03645l-0.44727,0.16056l-2.08333,0.20833l-0.21353,-0.03125l-0.20936,0.05234h-7.5l-0.50758,-0.12689h-0.5232l-0.71938,-0.17984l-0.33334,0.01587l-1.04167,-0.20833l-0.35534,-0.16832l-0.38958,-0.05312l-1.04167,-0.41667l-0.3604,-0.26029l-0.41867,-0.14952l-0.35977,-0.23985l-0.24832,-0.08277l-0.34211,0.17106l-0.22155,0.04923l-0.18683,0.12885l-1.66667,0.625l-0.75502,0.08629l-0.73725,0.18431h-4.99583l-1.41122,0.28224l-0.37398,0.12466l-0.68118,0.0524l-0.66279,0.1657h-4.3382l-0.17932,0.11955l-0.53459,0.19093l-0.47892,0.30476l-1.25,0.41667l-0.68118,0.0524l-0.66279,0.1657h-4.16667l-0.31891,-0.07973l-0.32733,0.03031l-2.70833,-0.41667l-0.40721,-0.17103l-0.43882,-0.05015l-1.45245,-0.54467l-0.26556,0.07243l-0.46827,-0.28096l-0.52978,-0.13245l-0.16124,-0.28217l-0.32366,-0.19419l-0.09095,0.03898l-0.5057,0.08156l-0.46976,0.20424l-1.25,0.20833l-0.35409,-0.02833l-0.08589,0.02147l-0.16475,0.05492l-0.07933,0.0061l-0.01464,0.00366h-0.03295l-0.55426,0.04264l-0.66279,0.1657h-5.65795l-0.55426,0.04264l-0.66279,0.1657h-1.66667l-2.125,-0.53125l-2.125,-3.71875l2.125,-3.71875l2.125,-0.53125h1.07461l0.55426,-0.04264l0.66279,-0.1657h5.65795l0.55426,-0.04264l0.66279,-0.1657h0.27326l0.3981,-0.06635l0.98782,-0.42335l0.17804,-0.02872l0.15215,-0.09682l0.625,-0.20833l0.26777,-0.0206l0.24271,-0.11497l1.04167,-0.20833l0.42283,0.02013l0.41067,-0.10267h0.41667l0.70196,0.17549l0.2358,0.01123l0.05313,0.061l0.7372,0.1843l0.18736,-0.01292l0.09067,0.08243l0.11888,0.02972l0.09318,0.16306l1.31804,1.19822l0.30442,0.45663l0.15673,0.05877l1.95265,0.30041h3.15198l0.05577,-0.01859l0.77644,-0.51762l0.16103,-0.05751l0.07144,-0.12502l0.92875,-0.23219l0.90156,-0.32199l0.12879,0.0644l0.16589,-0.04147h5.03295l0.14085,-0.01083l0.24271,-0.11497l2.08333,-0.41667l0.42283,0.02013l0.41067,-0.10267h4.64599l0.14925,-0.05597l0.14994,-0.59974l0.21184,-0.95328l0.05296,-0.10592l0.02961,-0.11842l0.04145,-0.02368l0.70932,-1.41864l0.14901,-0.17385l-0.02094,-0.01047l-0.16767,-0.04192h-0.5232l-1.60754,-0.40189l-0.23668,0.4142l-1.68132,0.42033l-0.2061,0.1374l-0.18185,-0.04041l-0.05573,0.01393h-1.80603l-0.03972,0.02648l-0.11916,-0.02648h-0.11842l-0.94738,-0.23684l-0.06595,-0.01466l-0.00438,0.00045l-1.15933,-0.16562h-0.04566l-0.03972,0.02648l-0.11916,-0.02648h-0.11842l-0.94738,-0.23684l-0.95328,-0.21184l-0.10592,-0.05296l-0.11842,-0.02961l-0.02368,-0.04145l-0.01371,-0.00686l-0.27268,-0.04545h-0.27326l-0.41067,-0.10267l-0.42283,0.02013l-1.61441,-0.32288l-0.02284,0.01523l-0.11916,-0.02648h-0.11842l-0.94738,-0.23684l-0.95328,-0.21184l-0.10592,-0.05296l-0.11842,-0.02961l-0.02368,-0.04145l-0.16803,-0.08401l-0.13176,-0.03294l-1.41201,-0.1765l-0.39476,-0.15281l-0.42206,-0.03247l-0.59571,-0.19857h-0.35199l-0.66279,-0.1657l-0.68118,-0.0524l-0.625,-0.20833l-0.23621,-0.15032l-1.02635,-0.25659h-2.77249l-1.7152,0.91477l-0.38073,0.09518l-0.83272,0.41636l-0.29861,0.06636l-0.25808,0.16423l-0.33846,0.11282l-0.14652,0.07326l-0.29861,0.06636l-0.25808,0.16423l-0.33846,0.11282l-2.22985,1.11492l-0.29861,0.06636l-0.25808,0.16423l-0.08506,0.02835l-0.15144,0.10096l-0.68495,0.24462l-0.64175,0.34227l-0.83333,0.20833h-0.31315l-0.29474,0.1058l-2.08333,0.20833l-0.21353,-0.03125l-0.20936,0.05234h-2.05628l-1.61212,0.17912l-1.63778,0.20472l-0.26661,-0.03232l-0.26054,0.06514h-1.25c-0.7244,0 -1.40646,-0.18123 -2.00333,-0.50083l-0.12167,-0.03042l-0.03202,-0.05603c-1.25265,-0.73929 -2.09298,-2.10287 -2.09298,-3.66272zM275.27113,210.61237l1.40089,-0.14009l1.93196,-0.64399l0.87759,-0.35104l1.4107,-0.60459l0.43889,-0.07079l0.40177,-0.19031l0.48357,-0.09671l0.07624,-0.03812l0.02368,-0.04145l0.11842,-0.02961l0.10592,-0.05296l0.95328,-0.21184l0.35375,-0.08844l0.88801,-0.38058l0.89027,-0.44513l0.02368,-0.04145l0.11842,-0.02961l0.03875,-0.01938l-0.53634,-0.10727h-13.0375v0.33333l-0.12689,0.50758v0.5232l-0.20833,0.83333l-0.01137,0.02131l0.02042,0.07486l-0.54309,0.90514l-0.2051,0.38457zM327.08079,207.27904l0.03972,-0.02648l0.11916,0.02648h0.11842l0.94738,0.23684l0.95328,0.21184l0.10592,0.05296l0.11842,0.02961l0.02368,0.04145l0.06574,0.03287l0.37955,0.0292l1.16239,0.38746l0.76977,0.21993l0.02796,-0.01864l0.11916,0.02648h0.11842l0.94738,0.23684l0.95328,0.21184l0.10592,0.05296l0.11842,0.02961l0.02368,0.04145l0.58531,0.29265l0.20391,0.17478l0.25291,0.09033l0.625,0.41667l0.08123,0.08935l0.11129,0.04686l0.12331,0.09248l0.57669,0.09611v-0.95527l0.12689,-0.50758v-0.65205l0.21437,-0.20544l0.18998,-0.75994l1.49357,-0.85347l1.1944,-1.14464l0.54196,0.15243l0.48881,-0.27932l1.43636,0.82078l1.65597,0.46574l0.36862,0.69117l0.2578,0.14731l0.15814,0.63258l0.24621,0.46165l0.09139,0.36554l1.22722,0.61361l1.67555,0.41889l-0.12875,-0.515l-0.72621,-1.81553l-0.05312,-0.38958l-0.16832,-0.35534l-0.83333,-4.16667l0.00335,-0.07028l-0.02805,-0.06452l-0.20833,-1.25l0.00405,-0.05062l-0.01916,-0.04703l-0.20833,-1.45833l0.03148,-0.30428l-0.07419,-0.29677v-0.95833h-0.15795l-0.03924,0.00302l-0.14704,0.07842l-0.83333,0.20833h-0.10363l-0.09365,0.04436l-1.04167,0.20833l-0.42283,-0.02013l-0.41067,0.10267h-1.14347l-0.32576,0.08144h-0.17322l-0.15886,0.06907l-1.25,0.20833l-0.05062,-0.00405l-0.04703,0.01916l-0.89296,0.12757l-0.42737,0.09497l-0.68866,0.17216l-0.16475,0.05492l-0.07933,0.0061l-0.01464,0.00366h-0.03295l-0.13073,0.01006l-0.07391,0.01642l-0.01444,-0.00963l-0.33518,0.02578l-0.40407,0.10102l-0.16475,0.05492l-0.07933,0.0061l-0.01464,0.00366h-0.03295l-0.44936,0.03457l-0.65365,0.14526l-0.94738,0.23684h-0.11842l-0.11916,0.02648l-0.03972,-0.02648h-0.24117l-0.32576,0.08144h-0.10363l-0.09365,0.04436l-0.78221,0.15644l-0.37398,0.12466l-0.68118,0.0524l-0.66279,0.1657h-0.35199l-0.59571,0.19857l-0.68118,0.0524l-0.66279,0.1657h-2.19444l-0.07925,0.05944l-0.01886,0.05103l-0.11703,0.05088l-0.04042,0.03031l-0.92795,0.39072l-0.92335,0.40146l-0.04984,0.00831l-0.11761,0.04952l-0.04994,-0.0216l-0.70369,0.11728l-0.30865,0.10288l-0.26777,0.0206l-0.24271,0.11497l-1.04167,0.20833l-0.42283,-0.02013l-0.18664,0.04666l-0.10257,0.03663l-0.7463,0.35351l-0.9425,0.1885l-0.73522,0.1838h-0.05734l-0.10919,0.02426l-0.58222,0.25314l-0.92108,0.15351l-0.30865,0.10288l-0.26777,0.0206l-0.24271,0.11497l-0.78221,0.15644l-0.37398,0.12466l-0.16615,0.01278l-0.14704,0.07842l-0.83333,0.20833h-0.37708l-0.9764,0.32547l-0.16615,0.01278l-0.14704,0.07842l-1.66667,0.41667h-0.31173l-0.59897,0.23959l-0.79753,0.10875l-0.78088,0.19522h-0.51847l-0.16741,0.04185l-0.47016,0.15672l-0.68118,0.0524l-0.06557,0.01639l-0.46627,0.81597z" fill-opacity="0.22353" fill="#000000" stroke="none" stroke-width="0.5" stroke-linecap="butt"/><path d="M328.09026,228.52632c-0.05769,0.12488 -1.37421,3.1183 -1.0655,3.12772c6.08051,0.18542 12.1667,-0.0191 18.25,0c3.92932,0.01234 5.41589,1.57176 10.75,0.20833c0.98272,-0.25119 -0.04675,-2.03578 0.08253,-3.04183c0.39899,-3.1048 2.5485,-6.6082 6.25745,-5.86641c2.88509,0.57702 5.06903,7.8516 6.83451,7.86657c7.46664,0.0633 21.18212,-3.63233 17.41405,7.67187c-0.86082,2.58246 -14.96086,2.27126 -15.9177,2.28646c-3.79104,0.06024 -7.62466,0.87888 -10.81667,-0.94271c-0.16051,-0.0916 -1.84172,0.52138 -2.10417,0.52604c-4.24503,0.07547 -8.48983,-0.17352 -12.73539,-0.20833c-6.86575,-0.05629 -13.73217,0.05351 -20.59795,0c-0.84955,-0.00662 -1.9012,-0.29213 -2.84681,-0.75276c-0.8448,0.52701 -1.77986,0.91452 -2.80215,1.12671c-8.87168,1.84143 -24.53179,3.76135 -31.26771,-0.2802c-1.49178,-0.89507 -2.29867,-2.88893 -2.69721,-5.29928c-4.45025,5.26829 -13.31757,5.45003 -21.99653,5.6222c-3.42856,0.06801 -8.98318,1.49613 -12.01542,-1.10293c-1.03294,-0.88538 -1.72103,-2.15078 -2.16625,-3.61732c-0.17358,0.66874 -0.40174,1.26896 -0.69751,1.76192c-0.92247,1.53745 -2.59194,4.03844 -4.4668,4.50716c-0.83174,0.20794 -3.40868,0.3428 -4.08528,-0.41341c-0.37905,-0.42364 -1.02415,-2.22025 -1.76478,-2.53217c-0.726,-0.30576 -3.73292,0.46965 -4.47544,0.54597c-5.95384,0.61193 -16.95614,3.2289 -20.35353,-3.56588c-1.74428,-3.48856 0.14178,-8.89094 1.74107,-12.01994c0.47961,-0.93836 2.37819,-3.72594 3.62063,-3.38709c0.34046,-0.08789 0.69746,-0.13464 1.06538,-0.13464c2.34721,0 4.25,1.90279 4.25,4.25c0.60484,0.7812 -2.70239,5.78299 -2.65203,6.96465c0.08634,2.02597 4.05607,0.083 6.08331,0.03535c2.7517,-0.06467 5.50701,-0.71797 8.25385,-0.83333c0.26951,-0.01132 1.79027,-2.94129 2.10133,-3.33854c2.92157,-3.73103 2.71613,-8.29158 8.65586,-7.46278c1.17504,0.16396 1.94957,1.63933 2.39937,3.09868c0.09872,-1.00051 0.1815,-1.83626 0.19997,-2.42236c0,-0.06288 0.00137,-0.12544 0.00407,-0.18765c0.0982,-2.26014 1.9616,-4.06235 4.24593,-4.06235c1.38307,0 2.61184,0.66066 3.38794,1.68361c0.12667,0.13084 0.23819,0.27673 0.33081,0.44139c2.20791,3.92511 -0.83117,9.20754 0.53125,13.5c0.22511,0.70924 4.40777,-0.1986 5.54167,-0.20833c6.09476,-0.05233 11.01907,0.72714 15.84835,-2.74287c2.12386,-1.52607 -0.469,-6.73022 1.26624,-8.46546c1.70335,-1.70335 3.92007,-2.27313 5.58725,-1.60029c0.37764,-1.96048 2.10246,-3.44138 4.17317,-3.44138c1.55507,0 2.91507,0.83519 3.65591,2.08148c0.28242,0.36028 0.46396,0.83495 0.54744,1.53661c0.03073,0.20617 0.04666,0.41718 0.04666,0.6319c0.14778,4.13626 -4.17008,12.39195 -0.03125,12.41667c7.72813,0.04615 16.34683,3.33682 23.18327,-0.26725c3.56798,-1.88098 -0.68022,-7.82384 0.68974,-10.4894c1.36646,-2.65875 3.49882,-3.72637 5.42665,-3.08392c0.17423,-0.26202 0.51961,-0.65929 0.9686,-1.08657c0.47467,-0.64736 1.1282,-1.15536 1.8878,-1.4512c1.37401,-0.81229 2.87876,-1.13623 3.69887,0.29896c1.25265,0.73929 2.09298,2.10287 2.09298,3.66272c0,1.16592 -0.46949,2.22219 -1.22973,2.99006c-0.73773,1.84083 -1.46272,3.67892 -2.2881,5.46555z" fill-opacity="0.22353" fill="#000000" stroke="none" stroke-width="0.5" stroke-linecap="butt"/></g></g></svg>