<svg version="1.1" xmlns="http://www.w3.org/2000/svg" xmlns:xlink="http://www.w3.org/1999/xlink" width="315.24589" height="315.24589" viewBox="0,0,315.24589,315.24589"><defs><radialGradient cx="238.38393" cy="185.9375" r="49.0625" gradientUnits="userSpaceOnUse" id="color-1"><stop offset="0" stop-color="#000000"/><stop offset="1" stop-color="#000000" stop-opacity="0.59216"/></radialGradient><radialGradient cx="359.32143" cy="184.78531" r="49.0625" gradientUnits="userSpaceOnUse" id="color-2"><stop offset="0" stop-color="#000000"/><stop offset="1" stop-color="#000000" stop-opacity="0.59216"/></radialGradient><radialGradient cx="235.1082" cy="164.60899" r="40.84091" gradientUnits="userSpaceOnUse" id="color-3"><stop offset="0" stop-color="#ff0000"/><stop offset="1" stop-color="#730000"/></radialGradient><radialGradient cx="236.89669" cy="170.34105" r="18.88483" gradientUnits="userSpaceOnUse" id="color-4"><stop offset="0" stop-color="#ffffff" stop-opacity="0.43922"/><stop offset="1" stop-color="#ffffff" stop-opacity="0"/></radialGradient><radialGradient cx="364.8918" cy="164.60899" r="40.84091" gradientUnits="userSpaceOnUse" id="color-5"><stop offset="0" stop-color="#ff0000"/><stop offset="1" stop-color="#730000"/></radialGradient><radialGradient cx="363.10331" cy="170.34105" r="18.88483" gradientUnits="userSpaceOnUse" id="color-6"><stop offset="0" stop-color="#ffffff" stop-opacity="0.43922"/><stop offset="1" stop-color="#ffffff" stop-opacity="0"/></radialGradient></defs><g transform="translate(-142.37706,-22.37707)"><g data-paper-data="{&quot;isPaintingLayer&quot;:true}" fill-rule="nonzero" stroke-linejoin="miter" stroke-miterlimit="10" stroke-dasharray="" stroke-dashoffset="0" style="mix-blend-mode: normal"><path d="M236.50893,209.6875c-37.56395,-2.69847 -49.6875,-37.5 -49.6875,-37.5l14.6875,-1.25c0,0 25.48561,8.62769 38.50752,10.43222c14.60791,2.02432 44.92998,1.13028 44.92998,1.13028c0,0 -15.91715,29.52365 -48.4375,27.1875z" fill="url(#color-1)" stroke="#ff0000" stroke-width="0" stroke-linecap="butt"/><path d="M312.75893,181.34781c0,0 30.32207,0.89404 44.92998,-1.13028c13.02191,-1.80453 38.50752,-10.43222 38.50752,-10.43222l14.6875,1.25c0,0 -12.12356,34.80153 -49.6875,37.5c-32.52036,2.33615 -48.4375,-27.1875 -48.4375,-27.1875z" data-paper-data="{&quot;index&quot;:null}" fill="url(#color-2)" stroke="#ff0000" stroke-width="0" stroke-linecap="butt"/><path d="M210.37967,134.86554c0,0 19.01101,17.72319 30.80161,25.33926c12.26705,7.92384 43.65903,21.23178 43.65903,21.23178c0,0 -26.69299,2.26145 -39.58803,0.72646c-13.3582,-1.59013 -39.22073,-10.10766 -39.22073,-10.10766c0,0 -2.4669,-13.07746 -1.80272,-18.75829c0.7696,-6.58247 6.15082,-18.43155 6.15082,-18.43155z" fill="url(#color-3)" stroke="#c60000" stroke-width="0" stroke-linecap="round"/><path d="M142.37706,337.62296v-315.24589h315.24589v315.24589z" fill="none" stroke="#000000" stroke-width="0" stroke-linecap="butt"/><path d="M212.9055,136.02215c1.17005,0.90145 3.01955,1.34506 3.73557,2.55411c0.09022,0.15235 0.16245,0.31686 0.21306,0.49596c0.40442,1.43143 -3.14907,8.53115 -3.97141,17.19138c-0.8416,8.86319 1.04266,19.27442 1.04266,19.27442c0,0 -3.68956,-0.87146 -4.5613,-1.44236c-1.65941,-1.08675 -3.68566,-1.4797 -3.76213,-3.42779c-0.33164,-8.4489 -1.36844,-17.2539 1.31646,-25.44981c0.45842,-1.39937 1.06119,-7.4064 2.7675,-7.90295z" fill-opacity="0.58824" fill="#2b0000" stroke="none" stroke-width="0.5" stroke-linecap="butt"/><path d="M281.54959,182.3378l-16.1438,0.91941c0,0 1.28556,-2.91416 1.77604,-4.46416c0.40293,-1.27331 0.9562,-4.17003 0.9562,-4.17003z" fill-opacity="0.58824" fill="#2b0000" stroke="#c60000" stroke-width="0" stroke-linecap="round"/><path d="M284.33967,181.96263c0,0 -23.7996,3.16384 -48.00965,-1.19763c-15.60189,-2.81069 -35.87263,-10.40918 -35.87263,-10.40918" fill="none" stroke="#000000" stroke-width="4" stroke-linecap="round"/><path d="M207.5591,172.47698c0,0 -2.93185,-3.647 -2.42798,-16.61743c0.54442,-14.01412 5.16451,-19.03998 5.16451,-19.03998" fill="none" stroke="#000000" stroke-width="4" stroke-linecap="round"/><path d="M230.91982,170.11044c0.12736,-3.30093 2.90654,-5.87363 6.20747,-5.74627c3.30093,0.12736 5.87363,2.90655 5.74627,6.20748c-0.12736,3.30093 -2.90655,5.87362 -6.20748,5.74626c-3.30093,-0.12736 -5.87362,-2.90654 -5.74626,-6.20747z" fill-opacity="0.81176" fill="#ffffff" stroke="none" stroke-width="0" stroke-linecap="butt"/><path d="M224.3474,159.86253c0.08872,-2.29953 2.02478,-4.09174 4.32431,-4.00302c2.29953,0.08872 4.09174,2.02478 4.00302,4.32431c-0.08872,2.29953 -2.02478,4.09174 -4.32431,4.00301c-2.29953,-0.08872 -4.09174,-2.02478 -4.00302,-4.32431z" fill-opacity="0.81176" fill="#ffffff" stroke="none" stroke-width="0" stroke-linecap="butt"/><path d="M220.83871,167.82464c0.06583,-1.7061 1.50226,-3.03581 3.20836,-2.96998c1.7061,0.06583 3.03581,1.50226 2.96998,3.20836c-0.06583,1.7061 -1.50226,3.0358 -3.20836,2.96998c-1.7061,-0.06583 -3.03581,-1.50226 -2.96998,-3.20836z" fill-opacity="0.81176" fill="#ffffff" stroke="none" stroke-width="0" stroke-linecap="butt"/><path d="M286.47856,180.40999c0,0 -33.16849,-12.83269 -46.63083,-21.15787c-11.66098,-7.21121 -29.5181,-25.93302 -29.5181,-25.93302" fill="none" stroke="#000000" stroke-width="6.5" stroke-linecap="round"/><path d="M218.0259,169.61295c0.40211,-10.42205 9.17683,-18.54482 19.59888,-18.1427c10.42205,0.40211 18.54481,9.17684 18.1427,19.59889c-0.40211,10.42205 -9.17683,18.54481 -19.59888,18.1427c-10.42205,-0.40211 -18.54481,-9.17683 -18.1427,-19.59888z" fill="url(#color-4)" stroke="none" stroke-width="0" stroke-linecap="butt"/><path d="M389.62035,134.86554c0,0 5.38123,11.84908 6.15082,18.43156c0.66418,5.68082 -1.80272,18.75829 -1.80272,18.75829c0,0 -25.86253,8.51753 -39.22072,10.10765c-12.89504,1.53499 -39.58803,-0.72645 -39.58803,-0.72645c0,0 31.39198,-13.30794 43.65903,-21.23178c11.79061,-7.61607 30.80161,-25.33926 30.80161,-25.33926z" data-paper-data="{&quot;index&quot;:null}" fill="url(#color-5)" stroke="#c60000" stroke-width="0" stroke-linecap="round"/><path d="M390.31409,137.31513c1.70632,0.49654 2.30908,6.50358 2.76751,7.90295c2.6849,8.19591 1.6481,17.00091 1.31646,25.44981c-0.07647,1.94808 -2.10271,2.34104 -3.76213,3.42779c-0.87174,0.57091 -4.56131,1.44236 -4.56131,1.44236c0,0 1.88426,-10.41123 1.04266,-19.27442c-0.82233,-8.66022 -4.37583,-15.75995 -3.97141,-17.19138c0.0506,-0.1791 0.12284,-0.34361 0.21306,-0.49596c0.71602,-1.20906 2.56552,-1.65266 3.73557,-2.55411z" data-paper-data="{&quot;index&quot;:null}" fill-opacity="0.58824" fill="#2b0000" stroke="none" stroke-width="0.5" stroke-linecap="butt"/><path d="M331.86197,174.62301c0,0 0.55327,2.89673 0.95621,4.17004c0.49048,1.55 1.77605,4.46416 1.77605,4.46416l-16.1438,-0.91941z" data-paper-data="{&quot;index&quot;:null}" fill-opacity="0.58824" fill="#2b0000" stroke="#c60000" stroke-width="0" stroke-linecap="round"/><path d="M399.54261,170.35582c0,0 -20.27075,7.59849 -35.87263,10.40918c-24.21006,4.36148 -48.00965,1.19763 -48.00965,1.19763" data-paper-data="{&quot;index&quot;:null}" fill="none" stroke="#000000" stroke-width="4" stroke-linecap="round"/><path d="M389.70437,136.81957c0,0 4.62009,5.02586 5.16451,19.03998c0.50387,12.97044 -2.42798,16.61744 -2.42798,16.61744" data-paper-data="{&quot;index&quot;:null}" fill="none" stroke="#000000" stroke-width="4" stroke-linecap="round"/><path d="M363.33392,176.31792c-3.30094,0.12736 -6.08011,-2.44533 -6.20747,-5.74626c-0.12736,-3.30094 2.44533,-6.08012 5.74626,-6.20748c3.30093,-0.12736 6.08011,2.44533 6.20748,5.74627c0.12736,3.30094 -2.44533,6.08011 -5.74627,6.20747z" data-paper-data="{&quot;index&quot;:null}" fill-opacity="0.81176" fill="#ffffff" stroke="none" stroke-width="0" stroke-linecap="butt"/><path d="M371.64959,164.18684c-2.29953,0.08873 -4.23559,-1.70348 -4.32432,-4.00301c-0.08873,-2.29953 1.70349,-4.23559 4.00302,-4.32431c2.29953,-0.08873 4.23558,1.70349 4.32431,4.00302c0.08873,2.29953 -1.70349,4.23558 -4.00302,4.32431z" data-paper-data="{&quot;index&quot;:null}" fill-opacity="0.81176" fill="#ffffff" stroke="none" stroke-width="0" stroke-linecap="butt"/><path d="M376.19131,171.033c-1.7061,0.06582 -3.14254,-1.26387 -3.20836,-2.96997c-0.06582,-1.7061 1.26388,-3.14254 2.96998,-3.20837c1.7061,-0.06582 3.14253,1.26389 3.20836,2.96999c0.06583,1.7061 -1.26388,3.14253 -2.96998,3.20835z" data-paper-data="{&quot;index&quot;:null}" fill-opacity="0.81176" fill="#ffffff" stroke="none" stroke-width="0" stroke-linecap="butt"/><path d="M389.67038,133.31909c0,0 -17.85713,18.72181 -29.5181,25.93303c-13.46234,8.32518 -46.63083,21.15787 -46.63083,21.15787" data-paper-data="{&quot;index&quot;:null}" fill="none" stroke="#000000" stroke-width="6.5" stroke-linecap="round"/><path d="M363.83141,189.21184c-10.42205,0.40212 -19.19677,-7.72064 -19.59888,-18.1427c-0.40212,-10.42205 7.72064,-19.19678 18.1427,-19.59889c10.42205,-0.40212 19.19677,7.72065 19.59888,18.1427c0.40211,10.42205 -7.72064,19.19677 -18.1427,19.59888z" data-paper-data="{&quot;index&quot;:null}" fill="url(#color-6)" stroke="none" stroke-width="0" stroke-linecap="butt"/></g></g></svg>