<svg version="1.1" xmlns="http://www.w3.org/2000/svg" xmlns:xlink="http://www.w3.org/1999/xlink" width="291.87358" height="291.87358" viewBox="0,0,291.87358,291.87358"><defs><radialGradient cx="300.00001" cy="180" r="134.531" gradientUnits="userSpaceOnUse" id="color-1"><stop offset="0" stop-color="#ffe600"/><stop offset="1" stop-color="#ffe600" stop-opacity="0"/></radialGradient><radialGradient cx="300.00001" cy="180" r="140.21142" gradientUnits="userSpaceOnUse" id="color-2"><stop offset="0" stop-color="#ffe600"/><stop offset="1" stop-color="#ffe600" stop-opacity="0"/></radialGradient><radialGradient cx="300.00001" cy="180" r="134.00894" gradientUnits="userSpaceOnUse" id="color-3"><stop offset="0" stop-color="#ffe600"/><stop offset="1" stop-color="#ffe600" stop-opacity="0"/></radialGradient><radialGradient cx="300.00001" cy="180" r="145.93679" gradientUnits="userSpaceOnUse" id="color-4"><stop offset="0" stop-color="#ffe600"/><stop offset="1" stop-color="#ffe600" stop-opacity="0"/></radialGradient><linearGradient x1="299.22859" y1="172.88186" x2="299.22859" y2="296.5309" gradientUnits="userSpaceOnUse" id="color-5"><stop offset="0" stop-color="#ffa217"/><stop offset="1" stop-color="#ffd900"/></linearGradient></defs><g transform="translate(-154.06321,-34.06321)"><g data-paper-data="{&quot;isPaintingLayer&quot;:true}" fill-rule="nonzero" stroke="#000000" stroke-width="0" stroke-linecap="butt" stroke-linejoin="miter" stroke-miterlimit="10" stroke-dasharray="" stroke-dashoffset="0" style="mix-blend-mode: normal"><path d="M165.46901,180c0,-74.29942 60.23158,-134.531 134.531,-134.531c74.29943,0 134.531,60.23158 134.531,134.531c0,74.29942 -60.23158,134.531 -134.531,134.531c-74.29942,0 -134.531,-60.23158 -134.531,-134.531z" fill="url(#color-1)"/><path d="M159.78857,180c0,-77.43664 62.77479,-140.21142 140.21143,-140.21142c77.43666,0 140.21142,62.77479 140.21142,140.21142c0,77.43665 -62.77479,140.21142 -140.21142,140.21142c-77.43664,0 -140.21143,-62.77479 -140.21143,-140.21142z" fill="url(#color-2)"/><path d="M165.99107,180c0,-74.0111 59.99784,-134.00893 134.00894,-134.00893c74.01111,0 134.00894,59.99784 134.00894,134.00893c0,74.0111 -59.99784,134.00894 -134.00894,134.00894c-74.0111,0 -134.00894,-59.99784 -134.00894,-134.00894z" fill="url(#color-3)"/><path d="M154.06321,180c0,-80.59867 65.33812,-145.93679 145.93679,-145.93679c80.59868,0 145.93679,65.33812 145.93679,145.93679c0,80.59867 -65.33812,145.93679 -145.93679,145.93679c-80.59867,0 -145.93679,-65.33812 -145.93679,-145.93679z" fill="url(#color-4)"/><path d="M180.46752,180c0,-66.01596 53.51652,-119.53249 119.53249,-119.53249c66.01597,0 119.5325,53.51652 119.5325,119.53249c0,66.01597 -53.51653,119.5325 -119.5325,119.5325c-66.01597,0 -119.53249,-53.51653 -119.53249,-119.5325z" fill="#fffef3"/><path d="M182.65959,180c0,-64.80531 52.53509,-117.34042 117.34042,-117.34042c64.80532,0 117.34043,52.53509 117.34043,117.34042c0,64.80532 -52.5351,117.34043 -117.34043,117.34043c-64.80532,0 -117.34042,-52.5351 -117.34042,-117.34043z" fill="#ffeb38"/><path d="M336.49778,292.44212c-61.63946,20.00766 -127.94872,-14.11497 -148.10589,-76.21503c-20.15717,-62.10007 13.47086,-128.66153 75.11033,-148.66919c61.63947,-20.00767 127.94874,14.11498 148.1059,76.21504c20.15717,62.10007 -13.47088,128.66152 -75.11035,148.66918z" fill="#ffeb38"/><path d="M182.87629,173.14229c0,0 58.44884,23.98457 115.33786,24.87363c72.95444,1.14012 118.9322,-18.09064 118.9322,-18.09064c0,0 0.44367,29.38757 -14.88481,58.71972c-16.19686,30.99388 -49.66977,61.95624 -107.06079,59.28661c-41.25647,1.95748 -79.57042,-28.0463 -97.50017,-60.41533c-17.16833,-30.99444 -14.8243,-64.374 -14.8243,-64.374z" fill="url(#color-5)"/><path d="M187.04545,180.00001c0,-62.38307 50.57147,-112.95455 112.95455,-112.95455c62.38308,0 112.95455,50.57147 112.95455,112.95455c0,62.38307 -50.57148,112.95455 -112.95455,112.95455c-62.38307,0 -112.95455,-50.57148 -112.95455,-112.95455z" fill="#0d0d0d"/></g></g></svg>