<svg version="1.1" xmlns="http://www.w3.org/2000/svg" xmlns:xlink="http://www.w3.org/1999/xlink" width="254.37081" height="254.37081" viewBox="0,0,254.37081,254.37081"><defs><radialGradient cx="300" cy="180" r="127.18541" gradientUnits="userSpaceOnUse" id="color-1"><stop offset="0" stop-color="#000000" stop-opacity="0"/><stop offset="1" stop-color="#000000" stop-opacity="0"/></radialGradient></defs><g transform="translate(-172.81459,-52.81459)"><g data-paper-data="{&quot;isPaintingLayer&quot;:true}" fill-rule="nonzero" stroke="#000000" stroke-width="0" stroke-linecap="butt" stroke-linejoin="miter" stroke-miterlimit="10" stroke-dasharray="" stroke-dashoffset="0" style="mix-blend-mode: normal"><g><path d="M235.20625,170.01029c-1.17386,-22.02878 5.71573,-42.05389 15.38836,-44.72729c9.67262,-2.6734 18.46544,13.01722 19.63931,35.04604c1.17386,22.02878 -5.71573,42.05389 -15.38836,44.72729c-9.67262,2.6734 -18.46544,-13.01722 -19.63931,-35.04604z" fill="#000000"/><path d="M240.51087,153.30641c-0.34099,-6.39898 1.66032,-12.21591 4.47005,-12.99249c2.80973,-0.77657 5.36388,3.78127 5.70487,10.18025c0.34099,6.39898 -1.66032,12.21591 -4.47005,12.99249c-2.80973,0.77657 -5.36388,-3.78127 -5.70487,-10.18025z" fill="#ffffff"/></g><g><path d="M329.76607,170.01028c-1.17386,-22.02878 5.71574,-42.05389 15.38836,-44.72729c9.67263,-2.6734 18.46544,13.01724 19.63931,35.04604c1.17386,22.02878 -5.71574,42.05389 -15.38836,44.72729c-9.67262,2.6734 -18.46544,-13.01724 -19.63931,-35.04604z" fill="#000000"/><path d="M335.07069,153.30642c-0.34099,-6.39898 1.66032,-12.21591 4.47005,-12.99249c2.80973,-0.77657 5.36388,3.78127 5.70487,10.18025c0.34099,6.39898 -1.66031,12.21591 -4.47004,12.99249c-2.80973,0.77657 -5.36388,-3.78127 -5.70488,-10.18025z" fill="#ffffff"/></g><path d="M172.8146,180c0,-70.24256 56.94284,-127.1854 127.18541,-127.1854c70.24257,0 127.18541,56.94284 127.18541,127.18541c0,70.24256 -56.94284,127.18541 -127.1854,127.18541c-70.24256,0 -127.1854,-56.94285 -127.1854,-127.1854z" fill="url(#color-1)"/></g></g></svg>