<svg version="1.1" xmlns="http://www.w3.org/2000/svg" xmlns:xlink="http://www.w3.org/1999/xlink" width="254.37081" height="254.37081" viewBox="0,0,254.37081,254.37081"><defs><radialGradient cx="300" cy="180" r="127.18541" gradientUnits="userSpaceOnUse" id="color-1"><stop offset="0" stop-color="#000000" stop-opacity="0"/><stop offset="1" stop-color="#000000" stop-opacity="0"/></radialGradient></defs><g transform="translate(-172.81459,-52.81459)"><g data-paper-data="{&quot;isPaintingLayer&quot;:true}" fill-rule="nonzero" stroke="#000000" stroke-width="0" stroke-linecap="butt" stroke-linejoin="miter" stroke-miterlimit="10" stroke-dasharray="" stroke-dashoffset="0" style="mix-blend-mode: normal"><g><path d="M228.78782,168.07407c-1.09438,-9.01765 2.94006,-17.4757 9.81187,-22.44967c0.89727,0.54315 1.77882,1.11529 2.69098,1.63224c4.9422,2.80092 10.6638,4.94641 15.71806,7.72759c3.50289,1.92752 6.86552,4.10217 10.3604,6.04418c2.49907,1.38866 5.62206,1.87213 7.97236,3.63486c0.46783,0.35087 0.96338,0.7663 1.47918,1.22137c-0.33327,11.72589 -9.19782,21.76118 -21.19616,23.21729c-13.21742,1.60406 -25.23262,-7.81042 -26.83668,-21.02786z" fill="#000000"/><path d="M236.03647,158.05163c-0.46595,-3.83943 2.26879,-7.32963 6.10822,-7.79558c3.83943,-0.46595 7.32963,2.26879 7.79558,6.10822c0.46595,3.83943 -2.26879,7.32963 -6.10822,7.79558c-3.83943,0.46595 -7.32963,-2.26879 -7.79558,-6.10822z" fill="#ffffff"/></g><g><path d="M323.34764,168.07406c-0.10092,-0.83159 -0.15823,-1.65841 -0.17371,-2.47819c0.29128,-0.15015 0.5755,-0.28978 0.85152,-0.41584c8.89788,-4.0637 16.99367,-9.47976 25.74888,-13.85548c3.86808,-1.93321 7.96872,-3.48165 11.7321,-5.61766c5.19752,3.80084 8.8688,9.66194 9.70575,16.55835c1.60406,13.21742 -7.81043,25.23262 -21.02786,26.83668c-13.21742,1.60406 -25.23262,-7.81043 -26.83668,-21.02786z" fill="#000000"/><path d="M344.50008,156.36427c0.46595,3.83943 -2.26878,7.32963 -6.10821,7.79558c-2.64931,0.32152 -5.13235,-0.88093 -6.57022,-2.91872c4.07818,-2.22202 8.07316,-4.58917 12.14359,-6.84173c0.26688,0.61042 0.45046,1.26953 0.53484,1.96487z" fill="#ffffff"/></g><path d="M172.8146,180c0,-70.24256 56.94284,-127.1854 127.18541,-127.1854c70.24257,0 127.18541,56.94284 127.18541,127.18541c0,70.24256 -56.94284,127.18541 -127.1854,127.18541c-70.24256,0 -127.1854,-56.94285 -127.1854,-127.1854z" fill="url(#color-1)"/></g></g></svg>