<svg version="1.1" xmlns="http://www.w3.org/2000/svg" xmlns:xlink="http://www.w3.org/1999/xlink" width="254.37081" height="254.37081" viewBox="0,0,254.37081,254.37081"><defs><radialGradient cx="300" cy="180" r="127.18541" gradientUnits="userSpaceOnUse" id="color-1"><stop offset="0" stop-color="#000000" stop-opacity="0"/><stop offset="1" stop-color="#000000" stop-opacity="0"/></radialGradient></defs><g transform="translate(-172.81459,-52.81459)"><g data-paper-data="{&quot;isPaintingLayer&quot;:true}" fill-rule="nonzero" stroke="#000000" stroke-width="0" stroke-linecap="butt" stroke-linejoin="miter" stroke-miterlimit="10" stroke-dasharray="" stroke-dashoffset="0" style="mix-blend-mode: normal"><g><path d="M228.78782,168.07408c-0.50133,-4.13096 0.07363,-8.14448 1.50461,-11.75943c10.00353,-2.16622 19.79287,-4.42039 29.3442,-8.17188c1.87176,-0.73517 4.32444,-1.67577 6.75672,-2.82869c5.48939,3.78322 9.39266,9.81254 10.259,16.95118c1.09458,9.0193 -2.94154,17.47879 -9.81564,22.4524c-12.21132,-7.02992 -22.5455,-9.02494 -36.01552,-9.45141c-1.02302,-2.22021 -1.72304,-4.63502 -2.03338,-7.19217z" fill="#000000"/><path d="M236.03647,158.05164c-0.13014,-1.07231 -0.01061,-2.11739 0.31292,-3.07694c3.84234,-0.87567 7.65179,-1.80745 11.42697,-2.87733c1.15909,1.08478 1.95769,2.56766 2.16391,4.26692c0.46595,3.83943 -2.26879,7.32963 -6.10822,7.79558c-3.83943,0.46595 -7.32963,-2.26879 -7.79558,-6.10822z" fill="#ffffff"/></g><g><path d="M323.34764,168.07407c-1.22373,-10.08348 3.96541,-19.46726 12.36362,-24.06251c0.42514,0.23283 0.82827,0.44833 1.1989,0.64529c8.95322,4.75804 20.60489,8.71621 32.35839,10.61335c0.97426,2.16578 1.64246,4.51338 1.94363,6.99504c1.60406,13.21742 -7.81043,25.23262 -21.02786,26.83668c-13.21742,1.60406 -25.23262,-7.81043 -26.83668,-21.02786z" fill="#000000"/><path d="M330.59628,158.05164c-0.46595,-3.83943 2.26879,-7.32963 6.10822,-7.79558c3.83943,-0.46595 7.32963,2.26879 7.79558,6.10822c0.46595,3.83943 -2.26878,7.32963 -6.10821,7.79558c-3.83943,0.46595 -7.32963,-2.26879 -7.79559,-6.10822z" fill="#ffffff"/></g><path d="M172.8146,180c0,-70.24256 56.94284,-127.1854 127.18541,-127.1854c70.24257,0 127.18541,56.94284 127.18541,127.18541c0,70.24256 -56.94284,127.18541 -127.1854,127.18541c-70.24256,0 -127.1854,-56.94285 -127.1854,-127.1854z" fill="url(#color-1)"/></g></g></svg>