<svg version="1.1" xmlns="http://www.w3.org/2000/svg" xmlns:xlink="http://www.w3.org/1999/xlink" width="254.37081" height="254.37081" viewBox="0,0,254.37081,254.37081"><defs><radialGradient cx="300" cy="180" r="127.18541" gradientUnits="userSpaceOnUse" id="color-1"><stop offset="0" stop-color="#000000" stop-opacity="0"/><stop offset="1" stop-color="#000000" stop-opacity="0"/></radialGradient></defs><g transform="translate(-172.81459,-52.81459)"><g data-paper-data="{&quot;isPaintingLayer&quot;:true}" fill-rule="nonzero" stroke="#000000" stroke-width="0" stroke-linecap="butt" stroke-linejoin="miter" stroke-miterlimit="10" stroke-dasharray="" stroke-dashoffset="0" style="mix-blend-mode: normal"><path d="M254.12955,189.88288c-10.67484,0.63957 -20.10466,-5.99098 -23.46375,-15.61152c2.83068,2.33591 11.11763,9.02213 23.25697,8.85404c11.23324,-0.15554 17.87294,-6.08446 20.8516,-8.78703c-3.03762,8.58951 -10.97855,14.96536 -20.64482,15.54451z" fill="#000000"/><path d="M348.68937,188.97094c-10.67484,0.63957 -20.10466,-5.99097 -23.46375,-15.61151c2.83068,2.33591 11.11764,9.02213 23.25697,8.85404c11.23324,-0.15554 17.87294,-6.08445 20.85161,-8.78702c-3.03762,8.58951 -10.97856,14.96536 -20.64483,15.5445z" fill="#000000"/><path d="M172.8146,180c0,-70.24256 56.94284,-127.1854 127.18541,-127.1854c70.24257,0 127.18541,56.94284 127.18541,127.18541c0,70.24256 -56.94284,127.18541 -127.1854,127.18541c-70.24256,0 -127.1854,-56.94285 -127.1854,-127.1854z" fill="url(#color-1)"/></g></g></svg>