<svg version="1.1" xmlns="http://www.w3.org/2000/svg" xmlns:xlink="http://www.w3.org/1999/xlink" width="254.37081" height="254.37081" viewBox="0,0,254.37081,254.37081"><defs><radialGradient cx="300" cy="180" r="127.18541" gradientUnits="userSpaceOnUse" id="color-1"><stop offset="0" stop-color="#000000" stop-opacity="0"/><stop offset="1" stop-color="#000000" stop-opacity="0"/></radialGradient></defs><g transform="translate(-172.81459,-52.81459)"><g data-paper-data="{&quot;isPaintingLayer&quot;:true}" fill-rule="nonzero" stroke="#000000" stroke-width="0" stroke-linecap="butt" stroke-linejoin="miter" stroke-miterlimit="10" stroke-dasharray="" stroke-dashoffset="0" style="mix-blend-mode: normal"><g data-paper-data="{&quot;index&quot;:null}"><path d="M323.53239,168.07407c-0.67866,-5.59212 0.61503,-10.96904 3.33461,-15.43333c2.89773,-0.54455 5.79419,-1.10024 8.7151,-1.49604c8.8151,-1.1945 18.17219,-1.62791 27.01629,-0.69464c1.49476,0.15773 3.05016,0.50846 4.63343,0.91096c2.19426,3.13532 3.67188,6.83999 4.16511,10.90423c1.60406,13.21742 -7.81042,25.23262 -21.02786,26.83668c-13.21742,1.60406 -25.23262,-7.81042 -26.83668,-21.02786z" fill="#000000"/><path d="M330.78104,158.05163c-0.32745,-2.69816 0.92579,-5.22385 3.03228,-6.64868c0.58873,-0.09168 1.17825,-0.17823 1.76878,-0.25825c1.48565,-0.20132 2.9867,-0.38101 4.49809,-0.53619c2.42051,0.86302 4.27401,3.03126 4.60465,5.75577c0.46595,3.83943 -2.26879,7.32963 -6.10822,7.79558c-3.83943,0.46595 -7.32963,-2.26879 -7.79558,-6.10822z" fill="#ffffff"/></g><g data-paper-data="{&quot;index&quot;:null}"><path d="M228.78782,168.07406c-1.60406,-13.21742 7.81043,-25.23262 21.02785,-26.83668c13.21743,-1.60406 25.23262,7.81043 26.83669,21.02786c1.60406,13.21742 -7.81043,25.23262 -21.02786,26.83668c-13.21742,1.60406 -25.23262,-7.81043 -26.83668,-21.02786z" fill="#000000"/><path d="M236.03646,158.05163c-0.46595,-3.83943 2.26879,-7.32963 6.10822,-7.79558c3.83943,-0.46595 7.32963,2.26879 7.79558,6.10822c0.46595,3.83943 -2.26878,7.32963 -6.10821,7.79558c-3.83943,0.46595 -7.32963,-2.26879 -7.79559,-6.10822z" fill="#ffffff"/></g><path d="M172.8146,180c0,-70.24256 56.94284,-127.1854 127.18541,-127.1854c70.24257,0 127.18541,56.94284 127.18541,127.18541c0,70.24256 -56.94284,127.18541 -127.1854,127.18541c-70.24256,0 -127.1854,-56.94285 -127.1854,-127.1854z" fill="url(#color-1)"/></g></g></svg>