<svg version="1.1" xmlns="http://www.w3.org/2000/svg" xmlns:xlink="http://www.w3.org/1999/xlink" width="254.37081" height="254.37081" viewBox="0,0,254.37081,254.37081"><defs><linearGradient x1="300.28035" y1="191.0782" x2="301.24251" y2="259.24603" gradientUnits="userSpaceOnUse" id="color-1"><stop offset="0" stop-color="#420428"/><stop offset="1" stop-color="#5f0d26"/></linearGradient><radialGradient cx="300" cy="180" r="127.18541" gradientUnits="userSpaceOnUse" id="color-2"><stop offset="0" stop-color="#000000" stop-opacity="0"/><stop offset="1" stop-color="#000000" stop-opacity="0"/></radialGradient></defs><g transform="translate(-172.81459,-52.81459)"><g data-paper-data="{&quot;isPaintingLayer&quot;:true}" fill-rule="nonzero" stroke-linejoin="miter" stroke-miterlimit="10" stroke-dasharray="" stroke-dashoffset="0" style="mix-blend-mode: normal"><path d="M189.92907,300.07093v-230.14186h230.14186v230.14186z" data-paper-data="{&quot;index&quot;:null}" fill="none" stroke="none" stroke-width="0" stroke-linecap="butt"/><path d="M300.40701,191.07766c29.29274,-0.55157 49.57826,9.43893 59.38882,23.41596c13.28464,18.92655 9.94038,43.74073 7.8679,46.28124c-0.48499,0.59448 -35.36643,7.77622 -67.84113,8.46071c-31.32844,0.66034 -69.7069,-8.58122 -70.16341,-9.00648c-1.51945,-1.41541 1.71709,-67.85162 70.74782,-69.15146z" data-paper-data="{&quot;index&quot;:null}" fill="url(#color-1)" stroke="#000000" stroke-width="0" stroke-linecap="butt"/><path d="M311.45688,269.84007c0,0 2.632,-23.83775 2.92261,-35.21849c0.25457,-9.96954 -1.27269,-29.39449 -1.27269,-29.39449c0,0 -21.55393,-1.74907 -38.44784,3.30695c-21.3241,6.3819 -41.2518,20.40412 -41.2518,20.40412c0,0 12.39781,-20.46395 32.07577,-30.74056c11.06446,-5.7783 41.39482,-5.83947 40.89999,-7.06624c59.58417,2.25282 66.39208,46.0756 64.32243,56.00963c-0.13101,0.62883 -4.05071,15.47392 -4.25884,15.72904c-0.23907,0.29305 -26.54913,5.3206 -26.54913,5.3206z" data-paper-data="{&quot;index&quot;:null}" fill-opacity="0.9098" fill="#30011f" stroke="#000000" stroke-width="0" stroke-linecap="butt"/><path d="M270.94976,262.99483c4.53273,-8.07246 13.13993,-12.06292 22.40937,-11.14192c2.34631,0.23312 5.00662,0.75677 6.96359,2.15479c0.33354,0.23828 1.25824,1.23065 1.46159,1.27985c0.06695,0.0162 0.94557,-0.78022 1.11415,-0.8789c0.09729,-0.05694 2.71387,-1.67754 3.899,-2.10446c5.65322,-2.03646 13.05618,-2.15525 18.15405,1.61702c3.63358,2.68872 8.64525,9.1581 7.05754,13.90832c-0.23467,0.70208 -14.29187,2.08526 -28.70231,2.24117c-17.03053,0.18425 -34.82975,-0.99554 -34.84408,-2.01066c-0.00978,-0.69353 0.18913,-1.3414 0.53858,-1.88376c0.56322,-1.14149 1.43508,-2.26699 1.94852,-3.18141z" data-paper-data="{&quot;index&quot;:null}" fill="#b51f62" stroke="none" stroke-width="0.5" stroke-linecap="butt"/><path d="M300.40701,191.07766c68.95856,-1.29846 74.49374,50.36894 69.09724,67.59321c-5.47056,17.46061 -130.99615,10.00261 -137.96057,2.57064c-8.15109,-8.69832 -0.1674,-68.86401 68.86333,-70.16385z" data-paper-data="{&quot;index&quot;:null}" fill="none" stroke="#000000" stroke-width="5" stroke-linecap="butt"/><path d="M297.64846,259.60974c0,0 8.63862,-9.24158 19.23888,-8.88371c13.21527,0.44615 17.4894,18.56481 17.4894,18.56481" data-paper-data="{&quot;index&quot;:null}" fill="none" stroke="#000000" stroke-width="3.5" stroke-linecap="round"/><path d="M268.37957,268.42242c0,0 4.77588,-14.07348 17.8306,-16.45097c7.32857,-1.33465 15.58358,3.82995 15.58358,3.82995" data-paper-data="{&quot;index&quot;:null}" fill="none" stroke="#000000" stroke-width="3.5" stroke-linecap="round"/><path d="M281.82736,260.97368c-0.45454,-2.15212 1.69575,-4.42893 4.80286,-5.08542c3.1071,-0.65649 5.99439,0.55599 6.44894,2.70811c0.45454,2.15212 -1.69575,4.42893 -4.80286,5.08542c-3.1071,0.65649 -5.99439,-0.55599 -6.44894,-2.70811z" data-paper-data="{&quot;index&quot;:null}" fill="#da4a8b" stroke="none" stroke-width="0.5" stroke-linecap="butt"/><path d="M308.83536,258.27207c-0.17103,-1.90344 2.59365,-3.61705 6.1751,-3.82742c3.58145,-0.21039 6.62346,1.1621 6.79449,3.06553c0.17103,1.90344 -2.59365,3.61705 -6.1751,3.82742c-3.58145,0.21039 -6.62346,-1.1621 -6.79449,-3.06553z" data-paper-data="{&quot;index&quot;:null}" fill="#da4a8b" stroke="none" stroke-width="0.5" stroke-linecap="butt"/><path d="M172.8146,180c0,-70.24256 56.94284,-127.1854 127.18541,-127.1854c70.24257,0 127.18541,56.94284 127.18541,127.18541c0,70.24256 -56.94284,127.18541 -127.1854,127.18541c-70.24256,0 -127.1854,-56.94285 -127.1854,-127.1854z" fill="url(#color-2)" stroke="#000000" stroke-width="0" stroke-linecap="butt"/></g></g></svg>