<svg version="1.1" xmlns="http://www.w3.org/2000/svg" xmlns:xlink="http://www.w3.org/1999/xlink" width="254.37081" height="254.37081" viewBox="0,0,254.37081,254.37081"><defs><radialGradient cx="300" cy="180" r="127.18541" gradientUnits="userSpaceOnUse" id="color-1"><stop offset="0" stop-color="#000000" stop-opacity="0"/><stop offset="1" stop-color="#000000" stop-opacity="0"/></radialGradient></defs><g transform="translate(-172.81459,-52.81459)"><g data-paper-data="{&quot;isPaintingLayer&quot;:true}" fill-rule="nonzero" stroke="#000000" stroke-width="0" stroke-linecap="butt" stroke-linejoin="miter" stroke-miterlimit="10" stroke-dasharray="" stroke-dashoffset="0" style="mix-blend-mode: normal"><g><path d="M228.78782,168.07407c-0.9551,-7.86998 1.99622,-15.31374 7.33077,-20.3873c2.73577,2.50348 6.37979,3.97889 10.04795,4.80374c8.19241,1.8422 16.62691,-0.13132 23.07646,-4.87679c3.96857,3.73106 6.70181,8.82133 7.40936,14.65154c1.60406,13.21742 -7.81042,25.23262 -21.02786,26.83668c-13.21742,1.60406 -25.23262,-7.81042 -26.83668,-21.02786z" fill="#000000"/><path d="M236.03647,158.05163c-0.40031,-3.29855 1.5618,-6.33934 4.55721,-7.42608c1.76849,0.83247 3.66742,1.43648 5.57286,1.86495c0.78385,0.17626 1.56991,0.31759 2.35624,0.4249c0.75169,0.96727 1.25917,2.1443 1.41749,3.44887c0.46595,3.83943 -2.26879,7.32963 -6.10822,7.79558c-3.83943,0.46595 -7.32963,-2.26879 -7.79558,-6.10822z" fill="#ffffff"/></g><g><path d="M323.34764,168.07406c-1.01125,-8.33265 2.35673,-16.18748 8.29599,-21.25713c0.94838,0.53131 1.95771,1.00111 2.84552,1.43532c10.81387,5.28889 17.66733,5.73755 28.42202,-0.90922c0.11736,-0.07253 0.23565,-0.14557 0.35475,-0.21914c4.25828,3.76945 7.20723,9.05178 7.94626,15.14135c1.60406,13.21742 -7.81043,25.23262 -21.02786,26.83668c-13.21742,1.60406 -25.23262,-7.81043 -26.83668,-21.02786z" fill="#000000"/><path d="M330.59628,158.05163c-0.46595,-3.83943 2.26879,-7.32963 6.10822,-7.79558c3.83943,-0.46595 7.32963,2.26879 7.79558,6.10822c0.46595,3.83943 -2.26878,7.32963 -6.10821,7.79558c-3.83943,0.46595 -7.32963,-2.26879 -7.79559,-6.10822z" fill="#ffffff"/></g><path d="M172.8146,180c0,-70.24256 56.94284,-127.1854 127.18541,-127.1854c70.24257,0 127.18541,56.94284 127.18541,127.18541c0,70.24256 -56.94284,127.18541 -127.1854,127.18541c-70.24256,0 -127.1854,-56.94285 -127.1854,-127.1854z" fill="url(#color-1)"/></g></g></svg>