<svg version="1.1" xmlns="http://www.w3.org/2000/svg" xmlns:xlink="http://www.w3.org/1999/xlink" width="254.37081" height="254.37081" viewBox="0,0,254.37081,254.37081"><defs><linearGradient x1="300" y1="185.23779" x2="300" y2="265.52411" gradientUnits="userSpaceOnUse" id="color-1"><stop offset="0" stop-color="#420428"/><stop offset="1" stop-color="#5f0d26"/></linearGradient><radialGradient cx="300" cy="180" r="127.18541" gradientUnits="userSpaceOnUse" id="color-2"><stop offset="0" stop-color="#000000" stop-opacity="0"/><stop offset="1" stop-color="#000000" stop-opacity="0"/></radialGradient></defs><g transform="translate(-172.81459,-52.81459)"><g data-paper-data="{&quot;isPaintingLayer&quot;:true}" fill-rule="nonzero" stroke-linejoin="miter" stroke-miterlimit="10" stroke-dasharray="" stroke-dashoffset="0" style="mix-blend-mode: normal"><path d="M184.92907,295.07093v-230.14186h230.14186v230.14186z" fill="none" stroke="none" stroke-width="0" stroke-linecap="butt"/><path d="M215.75808,185.26992c0.53008,-0.50833 47.24456,9.50448 84.11688,9.76137c38.22141,0.26628 83.05002,-10.45335 83.63052,-9.76137c4.31265,5.14089 -2.19757,80.63561 -83.35642,80.25274c-81.24381,-0.38329 -86.15527,-78.56078 -84.39097,-80.25274z" fill="url(#color-1)" stroke="#000000" stroke-width="0" stroke-linecap="butt"/><path d="M215.75808,185.26992c0.53008,-0.50833 47.24456,9.50449 84.11688,9.76137c38.22141,0.26628 83.05003,-10.45335 83.63052,-9.76137c4.18466,4.98831 -1.82068,76.21646 -76.32601,80.09014c3.11186,-8.04638 6.44821,-12.40277 8.85089,-26.39986c2.76153,-16.08762 -3.13201,-30.84051 -3.13201,-30.84051c0,0 -29.83639,1.06101 -52.10234,-1.96759c-20.26876,-2.75693 -41.18263,-10.67692 -44.65351,-11.34061c-0.82906,-5.55184 -0.75024,-9.19077 -0.38443,-9.54156z" fill-opacity="0.9098" fill="#30011f" stroke="#000000" stroke-width="0" stroke-linecap="butt"/><path d="M265.42965,250.10705c5.46731,-9.43029 15.66089,-13.98618 26.55213,-12.7476c2.75682,0.31352 5.87828,0.97433 8.15764,2.65309c0.38848,0.28612 1.46002,1.47005 1.69847,1.53137c0.07852,0.02019 1.12552,-0.90303 1.32552,-1.01642c0.11542,-0.06543 3.22102,-1.93026 4.62255,-2.41328c6.68545,-2.30404 15.39782,-2.32089 21.33337,2.20582c4.23064,3.22647 10.01999,10.92771 8.07299,16.49489c-0.62786,1.79527 -3.52891,3.06409 -5.10897,3.82994c-4.77596,2.31486 -9.65679,3.7608 -14.94981,3.93273c-6.15294,0.19985 -11.77721,1.78103 -17.97382,1.3408c-7.69536,-0.5467 -14.85981,-1.06279 -22.44359,-2.60083c-1.98225,-0.40202 -9.24857,-3.2879 -10.3006,-3.29079c-0.00121,0 -0.00244,0 -0.00365,0c-2.20511,0 -3.99271,-1.78933 -3.99271,-3.99658c0,-0.81682 0.2448,-1.57641 0.66498,-2.20926c0.68165,-1.33479 1.72617,-2.64562 2.34549,-3.71385z" fill="#b51f62" stroke="none" stroke-width="0.5" stroke-linecap="butt"/><path d="M215.75808,185.26992c0.53008,-0.50833 47.24456,9.50449 84.11688,9.76137c38.22141,0.26628 83.05003,-10.45335 83.63052,-9.76137c4.31266,5.14089 -2.19757,80.63561 -83.35642,80.25273c-81.24381,-0.38329 -86.15526,-78.56078 -84.39097,-80.25273z" fill="none" stroke="#000000" stroke-width="5" stroke-linecap="butt"/><path d="M296.89982,246.56471c0,0 10.31778,-10.73875 22.78419,-10.14118c15.5418,0.74498 20.26988,22.15148 20.26988,22.15148" fill="none" stroke="#000000" stroke-width="3.5" stroke-linecap="round"/><path d="M262.31541,256.45554c0,0 5.85308,-16.4927 21.25287,-19.07531c8.64502,-1.4498 18.27218,4.76892 18.27218,4.76892" fill="none" stroke="#000000" stroke-width="3.5" stroke-linecap="round"/><path d="M278.26191,247.90786c-0.49909,-2.54176 2.0688,-5.18706 5.73554,-5.90845c3.66674,-0.72139 7.04382,0.75432 7.54291,3.29608c0.49909,2.54176 -2.0688,5.18706 -5.73554,5.90845c-3.66674,0.72139 -7.04382,-0.75432 -7.54291,-3.29608z" fill="#da4a8b" stroke="none" stroke-width="0.5" stroke-linecap="butt"/><path d="M310.08466,245.17549c-0.16963,-2.24422 3.11178,-4.2161 7.32925,-4.40431c4.21747,-0.18821 7.77392,1.47849 7.94354,3.72271c0.16963,2.24422 -3.11178,4.2161 -7.32925,4.40431c-4.21747,0.18821 -7.77392,-1.47849 -7.94354,-3.72271z" fill="#da4a8b" stroke="none" stroke-width="0.5" stroke-linecap="butt"/><path d="M172.8146,180c0,-70.24256 56.94284,-127.1854 127.18541,-127.1854c70.24257,0 127.18541,56.94284 127.18541,127.18541c0,70.24256 -56.94284,127.18541 -127.1854,127.18541c-70.24256,0 -127.1854,-56.94285 -127.1854,-127.1854z" fill="url(#color-2)" stroke="#000000" stroke-width="0" stroke-linecap="butt"/></g></g></svg>