<svg version="1.1" xmlns="http://www.w3.org/2000/svg" xmlns:xlink="http://www.w3.org/1999/xlink" width="308.47365" height="308.47365" viewBox="0,0,308.47365,308.47365"><g transform="translate(-145.76318,-25.53192)"><g data-paper-data="{&quot;isPaintingLayer&quot;:true}" fill-rule="nonzero" stroke-miterlimit="10" stroke-dasharray="" stroke-dashoffset="0" style="mix-blend-mode: normal"><path d="M145.76318,334.00557v-308.47365h308.47365v308.47365z" fill="none" stroke="#000000" stroke-width="0" stroke-linecap="butt" stroke-linejoin="miter"/><path d="M196.6807,136.80618c0,0 -15.00194,-18.95878 -16.15042,-44.86856c-1.24924,-28.18285 8.60725,-41.0833 8.60725,-41.0833c0,0 11.88201,14.83863 18.77389,21.40056c6.96309,6.62974 21.71559,18.17649 21.71559,18.17649c0,0 -10.51627,6.5892 -18.6783,20.59525c-2.73234,4.68871 -14.26801,25.77954 -14.26801,25.77954z" fill="#ffffff" stroke="#000000" stroke-width="4.5" stroke-linecap="butt" stroke-linejoin="round"/><path d="M201.85343,98.44069c10.06026,-12.7928 17.93058,-15.94163 17.93058,-15.94163l9.43442,8.29004c0,0 -10.17139,8.43372 -15.48456,15.83571c-5.49122,7.65005 -17.33936,30.38122 -17.33936,30.38122c0,0 -2.81189,-4.70006 -4.15781,-7.14818c-1.27039,-2.31071 -3.70421,-7.15213 -3.70421,-7.15213c0,0 3.43737,-11.69689 13.32093,-24.26503z" fill-opacity="0.14118" fill="#000000" stroke="#ff0000" stroke-width="0" stroke-linecap="round" stroke-linejoin="miter"/><path d="M189.66739,179.31709c0,0 -11.27635,-8.16606 -19.41252,-25.06902c-8.84994,-18.38586 -5.54763,-29.89627 -5.54763,-29.89627c0,0 12.57414,6.34977 19.28928,8.67188c6.78451,2.34611 14.85659,5.65326 14.85659,5.65326c0,0 -5.55213,7.50585 -7.34701,19.24928c-0.60085,3.93126 -1.83871,21.3909 -1.83871,21.3909z" fill="#ffffff" stroke="#000000" stroke-width="4.5" stroke-linecap="butt" stroke-linejoin="round"/><path d="M182.93277,150.39254c3.47644,-11.49922 6.73682,-14.07406 6.73682,-14.07406l8.99658,2.71776c0,0 -4.78738,8.6311 -6.44083,15.13396c-1.70887,6.72077 -2.70322,25.36483 -2.70322,25.36483c0,0 -3.31175,-2.29365 -4.95303,-3.52357c-1.54917,-1.16088 -4.6343,-3.6608 -4.6343,-3.6608c0,0 -0.41739,-10.66084 2.99798,-21.95812z" fill-opacity="0.14118" fill="#000000" stroke="#ff0000" stroke-width="0" stroke-linecap="round" stroke-linejoin="miter"/><path d="M234.12205,89.26637c0,0 -2.4068,-4.20496 -1.6043,-13.95705c0.92619,-11.25512 7.03916,-19.51282 7.03916,-19.51282c0,0 4.97327,7.80082 8.895,11.63283c3.96226,3.8716 10.30491,9.66647 10.30491,9.66647c0,0 -10.1714,3.70558 -14.44518,5.817c-3.9044,1.92892 -10.18961,6.35357 -10.18961,6.35357z" fill="#ffffff" stroke="#000000" stroke-width="4.5" stroke-linecap="butt" stroke-linejoin="round"/><path d="M253.15268,72.44406l5.37004,4.85055c0,0 -8.40063,2.59163 -13.70999,4.47728c-5.30936,1.88566 -11.10891,4.33733 -11.10891,4.33733l-0.38952,-8.25882c0,0 0.3117,-2.09763 8.78115,-5.32767c8.18183,-3.12036 11.05723,-0.07867 11.05723,-0.07867z" fill-opacity="0.14118" fill="#000000" stroke="#ff0000" stroke-width="0" stroke-linecap="round" stroke-linejoin="miter"/><path d="M198.39539,211.6991c0,0 -3.8773,1.72954 -12.10576,-0.09352c-9.49667,-2.10404 -15.81424,-8.61297 -15.81424,-8.61297c0,0 7.25376,-3.67305 10.99393,-6.82865c3.77881,-3.18821 9.48409,-8.33678 9.48409,-8.33678c0,0 1.94637,9.70898 3.23745,13.85042c1.17948,3.78349 4.20454,10.02151 4.20454,10.02151z" fill="#ffffff" stroke="#000000" stroke-width="4.5" stroke-linecap="butt" stroke-linejoin="round"/><path d="M186.31225,192.42861l4.78285,-4.36529c0,0 1.20732,7.96633 2.1818,13.02888c0.97449,5.06255 2.37349,10.6363 2.37349,10.6363l-7.09639,-0.5669c0,0 -1.75327,-0.51923 -3.4973,-8.61979c-1.68482,-7.82546 1.25555,-10.1132 1.25555,-10.1132z" fill-opacity="0.14118" fill="#000000" stroke="#ff0000" stroke-width="0" stroke-linecap="round" stroke-linejoin="miter"/><path d="M403.31931,137.03743c0,0 -11.53567,-21.09083 -14.26801,-25.77954c-8.16203,-14.00605 -18.6783,-20.59525 -18.6783,-20.59525c0,0 14.7525,-11.54676 21.71559,-18.1765c6.89188,-6.56193 18.77389,-21.40055 18.77389,-21.40055c0,0 9.85648,12.90045 8.60724,41.0833c-1.14848,25.90977 -16.15042,44.86855 -16.15042,44.86855z" data-paper-data="{&quot;index&quot;:null}" fill="#ffffff" stroke="#000000" stroke-width="4.5" stroke-linecap="butt" stroke-linejoin="round"/><path d="M398.14658,98.67195c9.88357,12.56814 13.32094,24.26503 13.32094,24.26503c0,0 -2.43382,4.84141 -3.70421,7.15213c-1.34592,2.44812 -4.15781,7.14818 -4.15781,7.14818c0,0 -11.84815,-22.73117 -17.33937,-30.38122c-5.31318,-7.40199 -15.48456,-15.8357 -15.48456,-15.8357l9.43442,-8.29004c0,0 7.87033,3.14884 17.93058,15.94164z" data-paper-data="{&quot;index&quot;:null}" fill-opacity="0.14118" fill="#000000" stroke="#ff0000" stroke-width="0" stroke-linecap="round" stroke-linejoin="miter"/><path d="M410.33262,179.54837c0,0 -1.23786,-17.45963 -1.83872,-21.3909c-1.79488,-11.74342 -7.34701,-19.24928 -7.34701,-19.24928c0,0 8.07208,-3.30715 14.85659,-5.65326c6.71514,-2.32211 19.28928,-8.67188 19.28928,-8.67188c0,0 3.30231,11.51041 -5.54763,29.89628c-8.13617,16.90296 -19.41252,25.06902 -19.41252,25.06902z" data-paper-data="{&quot;index&quot;:null}" fill="#ffffff" stroke="#000000" stroke-width="4.5" stroke-linecap="butt" stroke-linejoin="round"/><path d="M417.06723,150.62381c3.41538,11.29728 2.99798,21.95812 2.99798,21.95812c0,0 -3.08512,2.49991 -4.6343,3.66079c-1.64129,1.22992 -4.95303,3.52357 -4.95303,3.52357c0,0 -0.99435,-18.64405 -2.70322,-25.36483c-1.65345,-6.50286 -6.44083,-15.13396 -6.44083,-15.13396l8.99659,-2.71777c0,0 3.26038,2.57484 6.73682,14.07406z" data-paper-data="{&quot;index&quot;:null}" fill-opacity="0.14118" fill="#000000" stroke="#ff0000" stroke-width="0" stroke-linecap="round" stroke-linejoin="miter"/><path d="M365.87796,89.49764c0,0 -6.28521,-4.42465 -10.18961,-6.35357c-4.27378,-2.11142 -14.44518,-5.817 -14.44518,-5.817c0,0 6.34265,-5.79487 10.30491,-9.66647c3.92174,-3.83201 8.895,-11.63282 8.895,-11.63282c0,0 6.11297,8.25769 7.03916,19.51282c0.8025,9.75209 -1.6043,13.95705 -1.6043,13.95705z" data-paper-data="{&quot;index&quot;:null}" fill="#ffffff" stroke="#000000" stroke-width="4.5" stroke-linecap="butt" stroke-linejoin="round"/><path d="M357.90455,72.754c8.46945,3.23004 8.78115,5.32767 8.78115,5.32767l-0.38952,8.25882c0,0 -5.79955,-2.45167 -11.10891,-4.33733c-5.30936,-1.88565 -13.70999,-4.47728 -13.70999,-4.47728l5.37003,-4.85055c0,0 2.8754,-3.04169 11.05723,0.07868z" data-paper-data="{&quot;index&quot;:null}" fill-opacity="0.14118" fill="#000000" stroke="#ff0000" stroke-width="0" stroke-linecap="round" stroke-linejoin="miter"/><path d="M401.60461,211.93037c0,0 3.02506,-6.23802 4.20454,-10.02151c1.29108,-4.14143 3.23745,-13.85042 3.23745,-13.85042c0,0 5.70528,5.14856 9.48408,8.33678c3.74017,3.1556 10.99393,6.82865 10.99393,6.82865c0,0 -6.31757,6.50893 -15.81424,8.61297c-8.22846,1.82306 -12.10576,0.09352 -12.10576,0.09352z" data-paper-data="{&quot;index&quot;:null}" fill="#ffffff" stroke="#000000" stroke-width="4.5" stroke-linecap="butt" stroke-linejoin="round"/><path d="M414.9433,202.77308c-1.74404,8.10056 -3.4973,8.61979 -3.4973,8.61979l-7.09639,0.56689c0,0 1.399,-5.57375 2.37349,-10.63629c0.97448,-5.06255 2.1818,-13.02888 2.1818,-13.02888l4.78285,4.36529c0,0 2.94037,2.28774 1.25556,10.1132z" data-paper-data="{&quot;index&quot;:null}" fill-opacity="0.14118" fill="#000000" stroke="#ff0000" stroke-width="0" stroke-linecap="round" stroke-linejoin="miter"/></g></g></svg>