<svg version="1.1" xmlns="http://www.w3.org/2000/svg" xmlns:xlink="http://www.w3.org/1999/xlink" width="254.37081" height="254.37081" viewBox="0,0,254.37081,254.37081"><defs><radialGradient cx="300" cy="180" r="127.18541" gradientUnits="userSpaceOnUse" id="color-1"><stop offset="0" stop-color="#000000" stop-opacity="0"/><stop offset="1" stop-color="#000000" stop-opacity="0"/></radialGradient></defs><g transform="translate(-172.81459,-52.81459)"><g data-paper-data="{&quot;isPaintingLayer&quot;:true}" fill-rule="nonzero" stroke-linecap="butt" stroke-linejoin="miter" stroke-miterlimit="10" stroke-dasharray="" stroke-dashoffset="0" style="mix-blend-mode: normal"><path d="M234.45235,178.07722c0.37473,-0.06438 4.39636,-0.23922 5.45491,-0.23485c10.04917,0.04149 20.10021,-0.1642 30.14783,0c2.48519,0.04061 4.71929,1.53378 4.71929,4.25c0,2.7157 -2.23409,4.20965 -4.71929,4.25c-10.11899,0.16429 -20.24128,0.01578 -30.3619,0c-1.14862,-0.00179 -7.48382,0.4507 -7.86681,-1.27381c-0.72282,-0.74671 -1.16059,-1.72304 -1.16059,-2.79144c0,-1.87562 1.34916,-3.46745 3.22118,-4.03139c0.17507,-0.07637 0.36276,-0.13369 0.56538,-0.16851z" fill="#000000" stroke="none" stroke-width="0.5"/><path d="M329.01218,177.16529c0.37473,-0.06438 4.39636,-0.23922 5.45491,-0.23485c10.04917,0.04149 20.10021,-0.1642 30.14783,0c2.48519,0.04062 4.71928,1.53378 4.71928,4.25c0,2.7157 -2.23409,4.20965 -4.71928,4.25c-10.11899,0.16429 -20.24128,0.01577 -30.3619,0c-1.14862,-0.00179 -7.48382,0.4507 -7.8668,-1.27381c-0.72282,-0.74671 -1.16059,-1.72303 -1.16059,-2.79144c0,-1.87562 1.34915,-3.46746 3.22118,-4.0314c0.17507,-0.07637 0.36277,-0.13369 0.56538,-0.1685z" fill="#000000" stroke="none" stroke-width="0.5"/><path d="M172.8146,180c0,-70.24256 56.94284,-127.1854 127.18541,-127.1854c70.24257,0 127.18541,56.94284 127.18541,127.18541c0,70.24256 -56.94284,127.18541 -127.1854,127.18541c-70.24256,0 -127.1854,-56.94285 -127.1854,-127.1854z" fill="url(#color-1)" stroke="#000000" stroke-width="0"/></g></g></svg>