<svg version="1.1" xmlns="http://www.w3.org/2000/svg" xmlns:xlink="http://www.w3.org/1999/xlink" width="254.37081" height="254.37081" viewBox="0,0,254.37081,254.37081"><defs><radialGradient cx="300" cy="180" r="127.18541" gradientUnits="userSpaceOnUse" id="color-1"><stop offset="0" stop-color="#000000" stop-opacity="0"/><stop offset="1" stop-color="#000000" stop-opacity="0"/></radialGradient></defs><g transform="translate(-172.81459,-52.81459)"><g data-paper-data="{&quot;isPaintingLayer&quot;:true}" fill-rule="nonzero" stroke="#000000" stroke-width="0" stroke-linecap="butt" stroke-linejoin="miter" stroke-miterlimit="10" stroke-dasharray="" stroke-dashoffset="0" style="mix-blend-mode: normal"><g><path d="M275.65362,139.707c14.06263,12.66584 15.19498,34.33355 2.52913,48.3962c-12.66584,14.06263 -34.33355,15.19498 -48.3962,2.52913c-14.06263,-12.66584 -15.19498,-34.33355 -2.52913,-48.3962c12.66584,-14.06263 34.33355,-15.19498 48.3962,-2.52913z" fill="#000000"/><path d="M277.24586,157.2166c4.08495,3.67921 4.41387,9.97329 0.73467,14.05824c-3.67921,4.08495 -9.97329,4.41387 -14.05824,0.73467c-4.08495,-3.67921 -4.41387,-9.97329 -0.73467,-14.05824c3.67921,-4.08495 9.97329,-4.41387 14.05824,-0.73467z" fill="#ffffff"/></g><path d="M332.70021,166.93904c-0.9772,-8.05214 4.75816,-15.37188 12.8103,-16.34908c8.05214,-0.9772 15.37188,4.75816 16.34909,12.81031c0.9772,8.05214 -4.75816,15.37188 -12.81031,16.34908c-8.05214,0.9772 -15.37188,-4.75816 -16.34908,-12.81031z" fill="#000000"/><path d="M172.8146,180c0,-70.24256 56.94284,-127.1854 127.18541,-127.1854c70.24257,0 127.18541,56.94284 127.18541,127.18541c0,70.24256 -56.94284,127.18541 -127.1854,127.18541c-70.24256,0 -127.1854,-56.94285 -127.1854,-127.1854z" fill="url(#color-1)"/></g></g></svg>