<svg version="1.1" xmlns="http://www.w3.org/2000/svg" xmlns:xlink="http://www.w3.org/1999/xlink" width="254.37081" height="254.37081" viewBox="0,0,254.37081,254.37081"><defs><radialGradient cx="300" cy="180" r="127.18541" gradientUnits="userSpaceOnUse" id="color-1"><stop offset="0" stop-color="#000000" stop-opacity="0"/><stop offset="1" stop-color="#000000" stop-opacity="0"/></radialGradient></defs><g transform="translate(-172.81459,-52.81459)"><g data-paper-data="{&quot;isPaintingLayer&quot;:true}" fill-rule="nonzero" stroke="#000000" stroke-width="0" stroke-linecap="butt" stroke-linejoin="miter" stroke-miterlimit="10" stroke-dasharray="" stroke-dashoffset="0" style="mix-blend-mode: normal"><g><path d="M232.32198,152.3203c7.09651,-11.26556 21.9819,-14.64526 33.24748,-7.54874c11.26556,7.09651 14.64526,21.9819 7.54874,33.24748c-0.98593,1.56514 -2.12219,2.97806 -3.37821,4.23183c-7.44097,-4.53504 -25.96794,-4.64176 -33.42171,-0.99909c-0.3414,0.16684 -0.69434,0.35243 -1.05244,0.55565c-7.44923,-7.80316 -8.9554,-19.94393 -2.94386,-29.48712z" fill="#000000"/><path d="M236.67014,173.62003c-3.27245,-2.06141 -4.25419,-6.38536 -2.19278,-9.6578c2.06141,-3.27245 6.38536,-4.25419 9.6578,-2.19278c3.27245,2.06141 4.25419,6.38536 2.19278,9.6578c-2.06141,3.27245 -6.38536,4.25419 -9.6578,2.19278z" fill="#ffffff"/></g><g><path d="M337.45838,143.15314c12.15938,-5.42427 26.41376,0.0356 31.83803,12.19498c3.85952,8.65174 2.20871,18.36412 -3.44504,25.20163c-1.07719,-0.57518 -2.33308,-1.0722 -3.79822,-1.50424c-10.40984,-3.06968 -24.1078,-3.9073 -35.45677,-1.48648c-0.48904,-0.81874 -0.93481,-1.67525 -1.333,-2.56785c-5.42427,-12.15938 0.0356,-26.41376 12.19499,-31.83804z" fill="#000000"/><path d="M349.17067,147.12984c3.53209,-1.57566 7.67273,0.01034 9.24839,3.54243c1.57566,3.53209 -0.01034,7.67273 -3.54243,9.24839c-3.53209,1.57566 -7.67273,-0.01033 -9.24838,-3.54242c-1.57566,-3.53209 0.01034,-7.67273 3.54242,-9.24839z" fill="#ffffff"/></g><path d="M172.8146,180c0,-70.24256 56.94284,-127.1854 127.18541,-127.1854c70.24257,0 127.18541,56.94284 127.18541,127.18541c0,70.24256 -56.94284,127.18541 -127.1854,127.18541c-70.24256,0 -127.1854,-56.94285 -127.1854,-127.1854z" fill="url(#color-1)"/></g></g></svg>