<svg version="1.1" xmlns="http://www.w3.org/2000/svg" xmlns:xlink="http://www.w3.org/1999/xlink" width="254.37081" height="254.37081" viewBox="0,0,254.37081,254.37081"><defs><radialGradient cx="300" cy="180" r="127.18541" gradientUnits="userSpaceOnUse" id="color-1"><stop offset="0" stop-color="#000000" stop-opacity="0"/><stop offset="1" stop-color="#000000" stop-opacity="0"/></radialGradient></defs><g transform="translate(-172.81459,-52.81459)"><g data-paper-data="{&quot;isPaintingLayer&quot;:true}" fill-rule="nonzero" stroke="#000000" stroke-width="0" stroke-linecap="butt" stroke-linejoin="miter" stroke-miterlimit="10" stroke-dasharray="" stroke-dashoffset="0" style="mix-blend-mode: normal"><g data-paper-data="{&quot;index&quot;:null}"><path d="M268.82557,173.95567c1.94578,13.17145 -7.15441,25.42641 -20.32588,27.37219c-13.17145,1.94578 -25.42641,-7.15441 -27.37219,-20.32588c-1.94578,-13.17145 7.15441,-25.42641 20.32588,-27.37219c13.17145,-1.94578 25.42641,7.15441 27.37219,20.32588z" fill="#000000"/><path d="M261.83889,184.16246c0.56521,3.82608 -2.07823,7.38593 -5.90431,7.95114c-3.82608,0.56521 -7.38593,-2.07823 -7.95114,-5.90431c-0.56521,-3.82608 2.07823,-7.38593 5.90431,-7.95114c3.82608,-0.56521 7.38593,2.07823 7.95114,5.90431z" fill="#ffffff"/></g><g data-paper-data="{&quot;index&quot;:null}"><path d="M363.35368,171.50708c1.94578,13.17145 -7.15442,25.42641 -20.32587,27.37219c-13.17146,1.94578 -25.42641,-7.15442 -27.3722,-20.32588c-1.94578,-13.17145 7.15442,-25.42641 20.32588,-27.37219c13.17145,-1.94578 25.42641,7.15442 27.37219,20.32588z" fill="#000000"/><path d="M356.36701,181.71386c0.56521,3.82608 -2.07823,7.38593 -5.90431,7.95114c-3.82608,0.56521 -7.38593,-2.07823 -7.95114,-5.90431c-0.56521,-3.82608 2.07822,-7.38593 5.9043,-7.95114c3.82608,-0.56521 7.38593,2.07823 7.95115,5.90431z" fill="#ffffff"/></g><path d="M172.8146,180c0,-70.24256 56.94284,-127.1854 127.18541,-127.1854c70.24257,0 127.18541,56.94284 127.18541,127.18541c0,70.24256 -56.94284,127.18541 -127.1854,127.18541c-70.24256,0 -127.1854,-56.94285 -127.1854,-127.1854z" fill="url(#color-1)"/></g></g></svg>