<svg version="1.1" xmlns="http://www.w3.org/2000/svg" xmlns:xlink="http://www.w3.org/1999/xlink" width="254.37082" height="254.37082" viewBox="0,0,254.37082,254.37082"><defs><radialGradient cx="300.00001" cy="180.00001" r="127.18541" gradientUnits="userSpaceOnUse" id="color-1"><stop offset="0" stop-color="#000000" stop-opacity="0"/><stop offset="1" stop-color="#000000" stop-opacity="0"/></radialGradient><linearGradient x1="295.81899" y1="207.59852" x2="291.76684" y2="253.67152" gradientUnits="userSpaceOnUse" id="color-2"><stop offset="0" stop-color="#420428"/><stop offset="1" stop-color="#5f0d26"/></linearGradient></defs><g transform="translate(-172.8146,-52.8146)"><g data-paper-data="{&quot;isPaintingLayer&quot;:true}" fill-rule="nonzero" stroke-linejoin="miter" stroke-miterlimit="10" stroke-dasharray="" stroke-dashoffset="0" style="mix-blend-mode: normal"><path d="M172.81461,180.00001c0,-70.24256 56.94284,-127.1854 127.18541,-127.1854c70.24257,0 127.18541,56.94284 127.18541,127.18541c0,70.24256 -56.94284,127.18541 -127.1854,127.18541c-70.24256,0 -127.1854,-56.94285 -127.1854,-127.1854z" fill="url(#color-1)" stroke="#000000" stroke-width="0" stroke-linecap="butt"/><path d="M189.92908,300.07093v-230.14186h230.14186v230.14186z" data-paper-data="{&quot;index&quot;:null}" fill="none" stroke="none" stroke-width="0" stroke-linecap="butt"/><path d="M295.90452,207.60688c19.80779,1.64806 32.8095,9.78976 38.46668,19.89953c7.66048,13.68982 3.692,30.20632 2.11806,31.77798c-0.36832,0.36777 -24.40522,2.80898 -46.36969,1.03117c-21.18919,-1.71505 -46.45353,-10.59916 -46.7323,-10.91765c-0.92786,-1.06006 5.83858,-45.67481 52.51725,-41.79104z" data-paper-data="{&quot;index&quot;:null}" fill="url(#color-2)" stroke="#000000" stroke-width="0" stroke-linecap="butt"/><path d="M297.92987,261.52596c0,0 3.42043,-15.90663 4.40149,-23.56748c0.85941,-6.71091 1.16839,-19.9262 1.16839,-19.9262c0,0 -14.42617,-2.66702 -26.17663,-0.41987c-14.83185,2.83644 -29.24822,10.92567 -29.24822,10.92567c0,0 9.77871,-12.9561 23.76819,-18.53463c7.86596,-3.13668 28.34022,-1.08608 28.09087,-1.94816c40.05814,5.62994 41.63037,35.67559 39.54841,42.23735c-0.13179,0.41536 -3.80107,10.16401 -3.95913,10.32184c-0.18156,0.18129 -18.28504,1.7598 -18.28504,1.7598z" data-paper-data="{&quot;index&quot;:null}" fill-opacity="0.9098" fill="#30011f" stroke="#000000" stroke-width="0" stroke-linecap="butt"/><path d="M271.06363,254.11232c3.61591,-5.1355 9.70015,-7.23504 15.8926,-5.97414c1.56745,0.31916 3.32679,0.85605 4.55113,1.93455c0.20867,0.18382 0.76431,0.91735 0.89816,0.96458c0.04407,0.01555 0.69198,-0.46136 0.81256,-0.51633c0.06959,-0.03172 1.9473,-0.945 2.77659,-1.15139c3.95583,-0.98451 8.9603,-0.5541 12.14069,2.34341c2.26687,2.06523 5.20307,6.77709 3.8039,9.87352c-0.2068,0.45765 -9.78944,0.42164 -19.52584,-0.46702c-11.50666,-1.05024 -23.43803,-3.07409 -23.37769,-3.76019c0.04123,-0.46874 0.22016,-0.89227 0.49341,-1.23421c0.45885,-0.73155 1.12489,-1.43102 1.53448,-2.01275z" data-paper-data="{&quot;index&quot;:null}" fill="#b51f62" stroke="none" stroke-width="0.5" stroke-linecap="butt"/><path d="M295.90452,207.60688c46.62987,3.87972 46.80209,39.13195 41.97202,50.38446c-4.89635,11.40691 -89.09953,-2.28399 -93.28725,-7.78018c-4.90127,-6.4327 4.63656,-46.48805 51.31523,-42.60428z" data-paper-data="{&quot;index&quot;:null}" fill="none" stroke="#000000" stroke-width="5" stroke-linecap="butt"/><path d="M289.31611,253.66911c0,0 6.46762,-5.64136 13.59708,-4.66874c8.88825,1.21256 10.52323,13.73568 10.52323,13.73568" data-paper-data="{&quot;index&quot;:null}" fill="none" stroke="#000000" stroke-width="3.5" stroke-linecap="round"/><path d="M268.95466,257.59815c0,0 4.1939,-9.16884 13.16854,-9.87303c5.03812,-0.39531 10.25325,3.65964 10.25325,3.65964" data-paper-data="{&quot;index&quot;:null}" fill="none" stroke="#000000" stroke-width="3.5" stroke-linecap="round"/><path d="M278.54434,253.49847c-0.15834,-1.48382 1.44993,-2.87214 3.5922,-3.10091c2.14227,-0.22877 4.00728,0.78867 4.16563,2.27249c0.15834,1.48382 -1.44993,2.87214 -3.5922,3.10091c-2.14227,0.22877 -4.00728,-0.78867 -4.16563,-2.27249z" data-paper-data="{&quot;index&quot;:null}" fill="#da4a8b" stroke="none" stroke-width="0.5" stroke-linecap="butt"/><path d="M296.95845,253.53788c0.01585,-1.29643 1.99993,-2.26227 4.43157,-2.15724c2.43164,0.10502 4.39004,1.24112 4.37419,2.53755c-0.01585,1.29643 -1.99993,2.26227 -4.43157,2.15724c-2.43164,-0.10502 -4.39004,-1.24112 -4.37419,-2.53755z" data-paper-data="{&quot;index&quot;:null}" fill="#da4a8b" stroke="none" stroke-width="0.5" stroke-linecap="butt"/></g></g></svg>