<svg version="1.1" xmlns="http://www.w3.org/2000/svg" xmlns:xlink="http://www.w3.org/1999/xlink" width="254.37082" height="254.37082" viewBox="0,0,254.37082,254.37082"><defs><radialGradient cx="300.00001" cy="180.00001" r="127.18541" gradientUnits="userSpaceOnUse" id="color-1"><stop offset="0" stop-color="#000000" stop-opacity="0"/><stop offset="1" stop-color="#000000" stop-opacity="0"/></radialGradient></defs><g transform="translate(-172.8146,-52.8146)"><g data-paper-data="{&quot;isPaintingLayer&quot;:true}" fill-rule="nonzero" stroke="#000000" stroke-width="0" stroke-linecap="butt" stroke-linejoin="miter" stroke-miterlimit="10" stroke-dasharray="" stroke-dashoffset="0" style="mix-blend-mode: normal"><g><path d="M228.78783,168.07408c-1.60406,-13.21742 7.81042,-25.23262 21.02786,-26.83668c13.21742,-1.60406 25.23262,7.81042 26.83668,21.02786c1.60406,13.21742 -7.81042,25.23262 -21.02786,26.83668c-13.21742,1.60406 -25.23262,-7.81042 -26.83668,-21.02786z" fill="#000000"/><path d="M236.03648,158.05163c-0.46595,-3.83943 2.26879,-7.32963 6.10822,-7.79558c3.83943,-0.46595 7.32963,2.26879 7.79558,6.10822c0.46595,3.83943 -2.26879,7.32963 -6.10822,7.79558c-3.83943,0.46595 -7.32963,-2.26879 -7.79558,-6.10822z" fill="#ffffff"/></g><g><path d="M323.34765,168.07407c-1.60406,-13.21742 7.81043,-25.23262 21.02785,-26.83668c13.21743,-1.60406 25.23262,7.81043 26.83669,21.02786c0.7463,6.14946 -0.8925,12.03868 -4.1897,16.74024c-11.00578,-3.8372 -22.90005,-2.92311 -34.15388,2.17771c-0.8886,0.40276 -1.74334,0.76492 -2.56333,1.10655c-3.7238,-3.68728 -6.27725,-8.60939 -6.95763,-14.21569z" fill="#000000"/><path d="M330.59628,158.05163c-0.46595,-3.83943 2.26879,-7.32963 6.10822,-7.79558c3.83943,-0.46595 7.32963,2.26879 7.79558,6.10822c0.46595,3.83943 -2.26878,7.32963 -6.10821,7.79558c-3.83943,0.46595 -7.32963,-2.26879 -7.79559,-6.10822z" fill="#ffffff"/></g><path d="M172.81461,180.00001c0,-70.24256 56.94284,-127.1854 127.18541,-127.1854c70.24257,0 127.18541,56.94284 127.18541,127.18541c0,70.24256 -56.94284,127.18541 -127.1854,127.18541c-70.24256,0 -127.1854,-56.94285 -127.1854,-127.1854zM322.82057,186.13434c-2.79146,1.77396 -4.64376,4.8937 -4.64376,8.44607c0,5.52285 4.47715,10 10,10c2.93011,0 5.56587,-1.26021 7.39487,-3.26819c0.12773,-0.05392 0.2566,-0.10448 0.38683,-0.15117c6.01978,-2.15811 15.87025,-7.69152 22.10409,-4.43396c3.96722,2.07312 8.3672,3.44877 11.93719,6.31423c2.53932,2.03819 -0.23882,5.39655 4.72489,7.05112c3.18689,1.0623 7.05768,2.06133 10.06231,0.55902c9.44778,-4.72389 4.81587,-17.07926 -0.75743,-22.20575c-1.8329,-1.68595 -4.67331,-2.87233 -6.82569,-4.31959c-13.55717,-9.11582 -29.50249,-9.66591 -44.33525,-2.94293c-4.09852,1.85766 -7.47652,2.8516 -10.04803,4.95114z" fill="url(#color-1)"/></g></g></svg>