<svg version="1.1" xmlns="http://www.w3.org/2000/svg" xmlns:xlink="http://www.w3.org/1999/xlink" width="230.14186" height="230.14186" viewBox="0,0,230.14186,230.14186"><g transform="translate(-184.9291,-64.92909)"><g data-paper-data="{&quot;isPaintingLayer&quot;:true}" fill-rule="nonzero" stroke-linejoin="miter" stroke-miterlimit="10" stroke-dasharray="" stroke-dashoffset="0" style="mix-blend-mode: normal"><path d="M381.27438,216.75031c0,0 -13.90714,12.47065 -16.9707,11.39934c-6.06709,-2.12163 -8.46721,-15.87661 -8.46721,-15.87661" data-paper-data="{&quot;index&quot;:null}" fill="#ffffff" stroke="#000000" stroke-width="6.5" stroke-linecap="round"/><path d="M355.85951,212.52813c0,0 -11.57951,14.39209 -14.78776,13.7936c-6.35362,-1.18524 -11.09082,-14.40213 -11.09082,-14.40213" data-paper-data="{&quot;index&quot;:null}" fill="#ffffff" stroke="#000000" stroke-width="6.5" stroke-linecap="round"/><path d="M244.16502,213.21056c0,0 -2.40012,13.75497 -8.46721,15.87661c-3.06357,1.07132 -16.9707,-11.39934 -16.9707,-11.39934" fill="#ffffff" stroke="#000000" stroke-width="6.5" stroke-linecap="round"/><path d="M270.02057,212.85711c0,0 -4.7372,13.21689 -11.09082,14.40214c-3.20825,0.59848 -14.78776,-13.7936 -14.78776,-13.7936" fill="#ffffff" stroke="#000000" stroke-width="6.5" stroke-linecap="round"/><path d="M184.92911,295.07095v-230.14186h230.14186v230.14186z" fill="none" stroke="none" stroke-width="0" stroke-linecap="butt"/><path d="M220.41315,215.32259c0,0 15.39555,-3.87298 23.38435,-4.51373c7.94602,-0.63732 24.42079,0.67946 24.42079,0.67946c0,0 16.51313,-3.28404 25.31056,-3.35504c3.2718,-0.02641 10.75538,1.45899 17.35336,1.96632c10.32067,0.79357 20.03356,0.75309 20.03356,0.75309c0,0 16.42713,-1.85427 24.80279,-1.35135c9.07701,0.54503 27.7246,4.50539 27.7246,4.50539" fill="none" stroke="#000000" stroke-width="6.5" stroke-linecap="round"/><path d="M216.55687,208.08051v13.15861" fill="none" stroke="#000000" stroke-width="6.5" stroke-linecap="round"/><path d="M383.44315,219.65981v-13.15861" fill="none" stroke="#000000" stroke-width="6.5" stroke-linecap="round"/></g></g></svg>