<svg xmlns:xlink="http://www.w3.org/1999/xlink" xmlns="http://www.w3.org/2000/svg" viewBox="0 0 240 234" id="mnemonic"><defs><radialGradient gradientUnits="userSpaceOnUse" r="143.43" cy="81.29" cx="97.71" id="New_Gradient_Swatch_5"><stop stop-opacity="0.85" stop-color="#301800" offset="0"/><stop stop-color="#301800" offset="0.77"/></radialGradient></defs><title>br</title><rect style="fill:url(#New_Gradient_Swatch_5)" height="214" width="220" y="10" x="10"/><path style="fill:#fcaf17;fill-rule:evenodd" transform="translate(0)" d="M0,0V234H240V0ZM10,10H230V224H10Z"/><path style="fill:#fcaf17;fill-rule:evenodd" transform="translate(0)" d="M61.75,54.83c0-.82.17-1.15.83-1.31,4.62-.17,17.1-.5,27.16-.5,30.53,0,36,17.82,36,28.54,0,12.21-5.94,19.15-10.23,22.61,6.11,3,15.18,10.56,15.18,26.23,0,20.79-16.66,33.5-42.07,33.33-10.89,0-20.4-.16-25.68-.33a1.25,1.25,0,0,1-1.16-1.32Zm17.5,42.92H89.32a79.7,79.7,0,0,1,12.63.81c3.47-3,6.27-7.42,6.27-14.52,0-10.23-6.86-15.35-18.57-15.35-4,0-7.76.17-10.4.33Zm0,50.23c3,.17,5.78.24,9.41.24,13,0,23.52-4.95,23.52-17.49,0-7.75-4-13.43-12-15.91a34.61,34.61,0,0,0-9.74-1.32H79.25Zm65-49.26c0-1.15,0-4.12-.49-9.73,0-.83.1-1,.76-1.32a104.23,104.23,0,0,1,36.58-6.93c.82,0,1.15.16,1.15,1V96.25c0,.82-.25,1-1.08,1-6.27-.33-15.45.49-18.92,2v63.12c0,.83-.33,1.16-1.15,1.16H145.41c-.83,0-1.16-.33-1.16-1.16Z"/></svg>