<svg xmlns:xlink="http://www.w3.org/1999/xlink" xmlns="http://www.w3.org/2000/svg" viewBox="0 0 240 234" id="mnemonic"><defs><radialGradient gradientUnits="userSpaceOnUse" r="143.43" cy="81.29" cx="97.71" id="New_Gradient_Swatch_33"><stop stop-opacity="0.85" stop-color="#002b36" offset="0"/><stop stop-color="#002b36" offset="0.77"/></radialGradient></defs><title>pl</title><rect style="fill:url(#New_Gradient_Swatch_33)" height="214" width="220" y="10" x="10"/><path style="fill:#60cbea;fill-rule:evenodd" transform="translate(0)" d="M0,0V234H240V0ZM10,10H230V224H10Z"/><path style="fill:#60cbea;fill-rule:evenodd" transform="translate(0)" d="M65.5,54.67c0-.65.17-1.15,1-1.15,6.44-.33,15.72-.49,25.62-.49,27.72,0,39.77,15.17,39.77,34.64,0,25.41-18.27,36.3-40.87,36.3-3.8,0-5.12-.16-7.76-.16v38.53c0,.83-.33,1.16-1.15,1.16H66.66c-.83,0-1.16-.33-1.16-1.16ZM83.25,107.8c2.31.17,4.13.17,8.09.17,11.71,0,22.55-4.13,22.55-20,0-12.7-7.7-19.13-21.07-19.13-4,0-7.75.16-9.57.33ZM149.5,54.49c0-.66.16-1,1.15-1h15.53c1,0,1.32.33,1.32,1v89.78c0,4,1.48,5.44,4.46,5.44a10.7,10.7,0,0,0,2.71-.33c.66,0,.83.17.83,1v11.72c0,1-.17,1.32-.83,1.65a25.72,25.72,0,0,1-8.67,1.15c-8.75,0-16.5-3.3-16.5-19.14Z"/></svg>