<svg xmlns:xlink="http://www.w3.org/1999/xlink" xmlns="http://www.w3.org/2000/svg" xml:space="preserve" style="enable-background:new 0 0 240 234;" viewBox="0 0 240 234" y="0px" x="0px" id="pr_x5F_cc_x5F_app_x5F_RGB.svg" version="1.1">
<g>
	<rect height="214" width="220" style="fill-rule:evenodd;clip-rule:evenodd;fill:#2A0034;" y="10" x="10"/>
</g>
<g>
	<path d="M0,0V234h240.001V0H0z M10,10h220.001V224H10V10z" style="fill-rule:evenodd;clip-rule:evenodd;fill:#EA77FF;"/>
</g>
<path d="M62.97,54.778c0-0.66,0.165-1.155,0.99-1.155  c6.435-0.33,15.84-0.495,25.74-0.495c27.72,0,39.765,15.18,39.765,34.65c0,25.41-18.385,36.3-40.99,36.3  c-3.795,0-5.115-0.164-7.755-0.164v38.43c0,0.826-0.33,1.156-1.155,1.156H64.125c-0.825,0-1.155-0.33-1.155-1.156V54.778z   M80.72,107.907c2.31,0.166,4.125,0.166,8.085,0.166c11.715,0,22.675-4.125,22.675-19.965c0-12.705-7.825-19.141-21.19-19.141  c-3.96,0-7.755,0.166-9.57,0.33V107.907z M144.719,98.832c0-1.154,0-4.125-0.494-9.734c0-0.826,0.115-0.99,0.775-1.32  c6.104-2.475,20.393-6.93,36.563-6.93c0.826,0,1.156,0.164,1.156,0.989v14.52c0,0.824-0.266,0.99-1.09,0.99  c-6.271-0.33-15.445,0.494-18.91,1.979v63.016c0,0.826-0.33,1.156-1.156,1.156h-15.689c-0.825,0-1.155-0.33-1.155-1.156V98.832z" style="fill-rule:evenodd;clip-rule:evenodd;fill:#EA77FF;"/>
</svg>