<svg version="1.1" xmlns="http://www.w3.org/2000/svg" xmlns:xlink="http://www.w3.org/1999/xlink" width="240" height="234" viewBox="0,0,240,234"><defs><radialGradient cx="217.71" cy="144.29" r="143.43" gradientUnits="userSpaceOnUse" id="color-1"><stop offset="0" stop-color="#360100" stop-opacity="0.85"/><stop offset="0.77" stop-color="#360100"/></radialGradient></defs><g transform="translate(-120,-63)"><g data-paper-data="{&quot;isPaintingLayer&quot;:true}" stroke="none" stroke-width="1" stroke-linecap="butt" stroke-linejoin="miter" stroke-miterlimit="10" stroke-dasharray="" stroke-dashoffset="0" style="mix-blend-mode: normal"><path d="M130,287v-214h220v214z" fill="url(#color-1)" fill-rule="nonzero"/><path d="M360,63v234h-240v-234zM130,287h220v-214h-220z" fill="#f37021" fill-rule="evenodd"/><path d="M203.25,195.5l-7.92,30c-0.16,0.83 -0.49,1 -1.48,1h-14.69c-1,0 -1.15,-0.33 -1,-1.48l28.39,-99.45c0.5,-1.82 0.83,-3.38 1,-8.33c0,-0.66 0.33,-1 0.83,-1h20.95c0.66,0 1,0.16 1.16,1l31.84,107.94c0.17,0.82 0,1.32 -0.82,1.32h-16.51c-0.83,0 -1.32,-0.19 -1.49,-0.85l-8.25,-30.15zM231.14,179.25c-2.81,-11.06 -9.41,-35.29 -11.88,-47h-0.17c-2.09,11.75 -7.42,31.49 -11.55,47zM276.14,123.67c0,-6.43 4.46,-10.23 10.23,-10.23c6.11,0 10.23,4.13 10.23,10.23c0,6.6 -4.29,10.23 -10.39,10.23c-5.95,0 -10.08,-3.63 -10.08,-10.23zM277.26,146.4c0,-0.82 0.33,-1.15 1.16,-1.15h15.68c0.82,0 1.15,0.33 1.15,1.15v78.94c0,0.83 -0.16,1.16 -1.15,1.16h-15.53c-1,0 -1.32,-0.5 -1.32,-1.32z" fill="#f37021" fill-rule="evenodd"/></g></g></svg>