<svg xmlns:xlink="http://www.w3.org/1999/xlink" xmlns="http://www.w3.org/2000/svg" xml:space="preserve" style="enable-background:new 0 0 240 234;" viewBox="0 0 240 234" y="0px" x="0px" id="ae_x5F_cc_x5F_app_x5F_RGB.svg" version="1.1">
<path d="M0,0.001v234h240v-234H0z M10,10.001h220v214H10V10.001z" style="fill-rule:evenodd;clip-rule:evenodd;fill:#9E8CFF;"/>
<rect height="214" width="220" style="fill-rule:evenodd;clip-rule:evenodd;fill:#0B004D;" y="10.001" x="10"/>
<path d="M93,47.001H79v14h14V47.001z M163,61.001h-14v14h14V61.001z M135,61.001h-14v14h14V61.001z   M107,75.001v-14H93v14H107z M121,89.001v-14h-14v14H121z M177,89.001v14h14v-14H177z M163,89.001h-14v14h14V89.001z M135,103.001  v-14h-14v14H135z M149,117.001v-14h-14v14H149z M177,131.001h14v-14h-14V131.001z M163,131.001v-14h-14v14H163z M163,145.001h14v-14  h-14V145.001z M191,159.001v-14h-14v14H191z M163,145.001h-14v-14h-14v-14h-14v-14h-14v-14H93v-14H79v-14H65v-14H49v140h142v-14h-14  v-14h-14V145.001z" style="fill:#9E8CFF;"/>
</svg>