<svg xmlns:xlink="http://www.w3.org/1999/xlink" xmlns="http://www.w3.org/2000/svg" xml:space="preserve" style="enable-background:new 0 0 240 234;" viewBox="0 0 240 234" y="0px" x="0px" id="mnemonic" version="1.1">
<style type="text/css">
	.st0{fill-rule:evenodd;clip-rule:evenodd;fill:url(#SVGID_1_);}
	.st1{fill-rule:evenodd;clip-rule:evenodd;fill:#241D1B;}
	.st2{fill-rule:evenodd;clip-rule:evenodd;fill:#FFFFFF;}
</style>
<g>
	<g>
		<linearGradient y2="117.0004" x2="240.0004" y1="117.0004" x1="4.000000e-04" gradientUnits="userSpaceOnUse" id="SVGID_1_">
			<stop style="stop-color:#666666" offset="0"/>
			<stop style="stop-color:#CCCCCC" offset="0.5031"/>
			<stop style="stop-color:#666666" offset="1"/>
		</linearGradient>
		<path d="M0,0v234h240V0H0z M18,18h204v198H18V18z" class="st0"/>
	</g>
	<g>
		<rect height="198" width="204" class="st1" y="18" x="18"/>
	</g>
	<g>
		<path d="M92,62.5c9.4,0,16.9,1.3,20.8,3.3c0.6,0.3,0.7,0.6,0.7,1.5v13.5c0,1-0.6,1-1,0.9c-4.9-2.1-11.4-3.7-20-3.7    C72.1,77.9,58,90.9,58,112.2c0,26.9,19.3,34.2,34,34.2c8.6,0,16.1-1.8,21.5-4c0.6-0.3,1,0,1,0.9v12.9c0,0.9-0.2,1.5-1,1.8    c-5.2,2.7-14.2,4.5-24.6,4.5c-25.2,0-49.3-14.3-49.3-49.8C39.6,84.6,60.1,62.5,92,62.5z" class="st2"/>
		<path d="M129,154.9c-0.9-0.6-1-1.2-1-2.2v-14.1c0-0.7,0.6-1.2,1.2-0.7c8.2,5.8,19.4,9.6,29.9,9.6    c11.6,0,15.9-5.2,15.9-11c0-6.2-3-9.5-19-16.3c-20.3-8.6-27.2-16.2-27.2-30.3c0-14.4,11.7-27.2,34.2-27.2    c10.5,0,18.9,2.4,24.1,5.3c0.6,0.4,0.9,0.9,0.9,1.8v13.5c0,0.6-0.6,1-1.3,0.6c-6.4-3.9-15.2-6.8-24-6.8c-13.5,0-16,7.1-16,11.1    c0,5.3,2.8,9.4,17.7,15.6c23.8,9.8,29,18.3,29,30.9c0,17.1-13.4,27.8-34.9,27.8C147.7,162.4,136.3,159.9,129,154.9z" class="st2"/>
	</g>
</g>
</svg>