<svg xmlns:xlink="http://www.w3.org/1999/xlink" xmlns="http://www.w3.org/2000/svg" viewBox="0 0 240 234" id="mnemonic"><defs><radialGradient gradientUnits="userSpaceOnUse" r="143.43" cy="81.29" cx="97.71" id="New_Gradient_Swatch_19"><stop stop-opacity="0.85" stop-color="#2c0016" offset="0"/><stop stop-color="#2c0016" offset="0.77"/></radialGradient></defs><title>ic</title><rect style="fill:url(#New_Gradient_Swatch_19)" height="214" width="220" y="10" x="10"/><path style="fill:#c63d96;fill-rule:evenodd" transform="translate(0)" d="M0,0V234H240V0ZM10,10H230V224H10Z"/><path style="fill:#c63d96;fill-rule:evenodd" transform="translate(0)" d="M95.5,162.18c0,1-.16,1.32-1.32,1.32H78.82c-1,0-1.32-.5-1.32-1.32V54.82c0-1,.5-1.32,1.32-1.32H94.35c.82,0,1.15.33,1.15,1.15Zm73.75-.76a1.23,1.23,0,0,1-.82,1.32c-4.29,1.65-9.55,2.15-15,2.15-23.43,0-37.12-17.33-37.12-41.91,0-24.09,15.51-42.24,39.27-42.24,6.43,0,10.39.49,12.87,1.48a1.68,1.68,0,0,1,.82,1.65l-.16,13.7c0,.82-.5,1-1.16.82a29.84,29.84,0,0,0-11.38-1.81c-13,0-21.95,9.07-21.95,25.57,0,19.48,11.22,26.24,22.28,26.24,4.78,0,8.72-.5,11.2-1.49.82-.16,1.15.17,1.15.83Z"/></svg>