<svg xmlns:xlink="http://www.w3.org/1999/xlink" xmlns="http://www.w3.org/2000/svg" viewBox="0 0 240 234" id="mnemonic"><defs><radialGradient gradientUnits="userSpaceOnUse" r="143.43" cy="81.29" cx="97.83" id="New_Gradient_Swatch_21"><stop stop-opacity="0.85" stop-color="#320008" offset="0"/><stop stop-color="#320008" offset="0.77"/></radialGradient></defs><title>id</title><rect style="fill:url(#New_Gradient_Swatch_21)" height="214" width="220" y="10" x="10.12"/><path style="fill:#ee3d8f;fill-rule:evenodd" transform="translate(0)" d="M0,0V234H240V0ZM10,10H230V224H10Z"/><path style="fill:#ee3d8f;fill-rule:evenodd" transform="translate(0)" d="M87.75,162.18c0,1-.16,1.32-1.32,1.32H71.07c-1,0-1.32-.49-1.32-1.32V54.82c0-1,.5-1.32,1.32-1.32H86.6c.82,0,1.15.33,1.15,1.16Zm17.69-38.73c0-23.92,15.79-42.57,41-42.57,2.15,0,3.3,0,5.28.17V54.49a1,1,0,0,1,1-1H169c.82,0,1,.33,1,.83v93.54a76.42,76.42,0,0,0,.49,10.07c0,.66-.2.82-.86,1.15A60.62,60.62,0,0,1,143.39,165C121.28,165,105.44,151.34,105.44,123.45Zm46.31-26.23a14.8,14.8,0,0,0-5.94-1c-12.87,0-21.89,9.9-21.89,26.4,0,18.81,9.19,26.4,20.73,26.4a19.32,19.32,0,0,0,7.1-1.16Z"/></svg>